{
.appVersion = "1352";
DisplayStrings = (

glyphs = (
{
glyphname = .notdef;
lastChange = "2022-01-10 21:39:40 +0000";
layers = (
{
background = {
paths = (
{
closed = 1;
nodes = (
"378 0 LINE",
"387 8 LINE",
"387 621 LINE",
"378 630 LINE",
"58 630 LINE",
"51 621 LINE",
"50 621 LINE",
"50 9 LINE",
"58 0 LINE"
);
},
{
closed = 1;
nodes = (
"219 299 LINE",
"365 18 LINE",
"72 18 LINE"
);
},
{
closed = 1;
nodes = (
"69 585 LINE",
"210 315 LINE",
"69 45 LINE"
);
},
{
closed = 1;
nodes = (
"227 315 LINE",
"368 585 LINE",
"368 45 LINE"
);
},
{
closed = 1;
nodes = (
"71 611 LINE",
"366 611 LINE",
"219 330 LINE"
);
}
);
};
layerId = "F2190ACF-0345-4BD7-9FAD-2D95E96981D2";
paths = (
{
closed = 1;
nodes = (
"378 7 LINE",
"387 15 LINE",
"387 628 LINE",
"378 637 LINE",
"58 637 LINE",
"51 628 LINE",
"50 628 LINE",
"50 16 LINE",
"58 7 LINE"
);
},
{
closed = 1;
nodes = (
"219 306 LINE",
"365 25 LINE",
"72 25 LINE"
);
},
{
closed = 1;
nodes = (
"69 592 LINE",
"210 322 LINE",
"69 52 LINE"
);
},
{
closed = 1;
nodes = (
"227 322 LINE",
"368 592 LINE",
"368 52 LINE"
);
},
{
closed = 1;
nodes = (
"71 618 LINE",
"366 618 LINE",
"219 337 LINE"
);
}
);
width = 437;
}
);
note = .notdef;
},
{
glyphname = A;
lastChange = "2022-01-10 21:39:40 +0000";
layers = (
{
background = {
paths = (
{
closed = 1;
nodes = (
"252 -47 OFFCURVE",
"312 -38 OFFCURVE",
"375 -17 CURVE SMOOTH",
"507 28 OFFCURVE",
"623 125 OFFCURVE",
"734 232 CURVE",
"745 231 LINE SMOOTH",
"775 229 OFFCURVE",
"877 217 OFFCURVE",
"889 187 CURVE SMOOTH",
"891 183 OFFCURVE",
"893 181 OFFCURVE",
"895 181 CURVE SMOOTH",
"896 181 OFFCURVE",
"897 182 OFFCURVE",
"897 185 CURVE SMOOTH",
"897 189 LINE",
"890 236 OFFCURVE",
"840 267 OFFCURVE",
"788 286 CURVE",
"889 389 OFFCURVE",
"986 496 OFFCURVE",
"1086 575 CURVE SMOOTH",
"1167 638 OFFCURVE",
"1235 656 OFFCURVE",
"1284 656 CURVE SMOOTH",
"1324 656 OFFCURVE",
"1350 644 OFFCURVE",
"1357 636 CURVE SMOOTH",
"1361 632 OFFCURVE",
"1367 638 OFFCURVE",
"1363 642 CURVE SMOOTH",
"1352 653 OFFCURVE",
"1315 675 OFFCURVE",
"1261 675 CURVE SMOOTH",
"1214 675 OFFCURVE",
"1153 659 OFFCURVE",
"1084 604 CURVE SMOOTH",
"985 526 OFFCURVE",
"879 406 OFFCURVE",
"769 293 CURVE",
"744 301 OFFCURVE",
"719 307 OFFCURVE",
"700 311 CURVE SMOOTH",
"643 323 OFFCURVE",
"583 328 OFFCURVE",
"524 328 CURVE SMOOTH",
"455 328 OFFCURVE",
"385 321 OFFCURVE",
"319 309 CURVE SMOOTH",
"84 267 OFFCURVE",
"-27 170 OFFCURVE",
"-27 85 CURVE SMOOTH",
"-27 52 OFFCURVE",
"-10 21 OFFCURVE",
"23 -5 CURVE SMOOTH",
"50 -26 OFFCURVE",
"116 -47 OFFCURVE",
"199 -47 CURVE SMOOTH"
);
},
{
closed = 1;
nodes = (
"143 -30 OFFCURVE",
"98 -19 OFFCURVE",
"80 -5 CURVE SMOOTH",
"62 8 OFFCURVE",
"53 25 OFFCURVE",
"53 42 CURVE SMOOTH",
"53 98 OFFCURVE",
"146 169 OFFCURVE",
"367 208 CURVE SMOOTH",
"458 225 OFFCURVE",
"562 235 OFFCURVE",
"656 235 CURVE SMOOTH",
"674 235 OFFCURVE",
"692 235 OFFCURVE",
"709 234 CURVE",
"600 127 OFFCURVE",
"486 33 OFFCURVE",
"371 -3 CURVE SMOOTH",
"310 -22 OFFCURVE",
"251 -30 OFFCURVE",
"202 -30 CURVE SMOOTH"
);
},
{
closed = 1;
nodes = (
"976 -99 OFFCURVE",
"979 -95 OFFCURVE",
"979 -92 CURVE SMOOTH",
"979 -91 OFFCURVE",
"979 -90 OFFCURVE",
"978 -89 CURVE SMOOTH",
"954 -64 OFFCURVE",
"944 -30 OFFCURVE",
"944 10 CURVE SMOOTH",
"944 184 OFFCURVE",
"1131 471 OFFCURVE",
"1219 580 CURVE SMOOTH",
"1222 584 OFFCURVE",
"1224 594 OFFCURVE",
"1224 603 CURVE SMOOTH",
"1224 614 OFFCURVE",
"1221 624 OFFCURVE",
"1216 624 CURVE SMOOTH",
"1214 624 OFFCURVE",
"1211 621 OFFCURVE",
"1207 616 CURVE SMOOTH",
"1191 592 OFFCURVE",
"963 358 OFFCURVE",
"903 182 CURVE SMOOTH",
"891 147 OFFCURVE",
"885 112 OFFCURVE",
"885 78 CURVE SMOOTH",
"885 9 OFFCURVE",
"912 -54 OFFCURVE",
"972 -96 CURVE SMOOTH"
);
}
);
};
layerId = "F2190ACF-0345-4BD7-9FAD-2D95E96981D2";
paths = (
{
closed = 1;
nodes = (
"252 -40 OFFCURVE",
"312 -31 OFFCURVE",
"375 -10 CURVE SMOOTH",
"507 35 OFFCURVE",
"623 132 OFFCURVE",
"734 239 CURVE",
"745 238 LINE SMOOTH",
"775 236 OFFCURVE",
"877 224 OFFCURVE",
"889 194 CURVE SMOOTH",
"891 190 OFFCURVE",
"893 188 OFFCURVE",
"895 188 CURVE SMOOTH",
"896 188 OFFCURVE",
"897 189 OFFCURVE",
"897 192 CURVE SMOOTH",
"897 196 LINE",
"890 243 OFFCURVE",
"840 274 OFFCURVE",
"788 293 CURVE",
"889 396 OFFCURVE",
"986 503 OFFCURVE",
"1086 582 CURVE SMOOTH",
"1167 645 OFFCURVE",
"1235 663 OFFCURVE",
"1284 663 CURVE SMOOTH",
"1324 663 OFFCURVE",
"1350 651 OFFCURVE",
"1357 643 CURVE SMOOTH",
"1361 639 OFFCURVE",
"1367 645 OFFCURVE",
"1363 649 CURVE SMOOTH",
"1352 660 OFFCURVE",
"1315 682 OFFCURVE",
"1261 682 CURVE SMOOTH",
"1214 682 OFFCURVE",
"1153 666 OFFCURVE",
"1084 611 CURVE SMOOTH",
"985 533 OFFCURVE",
"879 413 OFFCURVE",
"769 300 CURVE",
"744 308 OFFCURVE",
"719 314 OFFCURVE",
"700 318 CURVE SMOOTH",
"643 330 OFFCURVE",
"583 335 OFFCURVE",
"524 335 CURVE SMOOTH",
"455 335 OFFCURVE",
"385 328 OFFCURVE",
"319 316 CURVE SMOOTH",
"84 274 OFFCURVE",
"-27 177 OFFCURVE",
"-27 92 CURVE SMOOTH",
"-27 59 OFFCURVE",
"-10 28 OFFCURVE",
"23 2 CURVE SMOOTH",
"50 -19 OFFCURVE",
"116 -40 OFFCURVE",
"199 -40 CURVE SMOOTH"
);
},
{
closed = 1;
nodes = (
"143 -23 OFFCURVE",
"98 -12 OFFCURVE",
"80 2 CURVE SMOOTH",
"62 15 OFFCURVE",
"53 32 OFFCURVE",
"53 49 CURVE SMOOTH",
"53 105 OFFCURVE",
"146 176 OFFCURVE",
"367 215 CURVE SMOOTH",
"458 232 OFFCURVE",
"562 242 OFFCURVE",
"656 242 CURVE SMOOTH",
"674 242 OFFCURVE",
"692 242 OFFCURVE",
"709 241 CURVE",
"600 134 OFFCURVE",
"486 40 OFFCURVE",
"371 4 CURVE SMOOTH",
"310 -15 OFFCURVE",
"251 -23 OFFCURVE",
"202 -23 CURVE SMOOTH"
);
},
{
closed = 1;
nodes = (
"976 -92 OFFCURVE",
"979 -88 OFFCURVE",
"979 -85 CURVE SMOOTH",
"979 -84 OFFCURVE",
"979 -83 OFFCURVE",
"978 -82 CURVE SMOOTH",
"954 -57 OFFCURVE",
"944 -23 OFFCURVE",
"944 17 CURVE SMOOTH",
"944 191 OFFCURVE",
"1131 478 OFFCURVE",
"1219 587 CURVE SMOOTH",
"1222 591 OFFCURVE",
"1224 601 OFFCURVE",
"1224 610 CURVE SMOOTH",
"1224 621 OFFCURVE",
"1221 631 OFFCURVE",
"1216 631 CURVE SMOOTH",
"1214 631 OFFCURVE",
"1211 628 OFFCURVE",
"1207 623 CURVE SMOOTH",
"1191 599 OFFCURVE",
"963 365 OFFCURVE",
"903 189 CURVE SMOOTH",
"891 154 OFFCURVE",
"885 119 OFFCURVE",
"885 85 CURVE SMOOTH",
"885 16 OFFCURVE",
"912 -47 OFFCURVE",
"972 -89 CURVE SMOOTH"
);
}
);
width = 1030;
}
);
note = A;
unicode = 0041;
},
{
glyphname = AE;
lastChange = "2022-01-10 21:39:40 +0000";
layers = (
{
background = {
paths = (
{
closed = 1;
nodes = (
"1204 -90 OFFCURVE",
"1243 -86 OFFCURVE",
"1286 -77 CURVE SMOOTH",
"1509 -30 OFFCURVE",
"1751 142 OFFCURVE",
"1785 238 CURVE SMOOTH",
"1787 244 OFFCURVE",
"1787 247 OFFCURVE",
"1787 249 CURVE SMOOTH",
"1787 251 OFFCURVE",
"1787 252 OFFCURVE",
"1786 252 CURVE SMOOTH",
"1784 252 OFFCURVE",
"1780 248 OFFCURVE",
"1774 240 CURVE SMOOTH",
"1681 105 OFFCURVE",
"1464 -3 OFFCURVE",
"1275 -36 CURVE SMOOTH",
"1235 -43 OFFCURVE",
"1197 -47 OFFCURVE",
"1163 -47 CURVE SMOOTH",
"1031 -47 OFFCURVE",
"947 4 OFFCURVE",
"947 88 CURVE SMOOTH",
"947 140 OFFCURVE",
"979 204 OFFCURVE",
"1053 278 CURVE",
"1103 278 OFFCURVE",
"1154 277 OFFCURVE",
"1205 275 CURVE SMOOTH",
"1258 273 OFFCURVE",
"1479 245 OFFCURVE",
"1460 213 CURVE SMOOTH",
"1455 205 OFFCURVE",
"1466 203 OFFCURVE",
"1479 216 CURVE SMOOTH",
"1493 229 OFFCURVE",
"1499 241 OFFCURVE",
"1499 252 CURVE SMOOTH",
"1499 305 OFFCURVE",
"1354 329 OFFCURVE",
"1268 339 CURVE SMOOTH",
"1227 344 OFFCURVE",
"1184 348 OFFCURVE",
"1140 350 CURVE",
"1286 452 OFFCURVE",
"1514 537 OFFCURVE",
"1633 537 CURVE SMOOTH",
"1682 537 OFFCURVE",
"1713 523 OFFCURVE",
"1713 490 CURVE SMOOTH",
"1713 480 OFFCURVE",
"1710 468 OFFCURVE",
"1704 455 CURVE SMOOTH",
"1701 449 OFFCURVE",
"1703 443 OFFCURVE",
"1706 443 CURVE SMOOTH",
"1708 443 OFFCURVE",
"1710 445 OFFCURVE",
"1712 450 CURVE SMOOTH",
"1719 464 OFFCURVE",
"1732 495 OFFCURVE",
"1732 525 CURVE SMOOTH",
"1732 602 OFFCURVE",
"1660 633 OFFCURVE",
"1574 633 CURVE SMOOTH",
"1540 633 OFFCURVE",
"1504 628 OFFCURVE",
"1469 620 CURVE SMOOTH",
"1447 615 OFFCURVE",
"1422 607 OFFCURVE",
"1397 598 CURVE",
"1387 634 OFFCURVE",
"1359 660 OFFCURVE",
"1323 670 CURVE SMOOTH",
"1309 674 OFFCURVE",
"1291 677 OFFCURVE",
"1271 677 CURVE SMOOTH",
"1221 677 OFFCURVE",
"1154 660 OFFCURVE",
"1084 604 CURVE SMOOTH",
"1001 539 OFFCURVE",
"914 445 OFFCURVE",
"823 350 CURVE",
"729 346 OFFCURVE",
"631 339 OFFCURVE",
"534 330 CURVE SMOOTH",
"74 286 OFFCURVE",
"-53 195 OFFCURVE",
"-53 112 CURVE SMOOTH",
"-53 68 OFFCURVE",
"-18 27 OFFCURVE",
"23 -5 CURVE SMOOTH",
"50 -26 OFFCURVE",
"116 -47 OFFCURVE",
"199 -47 CURVE SMOOTH",
"252 -47 OFFCURVE",
"312 -38 OFFCURVE",
"375 -17 CURVE SMOOTH",
"520 33 OFFCURVE",
"647 145 OFFCURVE",
"768 266 CURVE",
"839 271 OFFCURVE",
"906 275 OFFCURVE",
"971 277 CURVE",
"933 217 OFFCURVE",
"916 160 OFFCURVE",
"916 109 CURVE SMOOTH",
"916 -7 OFFCURVE",
"1007 -90 OFFCURVE",
"1167 -90 CURVE SMOOTH"
);
},
{
closed = 1;
nodes = (
"143 -30 OFFCURVE",
"98 -19 OFFCURVE",
"80 -5 CURVE SMOOTH",
"56 13 OFFCURVE",
"31 40 OFFCURVE",
"31 70 CURVE SMOOTH",
"31 132 OFFCURVE",
"134 207 OFFCURVE",
"556 247 CURVE SMOOTH",
"621 254 OFFCURVE",
"682 259 OFFCURVE",
"739 264 CURVE",
"621 144 OFFCURVE",
"497 36 OFFCURVE",
"371 -3 CURVE SMOOTH",
"310 -22 OFFCURVE",
"251 -30 OFFCURVE",
"202 -30 CURVE SMOOTH"
);
},
{
closed = 1;
nodes = (
"930 433 OFFCURVE",
"1007 512 OFFCURVE",
"1086 575 CURVE SMOOTH",
"1167 639 OFFCURVE",
"1236 656 OFFCURVE",
"1285 656 CURVE SMOOTH",
"1341 656 OFFCURVE",
"1371 631 OFFCURVE",
"1379 591 CURVE",
"1265 544 OFFCURVE",
"1129 460 OFFCURVE",
"1035 358 CURVE SMOOTH",
"1031 354 LINE",
"973 354 OFFCURVE",
"913 354 OFFCURVE",
"851 351 CURVE"
);
}
);
};
layerId = "F2190ACF-0345-4BD7-9FAD-2D95E96981D2";
paths = (
{
closed = 1;
nodes = (
"1204 -83 OFFCURVE",
"1243 -79 OFFCURVE",
"1286 -70 CURVE SMOOTH",
"1509 -23 OFFCURVE",
"1751 149 OFFCURVE",
"1785 245 CURVE SMOOTH",
"1787 251 OFFCURVE",
"1787 254 OFFCURVE",
"1787 256 CURVE SMOOTH",
"1787 258 OFFCURVE",
"1787 259 OFFCURVE",
"1786 259 CURVE SMOOTH",
"1784 259 OFFCURVE",
"1780 255 OFFCURVE",
"1774 247 CURVE SMOOTH",
"1681 112 OFFCURVE",
"1464 4 OFFCURVE",
"1275 -29 CURVE SMOOTH",
"1235 -36 OFFCURVE",
"1197 -40 OFFCURVE",
"1163 -40 CURVE SMOOTH",
"1031 -40 OFFCURVE",
"947 11 OFFCURVE",
"947 95 CURVE SMOOTH",
"947 147 OFFCURVE",
"979 211 OFFCURVE",
"1053 285 CURVE",
"1103 285 OFFCURVE",
"1154 284 OFFCURVE",
"1205 282 CURVE SMOOTH",
"1258 280 OFFCURVE",
"1479 252 OFFCURVE",
"1460 220 CURVE SMOOTH",
"1455 212 OFFCURVE",
"1466 210 OFFCURVE",
"1479 223 CURVE SMOOTH",
"1493 236 OFFCURVE",
"1499 248 OFFCURVE",
"1499 259 CURVE SMOOTH",
"1499 312 OFFCURVE",
"1354 336 OFFCURVE",
"1268 346 CURVE SMOOTH",
"1227 351 OFFCURVE",
"1184 355 OFFCURVE",
"1140 357 CURVE",
"1286 459 OFFCURVE",
"1514 544 OFFCURVE",
"1633 544 CURVE SMOOTH",
"1682 544 OFFCURVE",
"1713 530 OFFCURVE",
"1713 497 CURVE SMOOTH",
"1713 487 OFFCURVE",
"1710 475 OFFCURVE",
"1704 462 CURVE SMOOTH",
"1701 456 OFFCURVE",
"1703 450 OFFCURVE",
"1706 450 CURVE SMOOTH",
"1708 450 OFFCURVE",
"1710 452 OFFCURVE",
"1712 457 CURVE SMOOTH",
"1719 471 OFFCURVE",
"1732 502 OFFCURVE",
"1732 532 CURVE SMOOTH",
"1732 609 OFFCURVE",
"1660 640 OFFCURVE",
"1574 640 CURVE SMOOTH",
"1540 640 OFFCURVE",
"1504 635 OFFCURVE",
"1469 627 CURVE SMOOTH",
"1447 622 OFFCURVE",
"1422 614 OFFCURVE",
"1397 605 CURVE",
"1387 641 OFFCURVE",
"1359 667 OFFCURVE",
"1323 677 CURVE SMOOTH",
"1309 681 OFFCURVE",
"1291 684 OFFCURVE",
"1271 684 CURVE SMOOTH",
"1221 684 OFFCURVE",
"1154 667 OFFCURVE",
"1084 611 CURVE SMOOTH",
"1001 546 OFFCURVE",
"914 452 OFFCURVE",
"823 357 CURVE",
"729 353 OFFCURVE",
"631 346 OFFCURVE",
"534 337 CURVE SMOOTH",
"74 293 OFFCURVE",
"-53 202 OFFCURVE",
"-53 119 CURVE SMOOTH",
"-53 75 OFFCURVE",
"-18 34 OFFCURVE",
"23 2 CURVE SMOOTH",
"50 -19 OFFCURVE",
"116 -40 OFFCURVE",
"199 -40 CURVE SMOOTH",
"252 -40 OFFCURVE",
"312 -31 OFFCURVE",
"375 -10 CURVE SMOOTH",
"520 40 OFFCURVE",
"647 152 OFFCURVE",
"768 273 CURVE",
"839 278 OFFCURVE",
"906 282 OFFCURVE",
"971 284 CURVE",
"933 224 OFFCURVE",
"916 167 OFFCURVE",
"916 116 CURVE SMOOTH",
"916 0 OFFCURVE",
"1007 -83 OFFCURVE",
"1167 -83 CURVE SMOOTH"
);
},
{
closed = 1;
nodes = (
"143 -23 OFFCURVE",
"98 -12 OFFCURVE",
"80 2 CURVE SMOOTH",
"56 20 OFFCURVE",
"31 47 OFFCURVE",
"31 77 CURVE SMOOTH",
"31 139 OFFCURVE",
"134 214 OFFCURVE",
"556 254 CURVE SMOOTH",
"621 261 OFFCURVE",
"682 266 OFFCURVE",
"739 271 CURVE",
"621 151 OFFCURVE",
"497 43 OFFCURVE",
"371 4 CURVE SMOOTH",
"310 -15 OFFCURVE",
"251 -23 OFFCURVE",
"202 -23 CURVE SMOOTH"
);
},
{
closed = 1;
nodes = (
"930 440 OFFCURVE",
"1007 519 OFFCURVE",
"1086 582 CURVE SMOOTH",
"1167 646 OFFCURVE",
"1236 663 OFFCURVE",
"1285 663 CURVE SMOOTH",
"1341 663 OFFCURVE",
"1371 638 OFFCURVE",
"1379 598 CURVE",
"1265 551 OFFCURVE",
"1129 467 OFFCURVE",
"1035 365 CURVE SMOOTH",
"1031 361 LINE",
"973 361 OFFCURVE",
"913 361 OFFCURVE",
"851 358 CURVE"
);
}
);
width = 1788;
}
);
note = AE;
unicode = 00C6;
},
{
glyphname = B;
lastChange = "2022-01-10 21:39:40 +0000";
layers = (
{
background = {
paths = (
{
closed = 1;
nodes = (
"270 -58 OFFCURVE",
"364 -52 OFFCURVE",
"451 -10 CURVE SMOOTH",
"572 50 OFFCURVE",
"647 145 OFFCURVE",
"647 222 CURVE SMOOTH",
"647 292 OFFCURVE",
"584 348 OFFCURVE",
"436 348 CURVE SMOOTH",
"415 348 OFFCURVE",
"391 346 OFFCURVE",
"366 344 CURVE",
"427 358 OFFCURVE",
"490 378 OFFCURVE",
"544 406 CURVE SMOOTH",
"653 461 OFFCURVE",
"704 519 OFFCURVE",
"704 567 CURVE SMOOTH",
"704 626 OFFCURVE",
"626 668 OFFCURVE",
"486 668 CURVE SMOOTH",
"386 668 OFFCURVE",
"102 601 OFFCURVE",
"38 509 CURVE",
"36 505 OFFCURVE",
"34 500 OFFCURVE",
"34 493 CURVE SMOOTH",
"34 476 OFFCURVE",
"44 451 OFFCURVE",
"66 438 CURVE SMOOTH",
"70 435 OFFCURVE",
"75 434 OFFCURVE",
"75 437 CURVE SMOOTH",
"75 438 OFFCURVE",
"75 440 OFFCURVE",
"73 443 CURVE SMOOTH",
"69 450 OFFCURVE",
"74 458 OFFCURVE",
"84 466 CURVE SMOOTH",
"164 534 OFFCURVE",
"408 595 OFFCURVE",
"507 595 CURVE SMOOTH",
"605 595 OFFCURVE",
"647 569 OFFCURVE",
"647 534 CURVE SMOOTH",
"647 500 OFFCURVE",
"607 457 OFFCURVE",
"540 422 CURVE SMOOTH",
"432 366 OFFCURVE",
"310 343 OFFCURVE",
"191 323 CURVE",
"216 355 OFFCURVE",
"341 512 OFFCURVE",
"341 512 CURVE",
"342 519 OFFCURVE",
"336 529 OFFCURVE",
"328 529 CURVE SMOOTH",
"305 529 OFFCURVE",
"42 171 OFFCURVE",
"20 81 CURVE SMOOTH",
"19 78 OFFCURVE",
"19 75 OFFCURVE",
"19 73 CURVE SMOOTH",
"19 67 OFFCURVE",
"21 65 OFFCURVE",
"25 65 CURVE SMOOTH",
"31 65 OFFCURVE",
"39 71 OFFCURVE",
"42 79 CURVE",
"72 132 OFFCURVE",
"87 172 OFFCURVE",
"138 245 CURVE SMOOTH",
"168 289 OFFCURVE",
"276 321 OFFCURVE",
"357 328 CURVE SMOOTH",
"370 329 OFFCURVE",
"382 329 OFFCURVE",
"393 329 CURVE SMOOTH",
"505 329 OFFCURVE",
"555 282 OFFCURVE",
"555 223 CURVE SMOOTH",
"555 168 OFFCURVE",
"511 103 OFFCURVE",
"433 59 CURVE SMOOTH",
"345 9 OFFCURVE",
"224 -6 OFFCURVE",
"159 -6 CURVE SMOOTH",
"123 -6 OFFCURVE",
"93 -9 OFFCURVE",
"46 7 CURVE",
"42 9 OFFCURVE",
"33 12 OFFCURVE",
"28 12 CURVE SMOOTH",
"27 12 OFFCURVE",
"26 12 OFFCURVE",
"26 11 CURVE SMOOTH",
"26 9 OFFCURVE",
"29 5 OFFCURVE",
"38 -3 CURVE SMOOTH",
"59 -20 OFFCURVE",
"102 -58 OFFCURVE",
"222 -58 CURVE SMOOTH"
);
}
);
};
layerId = "F2190ACF-0345-4BD7-9FAD-2D95E96981D2";
paths = (
{
closed = 1;
nodes = (
"270 -51 OFFCURVE",
"364 -45 OFFCURVE",
"451 -3 CURVE SMOOTH",
"572 57 OFFCURVE",
"647 152 OFFCURVE",
"647 229 CURVE SMOOTH",
"647 299 OFFCURVE",
"584 355 OFFCURVE",
"436 355 CURVE SMOOTH",
"415 355 OFFCURVE",
"391 353 OFFCURVE",
"366 351 CURVE",
"427 365 OFFCURVE",
"490 385 OFFCURVE",
"544 413 CURVE SMOOTH",
"653 468 OFFCURVE",
"704 526 OFFCURVE",
"704 574 CURVE SMOOTH",
"704 633 OFFCURVE",
"626 675 OFFCURVE",
"486 675 CURVE SMOOTH",
"386 675 OFFCURVE",
"102 608 OFFCURVE",
"38 516 CURVE",
"36 512 OFFCURVE",
"34 507 OFFCURVE",
"34 500 CURVE SMOOTH",
"34 483 OFFCURVE",
"44 458 OFFCURVE",
"66 445 CURVE SMOOTH",
"70 442 OFFCURVE",
"75 441 OFFCURVE",
"75 444 CURVE SMOOTH",
"75 445 OFFCURVE",
"75 447 OFFCURVE",
"73 450 CURVE SMOOTH",
"69 457 OFFCURVE",
"74 465 OFFCURVE",
"84 473 CURVE SMOOTH",
"164 541 OFFCURVE",
"408 602 OFFCURVE",
"507 602 CURVE SMOOTH",
"605 602 OFFCURVE",
"647 576 OFFCURVE",
"647 541 CURVE SMOOTH",
"647 507 OFFCURVE",
"607 464 OFFCURVE",
"540 429 CURVE SMOOTH",
"432 373 OFFCURVE",
"310 350 OFFCURVE",
"191 330 CURVE",
"216 362 OFFCURVE",
"341 519 OFFCURVE",
"341 519 CURVE",
"342 526 OFFCURVE",
"336 536 OFFCURVE",
"328 536 CURVE SMOOTH",
"305 536 OFFCURVE",
"42 178 OFFCURVE",
"20 88 CURVE SMOOTH",
"19 85 OFFCURVE",
"19 82 OFFCURVE",
"19 80 CURVE SMOOTH",
"19 74 OFFCURVE",
"21 72 OFFCURVE",
"25 72 CURVE SMOOTH",
"31 72 OFFCURVE",
"39 78 OFFCURVE",
"42 86 CURVE",
"72 139 OFFCURVE",
"87 179 OFFCURVE",
"138 252 CURVE SMOOTH",
"168 296 OFFCURVE",
"276 328 OFFCURVE",
"357 335 CURVE SMOOTH",
"370 336 OFFCURVE",
"382 336 OFFCURVE",
"393 336 CURVE SMOOTH",
"505 336 OFFCURVE",
"555 289 OFFCURVE",
"555 230 CURVE SMOOTH",
"555 175 OFFCURVE",
"511 110 OFFCURVE",
"433 66 CURVE SMOOTH",
"345 16 OFFCURVE",
"224 1 OFFCURVE",
"159 1 CURVE SMOOTH",
"123 1 OFFCURVE",
"93 -2 OFFCURVE",
"46 14 CURVE",
"42 16 OFFCURVE",
"33 19 OFFCURVE",
"28 19 CURVE SMOOTH",
"27 19 OFFCURVE",
"26 19 OFFCURVE",
"26 18 CURVE SMOOTH",
"26 16 OFFCURVE",
"29 12 OFFCURVE",
"38 4 CURVE SMOOTH",
"59 -13 OFFCURVE",
"102 -51 OFFCURVE",
"222 -51 CURVE SMOOTH"
);
}
);
width = 643;
}
);
note = B;
unicode = 0042;
},
{
glyphname = C;
lastChange = "2022-01-10 21:39:40 +0000";
layers = (
{
background = {
paths = (
{
closed = 1;
nodes = (
"439 -46 OFFCURVE",
"646 26 OFFCURVE",
"750 138 CURVE",
"752 141 OFFCURVE",
"754 144 OFFCURVE",
"754 147 CURVE SMOOTH",
"754 149 OFFCURVE",
"753 153 OFFCURVE",
"749 153 CURVE SMOOTH",
"747 153 OFFCURVE",
"746 152 OFFCURVE",
"744 151 CURVE",
"638 65 OFFCURVE",
"545 32 OFFCURVE",
"411 8 CURVE SMOOTH",
"377 3 OFFCURVE",
"342 -1 OFFCURVE",
"308 -1 CURVE SMOOTH",
"198 -1 OFFCURVE",
"52 42 OFFCURVE",
"52 176 CURVE SMOOTH",
"52 266 OFFCURVE",
"122 352 OFFCURVE",
"184 410 CURVE SMOOTH",
"303 521 OFFCURVE",
"502 635 OFFCURVE",
"669 635 CURVE SMOOTH",
"703 635 OFFCURVE",
"766 627 OFFCURVE",
"766 580 CURVE SMOOTH",
"766 477 OFFCURVE",
"466 321 OFFCURVE",
"371 321 CURVE SMOOTH",
"359 321 OFFCURVE",
"351 325 OFFCURVE",
"346 325 CURVE SMOOTH",
"343 325 OFFCURVE",
"340 323 OFFCURVE",
"340 320 CURVE SMOOTH",
"340 300 OFFCURVE",
"405 297 OFFCURVE",
"418 297 CURVE SMOOTH",
"427 297 OFFCURVE",
"436 297 OFFCURVE",
"446 298 CURVE SMOOTH",
"561 308 OFFCURVE",
"868 429 OFFCURVE",
"868 567 CURVE SMOOTH",
"868 642 OFFCURVE",
"776 665 OFFCURVE",
"716 665 CURVE SMOOTH",
"531 665 OFFCURVE",
"304 547 OFFCURVE",
"169 425 CURVE SMOOTH",
"96 359 OFFCURVE",
"24 263 OFFCURVE",
"24 160 CURVE SMOOTH",
"24 14 OFFCURVE",
"162 -46 OFFCURVE",
"290 -46 CURVE SMOOTH"
);
}
);
};
layerId = "F2190ACF-0345-4BD7-9FAD-2D95E96981D2";
paths = (
{
closed = 1;
nodes = (
"439 -39 OFFCURVE",
"646 33 OFFCURVE",
"750 145 CURVE",
"752 148 OFFCURVE",
"754 151 OFFCURVE",
"754 154 CURVE SMOOTH",
"754 156 OFFCURVE",
"753 160 OFFCURVE",
"749 160 CURVE SMOOTH",
"747 160 OFFCURVE",
"746 159 OFFCURVE",
"744 158 CURVE",
"638 72 OFFCURVE",
"545 39 OFFCURVE",
"411 15 CURVE SMOOTH",
"377 10 OFFCURVE",
"342 6 OFFCURVE",
"308 6 CURVE SMOOTH",
"198 6 OFFCURVE",
"52 49 OFFCURVE",
"52 183 CURVE SMOOTH",
"52 273 OFFCURVE",
"122 359 OFFCURVE",
"184 417 CURVE SMOOTH",
"303 528 OFFCURVE",
"502 642 OFFCURVE",
"669 642 CURVE SMOOTH",
"703 642 OFFCURVE",
"766 634 OFFCURVE",
"766 587 CURVE SMOOTH",
"766 484 OFFCURVE",
"466 328 OFFCURVE",
"371 328 CURVE SMOOTH",
"359 328 OFFCURVE",
"351 332 OFFCURVE",
"346 332 CURVE SMOOTH",
"343 332 OFFCURVE",
"340 330 OFFCURVE",
"340 327 CURVE SMOOTH",
"340 307 OFFCURVE",
"405 304 OFFCURVE",
"418 304 CURVE SMOOTH",
"427 304 OFFCURVE",
"436 304 OFFCURVE",
"446 305 CURVE SMOOTH",
"561 315 OFFCURVE",
"868 436 OFFCURVE",
"868 574 CURVE SMOOTH",
"868 649 OFFCURVE",
"776 672 OFFCURVE",
"716 672 CURVE SMOOTH",
"531 672 OFFCURVE",
"304 554 OFFCURVE",
"169 432 CURVE SMOOTH",
"96 366 OFFCURVE",
"24 270 OFFCURVE",
"24 167 CURVE SMOOTH",
"24 21 OFFCURVE",
"162 -39 OFFCURVE",
"290 -39 CURVE SMOOTH"
);
}
);
width = 719;
}
);
note = C;
unicode = 0043;
},
{
glyphname = D;
lastChange = "2022-01-10 21:39:40 +0000";
layers = (
{
background = {
paths = (
{
closed = 1;
nodes = (
"382 -59 OFFCURVE",
"537 -25 OFFCURVE",
"647 30 CURVE SMOOTH",
"818 117 OFFCURVE",
"911 263 OFFCURVE",
"911 392 CURVE SMOOTH",
"911 531 OFFCURVE",
"802 650 OFFCURVE",
"565 650 CURVE SMOOTH",
"382 650 OFFCURVE",
"174 586 OFFCURVE",
"72 505 CURVE SMOOTH",
"29 471 OFFCURVE",
"15 430 OFFCURVE",
"15 394 CURVE SMOOTH",
"15 358 OFFCURVE",
"28 327 OFFCURVE",
"40 314 CURVE SMOOTH",
"46 308 OFFCURVE",
"51 312 OFFCURVE",
"51 317 CURVE SMOOTH",
"51 320 OFFCURVE",
"50 323 OFFCURVE",
"48 325 CURVE SMOOTH",
"40 336 OFFCURVE",
"36 347 OFFCURVE",
"36 359 CURVE SMOOTH",
"36 449 OFFCURVE",
"271 561 OFFCURVE",
"483 580 CURVE SMOOTH",
"508 582 OFFCURVE",
"533 583 OFFCURVE",
"557 583 CURVE SMOOTH",
"756 583 OFFCURVE",
"890 503 OFFCURVE",
"890 389 CURVE SMOOTH",
"890 320 OFFCURVE",
"842 240 OFFCURVE",
"731 156 CURVE SMOOTH",
"590 49 OFFCURVE",
"378 -3 OFFCURVE",
"225 -3 CURVE SMOOTH",
"146 -3 OFFCURVE",
"60 4 OFFCURVE",
"10 39 CURVE SMOOTH",
"3 44 OFFCURVE",
"-1 46 OFFCURVE",
"-4 46 CURVE SMOOTH",
"-5 46 OFFCURVE",
"-6 46 OFFCURVE",
"-6 44 CURVE SMOOTH",
"-6 42 OFFCURVE",
"-4 37 OFFCURVE",
"-1 31 CURVE SMOOTH",
"31 -32 OFFCURVE",
"131 -59 OFFCURVE",
"250 -59 CURVE SMOOTH"
);
},
{
closed = 1;
nodes = (
"152 76 OFFCURVE",
"155 78 OFFCURVE",
"157 83 CURVE SMOOTH",
"194 181 OFFCURVE",
"352 409 OFFCURVE",
"464 532 CURVE SMOOTH",
"470 538 OFFCURVE",
"472 542 OFFCURVE",
"472 545 CURVE SMOOTH",
"472 549 OFFCURVE",
"467 550 OFFCURVE",
"461 550 CURVE SMOOTH",
"452 550 LINE SMOOTH",
"428 550 OFFCURVE",
"142 156 OFFCURVE",
"142 90 CURVE SMOOTH",
"142 81 OFFCURVE",
"145 76 OFFCURVE",
"149 76 CURVE SMOOTH"
);
}
);
};
layerId = "F2190ACF-0345-4BD7-9FAD-2D95E96981D2";
paths = (
{
closed = 1;
nodes = (
"382 -52 OFFCURVE",
"537 -18 OFFCURVE",
"647 37 CURVE SMOOTH",
"818 124 OFFCURVE",
"911 270 OFFCURVE",
"911 399 CURVE SMOOTH",
"911 538 OFFCURVE",
"802 657 OFFCURVE",
"565 657 CURVE SMOOTH",
"382 657 OFFCURVE",
"174 593 OFFCURVE",
"72 512 CURVE SMOOTH",
"29 478 OFFCURVE",
"15 437 OFFCURVE",
"15 401 CURVE SMOOTH",
"15 365 OFFCURVE",
"28 334 OFFCURVE",
"40 321 CURVE SMOOTH",
"46 315 OFFCURVE",
"51 319 OFFCURVE",
"51 324 CURVE SMOOTH",
"51 327 OFFCURVE",
"50 330 OFFCURVE",
"48 332 CURVE SMOOTH",
"40 343 OFFCURVE",
"36 354 OFFCURVE",
"36 366 CURVE SMOOTH",
"36 456 OFFCURVE",
"271 568 OFFCURVE",
"483 587 CURVE SMOOTH",
"508 589 OFFCURVE",
"533 590 OFFCURVE",
"557 590 CURVE SMOOTH",
"756 590 OFFCURVE",
"890 510 OFFCURVE",
"890 396 CURVE SMOOTH",
"890 327 OFFCURVE",
"842 247 OFFCURVE",
"731 163 CURVE SMOOTH",
"590 56 OFFCURVE",
"378 4 OFFCURVE",
"225 4 CURVE SMOOTH",
"146 4 OFFCURVE",
"60 11 OFFCURVE",
"10 46 CURVE SMOOTH",
"3 51 OFFCURVE",
"-1 53 OFFCURVE",
"-4 53 CURVE SMOOTH",
"-5 53 OFFCURVE",
"-6 53 OFFCURVE",
"-6 51 CURVE SMOOTH",
"-6 49 OFFCURVE",
"-4 44 OFFCURVE",
"-1 38 CURVE SMOOTH",
"31 -25 OFFCURVE",
"131 -52 OFFCURVE",
"250 -52 CURVE SMOOTH"
);
},
{
closed = 1;
nodes = (
"152 83 OFFCURVE",
"155 85 OFFCURVE",
"157 90 CURVE SMOOTH",
"194 188 OFFCURVE",
"352 416 OFFCURVE",
"464 539 CURVE SMOOTH",
"470 545 OFFCURVE",
"472 549 OFFCURVE",
"472 552 CURVE SMOOTH",
"472 556 OFFCURVE",
"467 557 OFFCURVE",
"461 557 CURVE SMOOTH",
"452 557 LINE SMOOTH",
"428 557 OFFCURVE",
"142 163 OFFCURVE",
"142 97 CURVE SMOOTH",
"142 88 OFFCURVE",
"145 83 OFFCURVE",
"149 83 CURVE SMOOTH"
);
}
);
width = 843;
}
);
note = D;
unicode = 0044;
},
{
glyphname = Eth;
lastChange = "2022-01-10 21:39:40 +0000";
layers = (
{
background = {
paths = (
{
closed = 1;
nodes = (
"382 -59 OFFCURVE",
"537 -25 OFFCURVE",
"647 30 CURVE SMOOTH",
"818 117 OFFCURVE",
"911 263 OFFCURVE",
"911 392 CURVE SMOOTH",
"911 531 OFFCURVE",
"802 650 OFFCURVE",
"565 650 CURVE SMOOTH",
"382 650 OFFCURVE",
"174 586 OFFCURVE",
"72 505 CURVE SMOOTH",
"29 471 OFFCURVE",
"15 430 OFFCURVE",
"15 394 CURVE SMOOTH",
"15 358 OFFCURVE",
"28 327 OFFCURVE",
"40 314 CURVE SMOOTH",
"46 308 OFFCURVE",
"51 312 OFFCURVE",
"51 317 CURVE SMOOTH",
"51 320 OFFCURVE",
"50 323 OFFCURVE",
"48 325 CURVE SMOOTH",
"40 336 OFFCURVE",
"36 347 OFFCURVE",
"36 359 CURVE SMOOTH",
"36 449 OFFCURVE",
"271 561 OFFCURVE",
"483 580 CURVE SMOOTH",
"508 582 OFFCURVE",
"533 583 OFFCURVE",
"557 583 CURVE SMOOTH",
"756 583 OFFCURVE",
"890 503 OFFCURVE",
"890 389 CURVE SMOOTH",
"890 320 OFFCURVE",
"842 240 OFFCURVE",
"731 156 CURVE SMOOTH",
"590 49 OFFCURVE",
"378 -3 OFFCURVE",
"225 -3 CURVE SMOOTH",
"146 -3 OFFCURVE",
"60 4 OFFCURVE",
"10 39 CURVE SMOOTH",
"3 44 OFFCURVE",
"-1 46 OFFCURVE",
"-4 46 CURVE SMOOTH",
"-5 46 OFFCURVE",
"-6 46 OFFCURVE",
"-6 44 CURVE SMOOTH",
"-6 42 OFFCURVE",
"-4 37 OFFCURVE",
"-1 31 CURVE SMOOTH",
"31 -32 OFFCURVE",
"131 -59 OFFCURVE",
"250 -59 CURVE SMOOTH"
);
},
{
closed = 1;
nodes = (
"152 76 OFFCURVE",
"155 78 OFFCURVE",
"157 83 CURVE SMOOTH",
"174 129 OFFCURVE",
"204 190 OFFCURVE",
"268 279 CURVE",
"304 291 OFFCURVE",
"407 312 OFFCURVE",
"454 321 CURVE SMOOTH",
"461 323 OFFCURVE",
"465 327 OFFCURVE",
"465 332 CURVE SMOOTH",
"465 336 OFFCURVE",
"462 339 OFFCURVE",
"456 339 CURVE SMOOTH",
"455 339 LINE SMOOTH",
"439 339 OFFCURVE",
"347 328 OFFCURVE",
"298 321 CURVE",
"362 407 OFFCURVE",
"413 476 OFFCURVE",
"464 532 CURVE SMOOTH",
"470 538 OFFCURVE",
"472 542 OFFCURVE",
"472 545 CURVE SMOOTH",
"472 549 OFFCURVE",
"467 550 OFFCURVE",
"461 550 CURVE SMOOTH",
"452 550 LINE SMOOTH",
"439 550 OFFCURVE",
"364 445 OFFCURVE",
"270 316 CURVE",
"237 310 OFFCURVE",
"160 293 OFFCURVE",
"109 280 CURVE SMOOTH",
"99 277 OFFCURVE",
"89 248 OFFCURVE",
"89 233 CURVE SMOOTH",
"89 227 OFFCURVE",
"91 224 OFFCURVE",
"95 225 CURVE SMOOTH",
"134 237 OFFCURVE",
"204 257 OFFCURVE",
"236 268 CURVE",
"178 186 OFFCURVE",
"151 134 OFFCURVE",
"143 101 CURVE SMOOTH",
"142 97 OFFCURVE",
"142 93 OFFCURVE",
"142 90 CURVE SMOOTH",
"142 81 OFFCURVE",
"145 76 OFFCURVE",
"149 76 CURVE SMOOTH"
);
}
);
};
layerId = "F2190ACF-0345-4BD7-9FAD-2D95E96981D2";
paths = (
{
closed = 1;
nodes = (
"382 -52 OFFCURVE",
"537 -18 OFFCURVE",
"647 37 CURVE SMOOTH",
"818 124 OFFCURVE",
"911 270 OFFCURVE",
"911 399 CURVE SMOOTH",
"911 538 OFFCURVE",
"802 657 OFFCURVE",
"565 657 CURVE SMOOTH",
"382 657 OFFCURVE",
"174 593 OFFCURVE",
"72 512 CURVE SMOOTH",
"29 478 OFFCURVE",
"15 437 OFFCURVE",
"15 401 CURVE SMOOTH",
"15 365 OFFCURVE",
"28 334 OFFCURVE",
"40 321 CURVE SMOOTH",
"46 315 OFFCURVE",
"51 319 OFFCURVE",
"51 324 CURVE SMOOTH",
"51 327 OFFCURVE",
"50 330 OFFCURVE",
"48 332 CURVE SMOOTH",
"40 343 OFFCURVE",
"36 354 OFFCURVE",
"36 366 CURVE SMOOTH",
"36 456 OFFCURVE",
"271 568 OFFCURVE",
"483 587 CURVE SMOOTH",
"508 589 OFFCURVE",
"533 590 OFFCURVE",
"557 590 CURVE SMOOTH",
"756 590 OFFCURVE",
"890 510 OFFCURVE",
"890 396 CURVE SMOOTH",
"890 327 OFFCURVE",
"842 247 OFFCURVE",
"731 163 CURVE SMOOTH",
"590 56 OFFCURVE",
"378 4 OFFCURVE",
"225 4 CURVE SMOOTH",
"146 4 OFFCURVE",
"60 11 OFFCURVE",
"10 46 CURVE SMOOTH",
"3 51 OFFCURVE",
"-1 53 OFFCURVE",
"-4 53 CURVE SMOOTH",
"-5 53 OFFCURVE",
"-6 53 OFFCURVE",
"-6 51 CURVE SMOOTH",
"-6 49 OFFCURVE",
"-4 44 OFFCURVE",
"-1 38 CURVE SMOOTH",
"31 -25 OFFCURVE",
"131 -52 OFFCURVE",
"250 -52 CURVE SMOOTH"
);
},
{
closed = 1;
nodes = (
"152 83 OFFCURVE",
"155 85 OFFCURVE",
"157 90 CURVE SMOOTH",
"174 136 OFFCURVE",
"204 197 OFFCURVE",
"268 286 CURVE",
"304 298 OFFCURVE",
"407 319 OFFCURVE",
"454 328 CURVE SMOOTH",
"461 330 OFFCURVE",
"465 334 OFFCURVE",
"465 339 CURVE SMOOTH",
"465 343 OFFCURVE",
"462 346 OFFCURVE",
"456 346 CURVE SMOOTH",
"455 346 LINE SMOOTH",
"439 346 OFFCURVE",
"347 335 OFFCURVE",
"298 328 CURVE",
"362 414 OFFCURVE",
"413 483 OFFCURVE",
"464 539 CURVE SMOOTH",
"470 545 OFFCURVE",
"472 549 OFFCURVE",
"472 552 CURVE SMOOTH",
"472 556 OFFCURVE",
"467 557 OFFCURVE",
"461 557 CURVE SMOOTH",
"452 557 LINE SMOOTH",
"439 557 OFFCURVE",
"364 452 OFFCURVE",
"270 323 CURVE",
"237 317 OFFCURVE",
"160 300 OFFCURVE",
"109 287 CURVE SMOOTH",
"99 284 OFFCURVE",
"89 255 OFFCURVE",
"89 240 CURVE SMOOTH",
"89 234 OFFCURVE",
"91 231 OFFCURVE",
"95 232 CURVE SMOOTH",
"134 244 OFFCURVE",
"204 264 OFFCURVE",
"236 275 CURVE",
"178 193 OFFCURVE",
"151 141 OFFCURVE",
"143 108 CURVE SMOOTH",
"142 104 OFFCURVE",
"142 100 OFFCURVE",
"142 97 CURVE SMOOTH",
"142 88 OFFCURVE",
"145 83 OFFCURVE",
"149 83 CURVE SMOOTH"
);
}
);
width = 843;
}
);
note = Eth;
unicode = 00D0;
},
{
glyphname = E;
lastChange = "2022-01-10 21:39:40 +0000";
layers = (
{
background = {
paths = (
{
closed = 1;
nodes = (
"304 -53 OFFCURVE",
"343 -49 OFFCURVE",
"386 -40 CURVE SMOOTH",
"609 8 OFFCURVE",
"851 179 OFFCURVE",
"885 275 CURVE SMOOTH",
"887 281 OFFCURVE",
"887 284 OFFCURVE",
"887 287 CURVE SMOOTH",
"887 289 OFFCURVE",
"887 290 OFFCURVE",
"886 290 CURVE SMOOTH",
"884 290 OFFCURVE",
"880 285 OFFCURVE",
"874 277 CURVE SMOOTH",
"781 143 OFFCURVE",
"564 35 OFFCURVE",
"375 1 CURVE SMOOTH",
"335 -6 OFFCURVE",
"297 -10 OFFCURVE",
"263 -10 CURVE SMOOTH",
"131 -10 OFFCURVE",
"46 41 OFFCURVE",
"46 125 CURVE SMOOTH",
"46 181 OFFCURVE",
"85 253 OFFCURVE",
"173 335 CURVE SMOOTH",
"306 459 OFFCURVE",
"593 575 OFFCURVE",
"733 575 CURVE SMOOTH",
"782 575 OFFCURVE",
"813 560 OFFCURVE",
"813 527 CURVE SMOOTH",
"813 517 OFFCURVE",
"810 505 OFFCURVE",
"804 492 CURVE SMOOTH",
"801 486 OFFCURVE",
"803 481 OFFCURVE",
"806 481 CURVE SMOOTH",
"808 481 OFFCURVE",
"810 483 OFFCURVE",
"812 487 CURVE SMOOTH",
"819 502 OFFCURVE",
"832 532 OFFCURVE",
"832 562 CURVE SMOOTH",
"832 640 OFFCURVE",
"759 671 OFFCURVE",
"673 671 CURVE SMOOTH",
"639 671 OFFCURVE",
"603 666 OFFCURVE",
"569 658 CURVE SMOOTH",
"444 628 OFFCURVE",
"256 525 OFFCURVE",
"135 395 CURVE SMOOTH",
"53 307 OFFCURVE",
"16 220 OFFCURVE",
"16 146 CURVE SMOOTH",
"16 30 OFFCURVE",
"107 -53 OFFCURVE",
"267 -53 CURVE SMOOTH"
);
},
{
closed = 1;
nodes = (
"226 275 OFFCURVE",
"257 286 OFFCURVE",
"290 293 CURVE SMOOTH",
"342 304 OFFCURVE",
"393 310 OFFCURVE",
"437 310 CURVE SMOOTH",
"487 310 OFFCURVE",
"528 302 OFFCURVE",
"551 286 CURVE SMOOTH",
"557 282 OFFCURVE",
"561 281 OFFCURVE",
"565 281 CURVE SMOOTH",
"570 281 OFFCURVE",
"573 284 OFFCURVE",
"573 289 CURVE SMOOTH",
"573 293 OFFCURVE",
"571 298 OFFCURVE",
"567 303 CURVE SMOOTH",
"533 341 OFFCURVE",
"434 357 OFFCURVE",
"350 357 CURVE SMOOTH",
"318 357 OFFCURVE",
"288 354 OFFCURVE",
"264 350 CURVE SMOOTH",
"192 337 OFFCURVE",
"175 316 OFFCURVE",
"175 300 CURVE SMOOTH",
"175 289 OFFCURVE",
"182 281 OFFCURVE",
"187 279 CURVE SMOOTH",
"192 276 OFFCURVE",
"198 275 OFFCURVE",
"205 275 CURVE SMOOTH"
);
}
);
};
layerId = "F2190ACF-0345-4BD7-9FAD-2D95E96981D2";
paths = (
{
closed = 1;
nodes = (
"304 -46 OFFCURVE",
"343 -42 OFFCURVE",
"386 -33 CURVE SMOOTH",
"609 15 OFFCURVE",
"851 186 OFFCURVE",
"885 282 CURVE SMOOTH",
"887 288 OFFCURVE",
"887 291 OFFCURVE",
"887 294 CURVE SMOOTH",
"887 296 OFFCURVE",
"887 297 OFFCURVE",
"886 297 CURVE SMOOTH",
"884 297 OFFCURVE",
"880 292 OFFCURVE",
"874 284 CURVE SMOOTH",
"781 150 OFFCURVE",
"564 42 OFFCURVE",
"375 8 CURVE SMOOTH",
"335 1 OFFCURVE",
"297 -3 OFFCURVE",
"263 -3 CURVE SMOOTH",
"131 -3 OFFCURVE",
"46 48 OFFCURVE",
"46 132 CURVE SMOOTH",
"46 188 OFFCURVE",
"85 260 OFFCURVE",
"173 342 CURVE SMOOTH",
"306 466 OFFCURVE",
"593 582 OFFCURVE",
"733 582 CURVE SMOOTH",
"782 582 OFFCURVE",
"813 567 OFFCURVE",
"813 534 CURVE SMOOTH",
"813 524 OFFCURVE",
"810 512 OFFCURVE",
"804 499 CURVE SMOOTH",
"801 493 OFFCURVE",
"803 488 OFFCURVE",
"806 488 CURVE SMOOTH",
"808 488 OFFCURVE",
"810 490 OFFCURVE",
"812 494 CURVE SMOOTH",
"819 509 OFFCURVE",
"832 539 OFFCURVE",
"832 569 CURVE SMOOTH",
"832 647 OFFCURVE",
"759 678 OFFCURVE",
"673 678 CURVE SMOOTH",
"639 678 OFFCURVE",
"603 673 OFFCURVE",
"569 665 CURVE SMOOTH",
"444 635 OFFCURVE",
"256 532 OFFCURVE",
"135 402 CURVE SMOOTH",
"53 314 OFFCURVE",
"16 227 OFFCURVE",
"16 153 CURVE SMOOTH",
"16 37 OFFCURVE",
"107 -46 OFFCURVE",
"267 -46 CURVE SMOOTH"
);
},
{
closed = 1;
nodes = (
"226 282 OFFCURVE",
"257 293 OFFCURVE",
"290 300 CURVE SMOOTH",
"342 311 OFFCURVE",
"393 317 OFFCURVE",
"437 317 CURVE SMOOTH",
"487 317 OFFCURVE",
"528 309 OFFCURVE",
"551 293 CURVE SMOOTH",
"557 289 OFFCURVE",
"561 288 OFFCURVE",
"565 288 CURVE SMOOTH",
"570 288 OFFCURVE",
"573 291 OFFCURVE",
"573 296 CURVE SMOOTH",
"573 300 OFFCURVE",
"571 305 OFFCURVE",
"567 310 CURVE SMOOTH",
"533 348 OFFCURVE",
"434 364 OFFCURVE",
"350 364 CURVE SMOOTH",
"318 364 OFFCURVE",
"288 361 OFFCURVE",
"264 357 CURVE SMOOTH",
"192 344 OFFCURVE",
"175 323 OFFCURVE",
"175 307 CURVE SMOOTH",
"175 296 OFFCURVE",
"182 288 OFFCURVE",
"187 286 CURVE SMOOTH",
"192 283 OFFCURVE",
"198 282 OFFCURVE",
"205 282 CURVE SMOOTH"
);
}
);
width = 834;
}
);
note = E;
unicode = 0045;
},
{
glyphname = F;
lastChange = "2022-01-10 21:39:40 +0000";
layers = (
{
background = {
paths = (
{
closed = 1;
nodes = (
"412 -90 OFFCURVE",
"421 -88 OFFCURVE",
"431 -85 CURVE SMOOTH",
"436 -83 OFFCURVE",
"439 -80 OFFCURVE",
"439 -77 CURVE SMOOTH",
"439 -75 OFFCURVE",
"438 -74 OFFCURVE",
"435 -74 CURVE SMOOTH",
"431 -75 LINE SMOOTH",
"425 -77 OFFCURVE",
"419 -78 OFFCURVE",
"415 -78 CURVE SMOOTH",
"395 -78 OFFCURVE",
"390 -61 OFFCURVE",
"390 -42 CURVE SMOOTH",
"390 7 OFFCURVE",
"431 56 OFFCURVE",
"458 93 CURVE SMOOTH",
"503 154 OFFCURVE",
"574 237 OFFCURVE",
"631 305 CURVE",
"643 301 OFFCURVE",
"653 297 OFFCURVE",
"662 291 CURVE SMOOTH",
"668 287 OFFCURVE",
"672 286 OFFCURVE",
"676 286 CURVE SMOOTH",
"681 286 OFFCURVE",
"684 289 OFFCURVE",
"684 293 CURVE SMOOTH",
"684 298 OFFCURVE",
"681 303 OFFCURVE",
"677 308 CURVE SMOOTH",
"670 315 OFFCURVE",
"661 322 OFFCURVE",
"650 328 CURVE",
"664 344 OFFCURVE",
"676 359 OFFCURVE",
"687 372 CURVE SMOOTH",
"728 422 OFFCURVE",
"769 491 OFFCURVE",
"769 549 CURVE SMOOTH",
"769 613 OFFCURVE",
"721 663 OFFCURVE",
"574 663 CURVE SMOOTH",
"425 663 OFFCURVE",
"213 615 OFFCURVE",
"76 537 CURVE SMOOTH",
"23 507 OFFCURVE",
"-2 462 OFFCURVE",
"-2 425 CURVE SMOOTH",
"-2 401 OFFCURVE",
"8 380 OFFCURVE",
"27 367 CURVE SMOOTH",
"30 365 OFFCURVE",
"35 364 OFFCURVE",
"38 364 CURVE SMOOTH",
"41 364 OFFCURVE",
"43 365 OFFCURVE",
"43 366 CURVE SMOOTH",
"43 367 OFFCURVE",
"42 368 OFFCURVE",
"41 369 CURVE SMOOTH",
"26 379 OFFCURVE",
"19 390 OFFCURVE",
"19 400 CURVE SMOOTH",
"19 475 OFFCURVE",
"356 552 OFFCURVE",
"393 560 CURVE SMOOTH",
"451 573 OFFCURVE",
"510 581 OFFCURVE",
"559 581 CURVE SMOOTH",
"636 581 OFFCURVE",
"692 560 OFFCURVE",
"692 500 CURVE SMOOTH",
"692 463 OFFCURVE",
"671 411 OFFCURVE",
"620 340 CURVE",
"574 355 OFFCURVE",
"513 361 OFFCURVE",
"458 361 CURVE SMOOTH",
"426 361 OFFCURVE",
"397 359 OFFCURVE",
"374 355 CURVE SMOOTH",
"303 341 OFFCURVE",
"285 320 OFFCURVE",
"285 305 CURVE SMOOTH",
"285 294 OFFCURVE",
"293 286 OFFCURVE",
"297 284 CURVE SMOOTH",
"302 281 OFFCURVE",
"308 280 OFFCURVE",
"315 280 CURVE SMOOTH",
"337 280 OFFCURVE",
"367 291 OFFCURVE",
"400 298 CURVE SMOOTH",
"452 309 OFFCURVE",
"503 315 OFFCURVE",
"548 315 CURVE SMOOTH",
"566 315 OFFCURVE",
"583 314 OFFCURVE",
"599 312 CURVE",
"528 218 OFFCURVE",
"427 102 OFFCURVE",
"375 7 CURVE SMOOTH",
"368 -6 OFFCURVE",
"363 -24 OFFCURVE",
"363 -40 CURVE SMOOTH",
"363 -66 OFFCURVE",
"374 -90 OFFCURVE",
"405 -90 CURVE SMOOTH"
);
}
);
};
layerId = "F2190ACF-0345-4BD7-9FAD-2D95E96981D2";
paths = (
{
closed = 1;
nodes = (
"412 -83 OFFCURVE",
"421 -81 OFFCURVE",
"431 -78 CURVE SMOOTH",
"436 -76 OFFCURVE",
"439 -73 OFFCURVE",
"439 -70 CURVE SMOOTH",
"439 -68 OFFCURVE",
"438 -67 OFFCURVE",
"435 -67 CURVE SMOOTH",
"431 -68 LINE SMOOTH",
"425 -70 OFFCURVE",
"419 -71 OFFCURVE",
"415 -71 CURVE SMOOTH",
"395 -71 OFFCURVE",
"390 -54 OFFCURVE",
"390 -35 CURVE SMOOTH",
"390 14 OFFCURVE",
"431 63 OFFCURVE",
"458 100 CURVE SMOOTH",
"503 161 OFFCURVE",
"574 244 OFFCURVE",
"631 312 CURVE",
"643 308 OFFCURVE",
"653 304 OFFCURVE",
"662 298 CURVE SMOOTH",
"668 294 OFFCURVE",
"672 293 OFFCURVE",
"676 293 CURVE SMOOTH",
"681 293 OFFCURVE",
"684 296 OFFCURVE",
"684 300 CURVE SMOOTH",
"684 305 OFFCURVE",
"681 310 OFFCURVE",
"677 315 CURVE SMOOTH",
"670 322 OFFCURVE",
"661 329 OFFCURVE",
"650 335 CURVE",
"664 351 OFFCURVE",
"676 366 OFFCURVE",
"687 379 CURVE SMOOTH",
"728 429 OFFCURVE",
"769 498 OFFCURVE",
"769 556 CURVE SMOOTH",
"769 620 OFFCURVE",
"721 670 OFFCURVE",
"574 670 CURVE SMOOTH",
"425 670 OFFCURVE",
"213 622 OFFCURVE",
"76 544 CURVE SMOOTH",
"23 514 OFFCURVE",
"-2 469 OFFCURVE",
"-2 432 CURVE SMOOTH",
"-2 408 OFFCURVE",
"8 387 OFFCURVE",
"27 374 CURVE SMOOTH",
"30 372 OFFCURVE",
"35 371 OFFCURVE",
"38 371 CURVE SMOOTH",
"41 371 OFFCURVE",
"43 372 OFFCURVE",
"43 373 CURVE SMOOTH",
"43 374 OFFCURVE",
"42 375 OFFCURVE",
"41 376 CURVE SMOOTH",
"26 386 OFFCURVE",
"19 397 OFFCURVE",
"19 407 CURVE SMOOTH",
"19 482 OFFCURVE",
"356 559 OFFCURVE",
"393 567 CURVE SMOOTH",
"451 580 OFFCURVE",
"510 588 OFFCURVE",
"559 588 CURVE SMOOTH",
"636 588 OFFCURVE",
"692 567 OFFCURVE",
"692 507 CURVE SMOOTH",
"692 470 OFFCURVE",
"671 418 OFFCURVE",
"620 347 CURVE",
"574 362 OFFCURVE",
"513 368 OFFCURVE",
"458 368 CURVE SMOOTH",
"426 368 OFFCURVE",
"397 366 OFFCURVE",
"374 362 CURVE SMOOTH",
"303 348 OFFCURVE",
"285 327 OFFCURVE",
"285 312 CURVE SMOOTH",
"285 301 OFFCURVE",
"293 293 OFFCURVE",
"297 291 CURVE SMOOTH",
"302 288 OFFCURVE",
"308 287 OFFCURVE",
"315 287 CURVE SMOOTH",
"337 287 OFFCURVE",
"367 298 OFFCURVE",
"400 305 CURVE SMOOTH",
"452 316 OFFCURVE",
"503 322 OFFCURVE",
"548 322 CURVE SMOOTH",
"566 322 OFFCURVE",
"583 321 OFFCURVE",
"599 319 CURVE",
"528 225 OFFCURVE",
"427 109 OFFCURVE",
"375 14 CURVE SMOOTH",
"368 1 OFFCURVE",
"363 -17 OFFCURVE",
"363 -33 CURVE SMOOTH",
"363 -59 OFFCURVE",
"374 -83 OFFCURVE",
"405 -83 CURVE SMOOTH"
);
}
);
width = 665;
}
);
note = F;
unicode = 0046;
},
{
glyphname = G;
lastChange = "2022-01-10 21:39:40 +0000";
layers = (
{
background = {
paths = (
{
closed = 1;
nodes = (
"522 -248 OFFCURVE",
"625 -187 OFFCURVE",
"698 -110 CURVE SMOOTH",
"752 -53 OFFCURVE",
"909 165 OFFCURVE",
"909 262 CURVE SMOOTH",
"909 276 OFFCURVE",
"906 288 OFFCURVE",
"899 296 CURVE SMOOTH",
"888 308 OFFCURVE",
"874 314 OFFCURVE",
"857 314 CURVE SMOOTH",
"837 314 OFFCURVE",
"815 306 OFFCURVE",
"793 290 CURVE SMOOTH",
"786 284 OFFCURVE",
"783 278 OFFCURVE",
"783 273 CURVE SMOOTH",
"783 270 OFFCURVE",
"784 268 OFFCURVE",
"788 268 CURVE SMOOTH",
"792 268 OFFCURVE",
"797 270 OFFCURVE",
"803 275 CURVE SMOOTH",
"815 285 OFFCURVE",
"828 291 OFFCURVE",
"838 291 CURVE SMOOTH",
"845 291 OFFCURVE",
"850 287 OFFCURVE",
"850 278 CURVE SMOOTH",
"850 265 OFFCURVE",
"845 251 OFFCURVE",
"840 236 CURVE",
"737 117 OFFCURVE",
"540 23 OFFCURVE",
"366 -8 CURVE SMOOTH",
"326 -15 OFFCURVE",
"289 -18 OFFCURVE",
"255 -18 CURVE SMOOTH",
"122 -18 OFFCURVE",
"37 32 OFFCURVE",
"37 116 CURVE SMOOTH",
"37 172 OFFCURVE",
"76 244 OFFCURVE",
"164 326 CURVE SMOOTH",
"297 450 OFFCURVE",
"584 566 OFFCURVE",
"724 566 CURVE SMOOTH",
"773 566 OFFCURVE",
"804 551 OFFCURVE",
"804 518 CURVE SMOOTH",
"804 509 OFFCURVE",
"801 497 OFFCURVE",
"795 484 CURVE SMOOTH",
"792 478 OFFCURVE",
"794 472 OFFCURVE",
"797 472 CURVE SMOOTH",
"799 472 OFFCURVE",
"801 474 OFFCURVE",
"803 478 CURVE SMOOTH",
"810 493 OFFCURVE",
"823 523 OFFCURVE",
"823 553 CURVE SMOOTH",
"823 631 OFFCURVE",
"750 662 OFFCURVE",
"665 662 CURVE SMOOTH",
"631 662 OFFCURVE",
"595 657 OFFCURVE",
"560 649 CURVE SMOOTH",
"435 619 OFFCURVE",
"247 517 OFFCURVE",
"126 387 CURVE SMOOTH",
"44 299 OFFCURVE",
"7 212 OFFCURVE",
"7 137 CURVE SMOOTH",
"7 22 OFFCURVE",
"98 -62 OFFCURVE",
"258 -62 CURVE SMOOTH",
"294 -62 OFFCURVE",
"334 -57 OFFCURVE",
"377 -48 CURVE SMOOTH",
"548 -12 OFFCURVE",
"730 97 OFFCURVE",
"821 190 CURVE",
"786 115 OFFCURVE",
"723 21 OFFCURVE",
"648 -62 CURVE SMOOTH",
"585 -130 OFFCURVE",
"494 -231 OFFCURVE",
"387 -231 CURVE SMOOTH",
"311 -231 OFFCURVE",
"245 -178 OFFCURVE",
"231 -102 CURVE SMOOTH",
"230 -98 OFFCURVE",
"227 -95 OFFCURVE",
"224 -95 CURVE SMOOTH",
"222 -95 OFFCURVE",
"221 -97 OFFCURVE",
"221 -100 CURVE SMOOTH",
"221 -103 LINE",
"237 -208 OFFCURVE",
"318 -248 OFFCURVE",
"416 -248 CURVE SMOOTH"
);
}
);
};
layerId = "F2190ACF-0345-4BD7-9FAD-2D95E96981D2";
paths = (
{
closed = 1;
nodes = (
"522 -241 OFFCURVE",
"625 -180 OFFCURVE",
"698 -103 CURVE SMOOTH",
"752 -46 OFFCURVE",
"909 172 OFFCURVE",
"909 269 CURVE SMOOTH",
"909 283 OFFCURVE",
"906 295 OFFCURVE",
"899 303 CURVE SMOOTH",
"888 315 OFFCURVE",
"874 321 OFFCURVE",
"857 321 CURVE SMOOTH",
"837 321 OFFCURVE",
"815 313 OFFCURVE",
"793 297 CURVE SMOOTH",
"786 291 OFFCURVE",
"783 285 OFFCURVE",
"783 280 CURVE SMOOTH",
"783 277 OFFCURVE",
"784 275 OFFCURVE",
"788 275 CURVE SMOOTH",
"792 275 OFFCURVE",
"797 277 OFFCURVE",
"803 282 CURVE SMOOTH",
"815 292 OFFCURVE",
"828 298 OFFCURVE",
"838 298 CURVE SMOOTH",
"845 298 OFFCURVE",
"850 294 OFFCURVE",
"850 285 CURVE SMOOTH",
"850 272 OFFCURVE",
"845 258 OFFCURVE",
"840 243 CURVE",
"737 124 OFFCURVE",
"540 30 OFFCURVE",
"366 -1 CURVE SMOOTH",
"326 -8 OFFCURVE",
"289 -11 OFFCURVE",
"255 -11 CURVE SMOOTH",
"122 -11 OFFCURVE",
"37 39 OFFCURVE",
"37 123 CURVE SMOOTH",
"37 179 OFFCURVE",
"76 251 OFFCURVE",
"164 333 CURVE SMOOTH",
"297 457 OFFCURVE",
"584 573 OFFCURVE",
"724 573 CURVE SMOOTH",
"773 573 OFFCURVE",
"804 558 OFFCURVE",
"804 525 CURVE SMOOTH",
"804 516 OFFCURVE",
"801 504 OFFCURVE",
"795 491 CURVE SMOOTH",
"792 485 OFFCURVE",
"794 479 OFFCURVE",
"797 479 CURVE SMOOTH",
"799 479 OFFCURVE",
"801 481 OFFCURVE",
"803 485 CURVE SMOOTH",
"810 500 OFFCURVE",
"823 530 OFFCURVE",
"823 560 CURVE SMOOTH",
"823 638 OFFCURVE",
"750 669 OFFCURVE",
"665 669 CURVE SMOOTH",
"631 669 OFFCURVE",
"595 664 OFFCURVE",
"560 656 CURVE SMOOTH",
"435 626 OFFCURVE",
"247 524 OFFCURVE",
"126 394 CURVE SMOOTH",
"44 306 OFFCURVE",
"7 219 OFFCURVE",
"7 144 CURVE SMOOTH",
"7 29 OFFCURVE",
"98 -55 OFFCURVE",
"258 -55 CURVE SMOOTH",
"294 -55 OFFCURVE",
"334 -50 OFFCURVE",
"377 -41 CURVE SMOOTH",
"548 -5 OFFCURVE",
"730 104 OFFCURVE",
"821 197 CURVE",
"786 122 OFFCURVE",
"723 28 OFFCURVE",
"648 -55 CURVE SMOOTH",
"585 -123 OFFCURVE",
"494 -224 OFFCURVE",
"387 -224 CURVE SMOOTH",
"311 -224 OFFCURVE",
"245 -171 OFFCURVE",
"231 -95 CURVE SMOOTH",
"230 -91 OFFCURVE",
"227 -88 OFFCURVE",
"224 -88 CURVE SMOOTH",
"222 -88 OFFCURVE",
"221 -90 OFFCURVE",
"221 -93 CURVE SMOOTH",
"221 -96 LINE",
"237 -201 OFFCURVE",
"318 -241 OFFCURVE",
"416 -241 CURVE SMOOTH"
);
}
);
width = 912;
}
);
note = G;
unicode = 0047;
},
{
glyphname = H;
lastChange = "2022-01-10 21:39:40 +0000";
layers = (
{
background = {
paths = (
{
closed = 1;
nodes = (
"218 -151 OFFCURVE",
"222 -147 OFFCURVE",
"225 -140 CURVE SMOOTH",
"258 -61 OFFCURVE",
"336 75 OFFCURVE",
"422 211 CURVE",
"459 215 OFFCURVE",
"497 217 OFFCURVE",
"533 217 CURVE SMOOTH",
"555 217 OFFCURVE",
"577 216 OFFCURVE",
"598 214 CURVE SMOOTH",
"621 212 OFFCURVE",
"699 203 OFFCURVE",
"708 180 CURVE SMOOTH",
"710 174 OFFCURVE",
"715 172 OFFCURVE",
"714 182 CURVE SMOOTH",
"705 240 OFFCURVE",
"612 265 OFFCURVE",
"564 275 CURVE SMOOTH",
"533 281 OFFCURVE",
"502 285 OFFCURVE",
"471 287 CURVE",
"531 379 OFFCURVE",
"593 468 OFFCURVE",
"644 536 CURVE SMOOTH",
"652 546 OFFCURVE",
"655 553 OFFCURVE",
"655 556 CURVE SMOOTH",
"655 561 OFFCURVE",
"650 562 OFFCURVE",
"646 562 CURVE SMOOTH",
"637 562 LINE SMOOTH",
"626 562 OFFCURVE",
"538 434 OFFCURVE",
"444 288 CURVE",
"386 289 OFFCURVE",
"328 283 OFFCURVE",
"272 273 CURVE SMOOTH",
"100 243 OFFCURVE",
"26 169 OFFCURVE",
"26 104 CURVE SMOOTH",
"26 75 OFFCURVE",
"41 47 OFFCURVE",
"69 26 CURVE SMOOTH",
"71 24 OFFCURVE",
"75 23 OFFCURVE",
"78 23 CURVE SMOOTH",
"80 23 OFFCURVE",
"82 23 OFFCURVE",
"82 24 CURVE SMOOTH",
"82 25 OFFCURVE",
"81 26 OFFCURVE",
"80 27 CURVE SMOOTH",
"67 37 OFFCURVE",
"61 48 OFFCURVE",
"61 62 CURVE SMOOTH",
"61 106 OFFCURVE",
"137 166 OFFCURVE",
"309 196 CURVE SMOOTH",
"336 201 OFFCURVE",
"365 205 OFFCURVE",
"394 209 CURVE",
"313 77 OFFCURVE",
"237 -54 OFFCURVE",
"217 -112 CURVE SMOOTH",
"213 -124 OFFCURVE",
"211 -134 OFFCURVE",
"211 -140 CURVE SMOOTH",
"211 -147 OFFCURVE",
"213 -151 OFFCURVE",
"216 -151 CURVE SMOOTH"
);
},
{
closed = 1;
nodes = (
"640 -30 OFFCURVE",
"644 -26 OFFCURVE",
"647 -19 CURVE SMOOTH",
"710 129 OFFCURVE",
"904 444 OFFCURVE",
"1045 629 CURVE SMOOTH",
"1053 639 OFFCURVE",
"1056 646 OFFCURVE",
"1056 649 CURVE SMOOTH",
"1056 654 OFFCURVE",
"1051 655 OFFCURVE",
"1047 655 CURVE SMOOTH",
"1038 655 LINE SMOOTH",
"1016 655 OFFCURVE",
"686 144 OFFCURVE",
"639 9 CURVE SMOOTH",
"635 -3 OFFCURVE",
"633 -13 OFFCURVE",
"633 -19 CURVE SMOOTH",
"633 -26 OFFCURVE",
"635 -30 OFFCURVE",
"638 -30 CURVE SMOOTH"
);
}
);
};
layerId = "F2190ACF-0345-4BD7-9FAD-2D95E96981D2";
paths = (
{
closed = 1;
nodes = (
"218 -144 OFFCURVE",
"222 -140 OFFCURVE",
"225 -133 CURVE SMOOTH",
"258 -54 OFFCURVE",
"336 82 OFFCURVE",
"422 218 CURVE",
"459 222 OFFCURVE",
"497 224 OFFCURVE",
"533 224 CURVE SMOOTH",
"555 224 OFFCURVE",
"577 223 OFFCURVE",
"598 221 CURVE SMOOTH",
"621 219 OFFCURVE",
"699 210 OFFCURVE",
"708 187 CURVE SMOOTH",
"710 181 OFFCURVE",
"715 179 OFFCURVE",
"714 189 CURVE SMOOTH",
"705 247 OFFCURVE",
"612 272 OFFCURVE",
"564 282 CURVE SMOOTH",
"533 288 OFFCURVE",
"502 292 OFFCURVE",
"471 294 CURVE",
"531 386 OFFCURVE",
"593 475 OFFCURVE",
"644 543 CURVE SMOOTH",
"652 553 OFFCURVE",
"655 560 OFFCURVE",
"655 563 CURVE SMOOTH",
"655 568 OFFCURVE",
"650 569 OFFCURVE",
"646 569 CURVE SMOOTH",
"637 569 LINE SMOOTH",
"626 569 OFFCURVE",
"538 441 OFFCURVE",
"444 295 CURVE",
"386 296 OFFCURVE",
"328 290 OFFCURVE",
"272 280 CURVE SMOOTH",
"100 250 OFFCURVE",
"26 176 OFFCURVE",
"26 111 CURVE SMOOTH",
"26 82 OFFCURVE",
"41 54 OFFCURVE",
"69 33 CURVE SMOOTH",
"71 31 OFFCURVE",
"75 30 OFFCURVE",
"78 30 CURVE SMOOTH",
"80 30 OFFCURVE",
"82 30 OFFCURVE",
"82 31 CURVE SMOOTH",
"82 32 OFFCURVE",
"81 33 OFFCURVE",
"80 34 CURVE SMOOTH",
"67 44 OFFCURVE",
"61 55 OFFCURVE",
"61 69 CURVE SMOOTH",
"61 113 OFFCURVE",
"137 173 OFFCURVE",
"309 203 CURVE SMOOTH",
"336 208 OFFCURVE",
"365 212 OFFCURVE",
"394 216 CURVE",
"313 84 OFFCURVE",
"237 -47 OFFCURVE",
"217 -105 CURVE SMOOTH",
"213 -117 OFFCURVE",
"211 -127 OFFCURVE",
"211 -133 CURVE SMOOTH",
"211 -140 OFFCURVE",
"213 -144 OFFCURVE",
"216 -144 CURVE SMOOTH"
);
},
{
closed = 1;
nodes = (
"640 -23 OFFCURVE",
"644 -19 OFFCURVE",
"647 -12 CURVE SMOOTH",
"710 136 OFFCURVE",
"904 451 OFFCURVE",
"1045 636 CURVE SMOOTH",
"1053 646 OFFCURVE",
"1056 653 OFFCURVE",
"1056 656 CURVE SMOOTH",
"1056 661 OFFCURVE",
"1051 662 OFFCURVE",
"1047 662 CURVE SMOOTH",
"1038 662 LINE SMOOTH",
"1016 662 OFFCURVE",
"686 151 OFFCURVE",
"639 16 CURVE SMOOTH",
"635 4 OFFCURVE",
"633 -6 OFFCURVE",
"633 -12 CURVE SMOOTH",
"633 -19 OFFCURVE",
"635 -23 OFFCURVE",
"638 -23 CURVE SMOOTH"
);
}
);
width = 812;
}
);
note = H;
unicode = 0048;
},
{
glyphname = I;
lastChange = "2022-01-10 21:39:40 +0000";
layers = (
{
background = {
paths = (
{
closed = 1;
nodes = (
"218 -151 OFFCURVE",
"222 -147 OFFCURVE",
"225 -140 CURVE SMOOTH",
"240 -103 OFFCURVE",
"265 -55 OFFCURVE",
"295 -1 CURVE",
"307 0 OFFCURVE",
"319 0 OFFCURVE",
"331 0 CURVE SMOOTH",
"452 0 OFFCURVE",
"566 -31 OFFCURVE",
"554 -83 CURVE SMOOTH",
"553 -89 OFFCURVE",
"555 -93 OFFCURVE",
"557 -93 CURVE SMOOTH",
"561 -93 OFFCURVE",
"565 -85 OFFCURVE",
"565 -66 CURVE SMOOTH",
"565 27 OFFCURVE",
"454 68 OFFCURVE",
"341 79 CURVE",
"433 234 OFFCURVE",
"554 417 OFFCURVE",
"644 536 CURVE SMOOTH",
"652 546 OFFCURVE",
"655 553 OFFCURVE",
"655 556 CURVE SMOOTH",
"655 561 OFFCURVE",
"650 562 OFFCURVE",
"646 562 CURVE SMOOTH",
"637 562 LINE SMOOTH",
"621 562 OFFCURVE",
"438 287 OFFCURVE",
"317 81 CURVE",
"302 82 OFFCURVE",
"287 82 OFFCURVE",
"272 82 CURVE SMOOTH",
"223 82 OFFCURVE",
"179 78 OFFCURVE",
"150 70 CURVE SMOOTH",
"34 42 OFFCURVE",
"8 -10 OFFCURVE",
"8 -40 CURVE SMOOTH",
"8 -51 OFFCURVE",
"11 -59 OFFCURVE",
"15 -62 CURVE SMOOTH",
"20 -66 OFFCURVE",
"26 -67 OFFCURVE",
"34 -67 CURVE SMOOTH",
"69 -67 OFFCURVE",
"130 -32 OFFCURVE",
"178 -19 CURVE SMOOTH",
"206 -11 OFFCURVE",
"237 -5 OFFCURVE",
"270 -2 CURVE",
"245 -49 OFFCURVE",
"226 -87 OFFCURVE",
"217 -112 CURVE SMOOTH",
"213 -124 OFFCURVE",
"211 -134 OFFCURVE",
"211 -140 CURVE SMOOTH",
"211 -147 OFFCURVE",
"213 -151 OFFCURVE",
"216 -151 CURVE SMOOTH"
);
},
{
closed = 1;
nodes = (
"136 367 OFFCURVE",
"138 368 OFFCURVE",
"138 369 CURVE SMOOTH",
"138 370 OFFCURVE",
"138 371 OFFCURVE",
"136 372 CURVE SMOOTH",
"114 387 OFFCURVE",
"104 402 OFFCURVE",
"104 417 CURVE SMOOTH",
"104 500 OFFCURVE",
"408 575 OFFCURVE",
"599 575 CURVE SMOOTH",
"687 575 OFFCURVE",
"752 559 OFFCURVE",
"752 520 CURVE SMOOTH",
"752 516 OFFCURVE",
"751 512 OFFCURVE",
"751 508 CURVE SMOOTH",
"751 505 OFFCURVE",
"752 503 OFFCURVE",
"754 503 CURVE SMOOTH",
"756 503 OFFCURVE",
"759 506 OFFCURVE",
"759 512 CURVE SMOOTH",
"760 517 OFFCURVE",
"760 522 OFFCURVE",
"760 527 CURVE SMOOTH",
"760 620 OFFCURVE",
"622 643 OFFCURVE",
"552 643 CURVE SMOOTH",
"420 643 OFFCURVE",
"249 606 OFFCURVE",
"143 545 CURVE SMOOTH",
"99 520 OFFCURVE",
"82 484 OFFCURVE",
"82 451 CURVE SMOOTH",
"82 418 OFFCURVE",
"99 387 OFFCURVE",
"123 371 CURVE",
"126 368 OFFCURVE",
"130 367 OFFCURVE",
"133 367 CURVE SMOOTH"
);
}
);
};
layerId = "F2190ACF-0345-4BD7-9FAD-2D95E96981D2";
paths = (
{
closed = 1;
nodes = (
"218 -144 OFFCURVE",
"222 -140 OFFCURVE",
"225 -133 CURVE SMOOTH",
"240 -96 OFFCURVE",
"265 -48 OFFCURVE",
"295 6 CURVE",
"307 7 OFFCURVE",
"319 7 OFFCURVE",
"331 7 CURVE SMOOTH",
"452 7 OFFCURVE",
"566 -24 OFFCURVE",
"554 -76 CURVE SMOOTH",
"553 -82 OFFCURVE",
"555 -86 OFFCURVE",
"557 -86 CURVE SMOOTH",
"561 -86 OFFCURVE",
"565 -78 OFFCURVE",
"565 -59 CURVE SMOOTH",
"565 34 OFFCURVE",
"454 75 OFFCURVE",
"341 86 CURVE",
"433 241 OFFCURVE",
"554 424 OFFCURVE",
"644 543 CURVE SMOOTH",
"652 553 OFFCURVE",
"655 560 OFFCURVE",
"655 563 CURVE SMOOTH",
"655 568 OFFCURVE",
"650 569 OFFCURVE",
"646 569 CURVE SMOOTH",
"637 569 LINE SMOOTH",
"621 569 OFFCURVE",
"438 294 OFFCURVE",
"317 88 CURVE",
"302 89 OFFCURVE",
"287 89 OFFCURVE",
"272 89 CURVE SMOOTH",
"223 89 OFFCURVE",
"179 85 OFFCURVE",
"150 77 CURVE SMOOTH",
"34 49 OFFCURVE",
"8 -3 OFFCURVE",
"8 -33 CURVE SMOOTH",
"8 -44 OFFCURVE",
"11 -52 OFFCURVE",
"15 -55 CURVE SMOOTH",
"20 -59 OFFCURVE",
"26 -60 OFFCURVE",
"34 -60 CURVE SMOOTH",
"69 -60 OFFCURVE",
"130 -25 OFFCURVE",
"178 -12 CURVE SMOOTH",
"206 -4 OFFCURVE",
"237 2 OFFCURVE",
"270 5 CURVE",
"245 -42 OFFCURVE",
"226 -80 OFFCURVE",
"217 -105 CURVE SMOOTH",
"213 -117 OFFCURVE",
"211 -127 OFFCURVE",
"211 -133 CURVE SMOOTH",
"211 -140 OFFCURVE",
"213 -144 OFFCURVE",
"216 -144 CURVE SMOOTH"
);
},
{
closed = 1;
nodes = (
"136 374 OFFCURVE",
"138 375 OFFCURVE",
"138 376 CURVE SMOOTH",
"138 377 OFFCURVE",
"138 378 OFFCURVE",
"136 379 CURVE SMOOTH",
"114 394 OFFCURVE",
"104 409 OFFCURVE",
"104 424 CURVE SMOOTH",
"104 507 OFFCURVE",
"408 582 OFFCURVE",
"599 582 CURVE SMOOTH",
"687 582 OFFCURVE",
"752 566 OFFCURVE",
"752 527 CURVE SMOOTH",
"752 523 OFFCURVE",
"751 519 OFFCURVE",
"751 515 CURVE SMOOTH",
"751 512 OFFCURVE",
"752 510 OFFCURVE",
"754 510 CURVE SMOOTH",
"756 510 OFFCURVE",
"759 513 OFFCURVE",
"759 519 CURVE SMOOTH",
"760 524 OFFCURVE",
"760 529 OFFCURVE",
"760 534 CURVE SMOOTH",
"760 627 OFFCURVE",
"622 650 OFFCURVE",
"552 650 CURVE SMOOTH",
"420 650 OFFCURVE",
"249 613 OFFCURVE",
"143 552 CURVE SMOOTH",
"99 527 OFFCURVE",
"82 491 OFFCURVE",
"82 458 CURVE SMOOTH",
"82 425 OFFCURVE",
"99 394 OFFCURVE",
"123 378 CURVE",
"126 375 OFFCURVE",
"130 374 OFFCURVE",
"133 374 CURVE SMOOTH"
);
}
);
width = 595;
}
);
note = I;
unicode = 0049;
},
{
glyphname = J;
lastChange = "2022-01-10 21:39:40 +0000";
layers = (
{
background = {
paths = (
{
closed = 1;
nodes = (
"-11 -320 OFFCURVE",
"42 -307 OFFCURVE",
"102 -277 CURVE SMOOTH",
"389 -134 OFFCURVE",
"754 327 OFFCURVE",
"754 534 CURVE SMOOTH",
"754 542 OFFCURVE",
"753 550 OFFCURVE",
"752 557 CURVE SMOOTH",
"739 633 OFFCURVE",
"680 670 OFFCURVE",
"609 670 CURVE SMOOTH",
"573 670 OFFCURVE",
"535 661 OFFCURVE",
"498 642 CURVE SMOOTH",
"335 559 OFFCURVE",
"173 362 OFFCURVE",
"150 183 CURVE",
"51 126 OFFCURVE",
"-57 39 OFFCURVE",
"-119 -57 CURVE SMOOTH",
"-157 -115 OFFCURVE",
"-174 -167 OFFCURVE",
"-174 -209 CURVE SMOOTH",
"-174 -277 OFFCURVE",
"-129 -320 OFFCURVE",
"-53 -320 CURVE SMOOTH"
);
},
{
closed = 1;
nodes = (
"-70 -283 OFFCURVE",
"-105 -263 OFFCURVE",
"-105 -222 CURVE SMOOTH",
"-105 -196 OFFCURVE",
"-91 -161 OFFCURVE",
"-57 -117 CURVE SMOOTH",
"3 -40 OFFCURVE",
"86 21 OFFCURVE",
"167 76 CURVE",
"176 65 OFFCURVE",
"187 58 OFFCURVE",
"198 55 CURVE SMOOTH",
"210 52 OFFCURVE",
"219 51 OFFCURVE",
"224 51 CURVE SMOOTH",
"232 51 OFFCURVE",
"235 53 OFFCURVE",
"235 56 CURVE SMOOTH",
"235 58 OFFCURVE",
"231 62 OFFCURVE",
"228 62 CURVE SMOOTH",
"215 63 OFFCURVE",
"202 71 OFFCURVE",
"193 93 CURVE",
"286 153 OFFCURVE",
"384 199 OFFCURVE",
"447 199 CURVE SMOOTH",
"454 199 OFFCURVE",
"460 198 OFFCURVE",
"466 197 CURVE SMOOTH",
"471 196 OFFCURVE",
"474 194 OFFCURVE",
"476 194 CURVE SMOOTH",
"477 194 OFFCURVE",
"478 195 OFFCURVE",
"478 197 CURVE SMOOTH",
"478 199 OFFCURVE",
"478 202 OFFCURVE",
"476 208 CURVE SMOOTH",
"469 235 OFFCURVE",
"442 250 OFFCURVE",
"406 253 CURVE SMOOTH",
"398 254 OFFCURVE",
"389 254 OFFCURVE",
"381 254 CURVE SMOOTH",
"318 254 OFFCURVE",
"253 235 OFFCURVE",
"190 204 CURVE",
"214 386 OFFCURVE",
"331 546 OFFCURVE",
"514 608 CURVE SMOOTH",
"544 618 OFFCURVE",
"570 623 OFFCURVE",
"592 623 CURVE SMOOTH",
"659 623 OFFCURVE",
"690 578 OFFCURVE",
"690 513 CURVE SMOOTH",
"690 302 OFFCURVE",
"329 -155 OFFCURVE",
"73 -262 CURVE SMOOTH",
"40 -276 OFFCURVE",
"6 -283 OFFCURVE",
"-22 -283 CURVE SMOOTH"
);
}
);
};
layerId = "F2190ACF-0345-4BD7-9FAD-2D95E96981D2";
paths = (
{
closed = 1;
nodes = (
"-11 -313 OFFCURVE",
"42 -300 OFFCURVE",
"102 -270 CURVE SMOOTH",
"389 -127 OFFCURVE",
"754 334 OFFCURVE",
"754 541 CURVE SMOOTH",
"754 549 OFFCURVE",
"753 557 OFFCURVE",
"752 564 CURVE SMOOTH",
"739 640 OFFCURVE",
"680 677 OFFCURVE",
"609 677 CURVE SMOOTH",
"573 677 OFFCURVE",
"535 668 OFFCURVE",
"498 649 CURVE SMOOTH",
"335 566 OFFCURVE",
"173 369 OFFCURVE",
"150 190 CURVE",
"51 133 OFFCURVE",
"-57 46 OFFCURVE",
"-119 -50 CURVE SMOOTH",
"-157 -108 OFFCURVE",
"-174 -160 OFFCURVE",
"-174 -202 CURVE SMOOTH",
"-174 -270 OFFCURVE",
"-129 -313 OFFCURVE",
"-53 -313 CURVE SMOOTH"
);
},
{
closed = 1;
nodes = (
"-70 -276 OFFCURVE",
"-105 -256 OFFCURVE",
"-105 -215 CURVE SMOOTH",
"-105 -189 OFFCURVE",
"-91 -154 OFFCURVE",
"-57 -110 CURVE SMOOTH",
"3 -33 OFFCURVE",
"86 28 OFFCURVE",
"167 83 CURVE",
"176 72 OFFCURVE",
"187 65 OFFCURVE",
"198 62 CURVE SMOOTH",
"210 59 OFFCURVE",
"219 58 OFFCURVE",
"224 58 CURVE SMOOTH",
"232 58 OFFCURVE",
"235 60 OFFCURVE",
"235 63 CURVE SMOOTH",
"235 65 OFFCURVE",
"231 69 OFFCURVE",
"228 69 CURVE SMOOTH",
"215 70 OFFCURVE",
"202 78 OFFCURVE",
"193 100 CURVE",
"286 160 OFFCURVE",
"384 206 OFFCURVE",
"447 206 CURVE SMOOTH",
"454 206 OFFCURVE",
"460 205 OFFCURVE",
"466 204 CURVE SMOOTH",
"471 203 OFFCURVE",
"474 201 OFFCURVE",
"476 201 CURVE SMOOTH",
"477 201 OFFCURVE",
"478 202 OFFCURVE",
"478 204 CURVE SMOOTH",
"478 206 OFFCURVE",
"478 209 OFFCURVE",
"476 215 CURVE SMOOTH",
"469 242 OFFCURVE",
"442 257 OFFCURVE",
"406 260 CURVE SMOOTH",
"398 261 OFFCURVE",
"389 261 OFFCURVE",
"381 261 CURVE SMOOTH",
"318 261 OFFCURVE",
"253 242 OFFCURVE",
"190 211 CURVE",
"214 393 OFFCURVE",
"331 553 OFFCURVE",
"514 615 CURVE SMOOTH",
"544 625 OFFCURVE",
"570 630 OFFCURVE",
"592 630 CURVE SMOOTH",
"659 630 OFFCURVE",
"690 585 OFFCURVE",
"690 520 CURVE SMOOTH",
"690 309 OFFCURVE",
"329 -148 OFFCURVE",
"73 -255 CURVE SMOOTH",
"40 -269 OFFCURVE",
"6 -276 OFFCURVE",
"-22 -276 CURVE SMOOTH"
);
}
);
width = 675;
}
);
note = J;
unicode = 004A;
},
{
glyphname = K;
lastChange = "2022-01-10 21:39:40 +0000";
layers = (
{
background = {
paths = (
{
closed = 1;
nodes = (
"432 -95 OFFCURVE",
"444 -90 OFFCURVE",
"456 -84 CURVE SMOOTH",
"592 -19 OFFCURVE",
"651 65 OFFCURVE",
"651 138 CURVE SMOOTH",
"651 227 OFFCURVE",
"563 300 OFFCURVE",
"418 300 CURVE SMOOTH",
"366 300 OFFCURVE",
"307 290 OFFCURVE",
"242 269 CURVE",
"369 366 OFFCURVE",
"620 556 OFFCURVE",
"856 638 CURVE",
"865 642 OFFCURVE",
"872 650 OFFCURVE",
"872 656 CURVE SMOOTH",
"872 660 OFFCURVE",
"869 663 OFFCURVE",
"861 663 CURVE SMOOTH",
"856 663 LINE SMOOTH",
"712 648 OFFCURVE",
"294 351 OFFCURVE",
"194 259 CURVE SMOOTH",
"187 252 OFFCURVE",
"183 248 OFFCURVE",
"183 245 CURVE SMOOTH",
"183 242 OFFCURVE",
"186 241 OFFCURVE",
"191 241 CURVE SMOOTH",
"200 241 OFFCURVE",
"218 245 OFFCURVE",
"245 253 CURVE SMOOTH",
"291 267 OFFCURVE",
"332 274 OFFCURVE",
"369 274 CURVE SMOOTH",
"487 274 OFFCURVE",
"553 206 OFFCURVE",
"553 122 CURVE SMOOTH",
"553 66 OFFCURVE",
"523 2 OFFCURVE",
"461 -54 CURVE SMOOTH",
"426 -85 OFFCURVE",
"420 -95 OFFCURVE",
"427 -95 CURVE SMOOTH"
);
},
{
closed = 1;
nodes = (
"-22 -92 OFFCURVE",
"-19 -89 OFFCURVE",
"-16 -81 CURVE SMOOTH",
"11 -18 OFFCURVE",
"88 114 OFFCURVE",
"152 214 CURVE SMOOTH",
"221 323 OFFCURVE",
"327 481 OFFCURVE",
"391 565 CURVE SMOOTH",
"398 574 OFFCURVE",
"401 581 OFFCURVE",
"401 587 CURVE SMOOTH",
"401 600 OFFCURVE",
"387 605 OFFCURVE",
"372 605 CURVE SMOOTH",
"361 605 OFFCURVE",
"349 602 OFFCURVE",
"343 597 CURVE SMOOTH",
"268 536 OFFCURVE",
"14 53 OFFCURVE",
"-23 -54 CURVE SMOOTH",
"-28 -67 OFFCURVE",
"-29 -76 OFFCURVE",
"-29 -82 CURVE SMOOTH",
"-29 -89 OFFCURVE",
"-28 -92 OFFCURVE",
"-25 -92 CURVE SMOOTH"
);
}
);
};
layerId = "F2190ACF-0345-4BD7-9FAD-2D95E96981D2";
paths = (
{
closed = 1;
nodes = (
"432 -88 OFFCURVE",
"444 -83 OFFCURVE",
"456 -77 CURVE SMOOTH",
"592 -12 OFFCURVE",
"651 72 OFFCURVE",
"651 145 CURVE SMOOTH",
"651 234 OFFCURVE",
"563 307 OFFCURVE",
"418 307 CURVE SMOOTH",
"366 307 OFFCURVE",
"307 297 OFFCURVE",
"242 276 CURVE",
"369 373 OFFCURVE",
"620 563 OFFCURVE",
"856 645 CURVE",
"865 649 OFFCURVE",
"872 657 OFFCURVE",
"872 663 CURVE SMOOTH",
"872 667 OFFCURVE",
"869 670 OFFCURVE",
"861 670 CURVE SMOOTH",
"856 670 LINE SMOOTH",
"712 655 OFFCURVE",
"294 358 OFFCURVE",
"194 266 CURVE SMOOTH",
"187 259 OFFCURVE",
"183 255 OFFCURVE",
"183 252 CURVE SMOOTH",
"183 249 OFFCURVE",
"186 248 OFFCURVE",
"191 248 CURVE SMOOTH",
"200 248 OFFCURVE",
"218 252 OFFCURVE",
"245 260 CURVE SMOOTH",
"291 274 OFFCURVE",
"332 281 OFFCURVE",
"369 281 CURVE SMOOTH",
"487 281 OFFCURVE",
"553 213 OFFCURVE",
"553 129 CURVE SMOOTH",
"553 73 OFFCURVE",
"523 9 OFFCURVE",
"461 -47 CURVE SMOOTH",
"426 -78 OFFCURVE",
"420 -88 OFFCURVE",
"427 -88 CURVE SMOOTH"
);
},
{
closed = 1;
nodes = (
"-22 -85 OFFCURVE",
"-19 -82 OFFCURVE",
"-16 -74 CURVE SMOOTH",
"11 -11 OFFCURVE",
"88 121 OFFCURVE",
"152 221 CURVE SMOOTH",
"221 330 OFFCURVE",
"327 488 OFFCURVE",
"391 572 CURVE SMOOTH",
"398 581 OFFCURVE",
"401 588 OFFCURVE",
"401 594 CURVE SMOOTH",
"401 607 OFFCURVE",
"387 612 OFFCURVE",
"372 612 CURVE SMOOTH",
"361 612 OFFCURVE",
"349 609 OFFCURVE",
"343 604 CURVE SMOOTH",
"268 543 OFFCURVE",
"14 60 OFFCURVE",
"-23 -47 CURVE SMOOTH",
"-28 -60 OFFCURVE",
"-29 -69 OFFCURVE",
"-29 -75 CURVE SMOOTH",
"-29 -82 OFFCURVE",
"-28 -85 OFFCURVE",
"-25 -85 CURVE SMOOTH"
);
}
);
width = 667;
}
);
note = K;
unicode = 004B;
},
{
glyphname = L;
lastChange = "2022-01-10 22:46:59 +0000";
layers = (
{
background = {
paths = (
{
closed = 1;
nodes = (
"142 83 OFFCURVE",
"176 93 OFFCURVE",
"209 125 CURVE SMOOTH",
"246 161 OFFCURVE",
"287 227 OFFCURVE",
"335 300 CURVE",
"357 296 OFFCURVE",
"378 295 OFFCURVE",
"395 295 CURVE SMOOTH",
"502 291 OFFCURVE",
"613 316 OFFCURVE",
"711 352 CURVE SMOOTH",
"886 416 OFFCURVE",
"966 505 OFFCURVE",
"966 574 CURVE SMOOTH",
"966 608 OFFCURVE",
"946 637 OFFCURVE",
"910 656 CURVE SMOOTH",
"893 665 OFFCURVE",
"864 671 OFFCURVE",
"826 671 CURVE SMOOTH",
"768 671 OFFCURVE",
"692 656 OFFCURVE",
"616 614 CURVE SMOOTH",
"501 550 OFFCURVE",
"417 449 OFFCURVE",
"349 354 CURVE",
"346 354 LINE SMOOTH",
"336 353 OFFCURVE",
"317 352 OFFCURVE",
"297 352 CURVE SMOOTH",
"265 352 OFFCURVE",
"229 355 OFFCURVE",
"220 370 CURVE SMOOTH",
"217 376 OFFCURVE",
"211 377 OFFCURVE",
"214 367 CURVE SMOOTH",
"226 330 OFFCURVE",
"269 312 OFFCURVE",
"313 303 CURVE",
"270 242 OFFCURVE",
"234 187 OFFCURVE",
"198 151 CURVE SMOOTH",
"154 108 OFFCURVE",
"113 98 OFFCURVE",
"88 98 CURVE SMOOTH",
"76 98 OFFCURVE",
"68 100 OFFCURVE",
"65 102 CURVE SMOOTH",
"62 104 OFFCURVE",
"61 101 OFFCURVE",
"62 99 CURVE SMOOTH",
"65 93 OFFCURVE",
"86 83 OFFCURVE",
"114 83 CURVE SMOOTH"
);
},
{
closed = 1;
nodes = (
"726 -68 OFFCURVE",
"730 -65 OFFCURVE",
"731 -57 CURVE SMOOTH",
"732 -51 OFFCURVE",
"732 -46 OFFCURVE",
"732 -41 CURVE SMOOTH",
"732 73 OFFCURVE",
"518 108 OFFCURVE",
"347 108 CURVE SMOOTH",
"284 108 OFFCURVE",
"227 103 OFFCURVE",
"189 96 CURVE SMOOTH",
"38 67 OFFCURVE",
"3 15 OFFCURVE",
"3 -14 CURVE SMOOTH",
"3 -25 OFFCURVE",
"8 -33 OFFCURVE",
"13 -36 CURVE SMOOTH",
"19 -40 OFFCURVE",
"28 -41 OFFCURVE",
"37 -41 CURVE SMOOTH",
"83 -41 OFFCURVE",
"163 -6 OFFCURVE",
"226 7 CURVE SMOOTH",
"285 20 OFFCURVE",
"356 26 OFFCURVE",
"426 26 CURVE SMOOTH",
"584 26 OFFCURVE",
"734 -5 OFFCURVE",
"719 -58 CURVE SMOOTH",
"717 -64 OFFCURVE",
"720 -68 OFFCURVE",
"723 -68 CURVE SMOOTH"
);
},
{
closed = 1;
nodes = (
"441 453 OFFCURVE",
"521 551 OFFCURVE",
"622 604 CURVE SMOOTH",
"693 641 OFFCURVE",
"765 655 OFFCURVE",
"813 655 CURVE SMOOTH",
"836 655 OFFCURVE",
"853 652 OFFCURVE",
"863 647 CURVE SMOOTH",
"882 637 OFFCURVE",
"893 623 OFFCURVE",
"893 605 CURVE SMOOTH",
"893 558 OFFCURVE",
"824 490 OFFCURVE",
"656 429 CURVE SMOOTH",
"569 397 OFFCURVE",
"464 368 OFFCURVE",
"374 357 CURVE"
);
}
);
};
layerId = "F2190ACF-0345-4BD7-9FAD-2D95E96981D2";
paths = (
{
closed = 1;
nodes = (
"138 83 OFFCURVE",
"176 93 OFFCURVE",
"209 125 CURVE SMOOTH",
"246 161 OFFCURVE",
"287 227 OFFCURVE",
"335 300 CURVE",
"357 296 OFFCURVE",
"378 295 OFFCURVE",
"395 295 CURVE SMOOTH",
"502 291 OFFCURVE",
"613 316 OFFCURVE",
"711 352 CURVE SMOOTH",
"886 416 OFFCURVE",
"966 505 OFFCURVE",
"966 574 CURVE SMOOTH",
"966 633 OFFCURVE",
"909 671 OFFCURVE",
"838 671 CURVE SMOOTH",
"768 671 OFFCURVE",
"692 656 OFFCURVE",
"616 614 CURVE SMOOTH",
"501 550 OFFCURVE",
"417 449 OFFCURVE",
"349 354 CURVE",
"346 354 LINE SMOOTH",
"336 354 OFFCURVE",
"317 352 OFFCURVE",
"297 352 CURVE SMOOTH",
"265 352 OFFCURVE",
"229 355 OFFCURVE",
"220 370 CURVE SMOOTH",
"217 376 OFFCURVE",
"211 377 OFFCURVE",
"214 367 CURVE SMOOTH",
"226 330 OFFCURVE",
"269 312 OFFCURVE",
"313 303 CURVE",
"270 242 OFFCURVE",
"234 187 OFFCURVE",
"198 151 CURVE SMOOTH",
"154 108 OFFCURVE",
"113 98 OFFCURVE",
"88 98 CURVE SMOOTH",
"76 98 OFFCURVE",
"68 100 OFFCURVE",
"65 102 CURVE SMOOTH",
"62 104 OFFCURVE",
"61 101 OFFCURVE",
"62 99 CURVE SMOOTH",
"65 93 OFFCURVE",
"86 83 OFFCURVE",
"114 83 CURVE SMOOTH"
);
},
{
closed = 1;
nodes = (
"441 453 OFFCURVE",
"521 551 OFFCURVE",
"622 604 CURVE SMOOTH",
"693 641 OFFCURVE",
"765 655 OFFCURVE",
"817 655 CURVE SMOOTH",
"857 655 OFFCURVE",
"893 640 OFFCURVE",
"893 605 CURVE SMOOTH",
"893 558 OFFCURVE",
"824 490 OFFCURVE",
"656 429 CURVE SMOOTH",
"569 397 OFFCURVE",
"464 368 OFFCURVE",
"374 357 CURVE"
);
},
{
closed = 1;
nodes = (
"726 -68 OFFCURVE",
"730 -65 OFFCURVE",
"731 -57 CURVE SMOOTH",
"732 -51 OFFCURVE",
"732 -46 OFFCURVE",
"732 -41 CURVE SMOOTH",
"732 45 OFFCURVE",
"605 108 OFFCURVE",
"340 108 CURVE SMOOTH",
"274 108 OFFCURVE",
"213 105 OFFCURVE",
"134 83 CURVE SMOOTH",
"38 57 OFFCURVE",
"3 16 OFFCURVE",
"3 -14 CURVE SMOOTH",
"3 -35 OFFCURVE",
"17 -41 OFFCURVE",
"37 -41 CURVE SMOOTH",
"83 -41 OFFCURVE",
"163 -6 OFFCURVE",
"226 7 CURVE SMOOTH",
"285 20 OFFCURVE",
"356 26 OFFCURVE",
"429 26 CURVE SMOOTH",
"606 26 OFFCURVE",
"719 -10 OFFCURVE",
"720 -50 CURVE SMOOTH",
"720 -53 OFFCURVE",
"720 -55 OFFCURVE",
"719 -58 CURVE SMOOTH",
"717 -64 OFFCURVE",
"720 -68 OFFCURVE",
"723 -68 CURVE SMOOTH"
);
}
);
width = 736;
}
);
note = L;
unicode = 004C;
},
{
glyphname = M;
lastChange = "2022-01-10 21:39:40 +0000";
layers = (
{
background = {
paths = (
{
closed = 1;
nodes = (
"1188 -236 OFFCURVE",
"1202 -232 OFFCURVE",
"1211 -225 CURVE SMOOTH",
"1217 -219 OFFCURVE",
"1212 -210 OFFCURVE",
"1205 -210 CURVE SMOOTH",
"1204 -210 OFFCURVE",
"1202 -211 OFFCURVE",
"1200 -212 CURVE",
"1192 -219 OFFCURVE",
"1182 -223 OFFCURVE",
"1172 -223 CURVE SMOOTH",
"1156 -223 OFFCURVE",
"1141 -210 OFFCURVE",
"1141 -172 CURVE SMOOTH",
"1141 -166 OFFCURVE",
"1141 -159 OFFCURVE",
"1142 -152 CURVE SMOOTH",
"1150 -67 OFFCURVE",
"1230 101 OFFCURVE",
"1435 403 CURVE SMOOTH",
"1470 455 OFFCURVE",
"1485 492 OFFCURVE",
"1485 516 CURVE SMOOTH",
"1485 544 OFFCURVE",
"1466 556 OFFCURVE",
"1437 556 CURVE SMOOTH",
"1388 556 OFFCURVE",
"1310 522 OFFCURVE",
"1246 475 CURVE SMOOTH",
"1172 420 OFFCURVE",
"1091 344 OFFCURVE",
"1022 272 CURVE",
"1051 321 OFFCURVE",
"1076 369 OFFCURVE",
"1091 405 CURVE SMOOTH",
"1102 432 OFFCURVE",
"1108 459 OFFCURVE",
"1108 483 CURVE SMOOTH",
"1108 528 OFFCURVE",
"1087 563 OFFCURVE",
"1037 563 CURVE SMOOTH",
"1001 563 OFFCURVE",
"950 545 OFFCURVE",
"882 501 CURVE SMOOTH",
"787 439 OFFCURVE",
"651 311 OFFCURVE",
"530 184 CURVE",
"586 253 OFFCURVE",
"649 326 OFFCURVE",
"687 372 CURVE SMOOTH",
"728 422 OFFCURVE",
"769 491 OFFCURVE",
"769 549 CURVE SMOOTH",
"769 613 OFFCURVE",
"721 663 OFFCURVE",
"574 663 CURVE SMOOTH",
"424 663 OFFCURVE",
"213 615 OFFCURVE",
"76 537 CURVE SMOOTH",
"23 507 OFFCURVE",
"-2 462 OFFCURVE",
"-2 425 CURVE SMOOTH",
"-2 401 OFFCURVE",
"8 380 OFFCURVE",
"27 367 CURVE SMOOTH",
"30 365 OFFCURVE",
"34 364 OFFCURVE",
"37 364 CURVE SMOOTH",
"40 364 OFFCURVE",
"42 365 OFFCURVE",
"42 366 CURVE SMOOTH",
"42 367 OFFCURVE",
"42 368 OFFCURVE",
"40 369 CURVE SMOOTH",
"24 380 OFFCURVE",
"17 391 OFFCURVE",
"17 402 CURVE SMOOTH",
"17 437 OFFCURVE",
"89 474 OFFCURVE",
"178 504 CURVE SMOOTH",
"251 529 OFFCURVE",
"427 582 OFFCURVE",
"552 582 CURVE SMOOTH",
"630 582 OFFCURVE",
"688 561 OFFCURVE",
"688 499 CURVE SMOOTH",
"688 476 OFFCURVE",
"680 448 OFFCURVE",
"662 413 CURVE SMOOTH",
"610 311 OFFCURVE",
"493 178 OFFCURVE",
"407 72 CURVE SMOOTH",
"371 27 OFFCURVE",
"352 -6 OFFCURVE",
"352 -17 CURVE SMOOTH",
"352 -29 OFFCURVE",
"376 -12 OFFCURVE",
"427 53 CURVE",
"429 53 OFFCURVE",
"432 54 OFFCURVE",
"434 56 CURVE SMOOTH",
"573 212 OFFCURVE",
"768 407 OFFCURVE",
"891 486 CURVE SMOOTH",
"927 509 OFFCURVE",
"953 519 OFFCURVE",
"971 519 CURVE SMOOTH",
"997 519 OFFCURVE",
"1007 499 OFFCURVE",
"1007 470 CURVE SMOOTH",
"1007 456 OFFCURVE",
"1005 439 OFFCURVE",
"1001 422 CURVE SMOOTH",
"981 341 OFFCURVE",
"815 53 OFFCURVE",
"815 53 CURVE",
"807 38 OFFCURVE",
"826 27 OFFCURVE",
"845 27 CURVE SMOOTH",
"856 27 OFFCURVE",
"868 31 OFFCURVE",
"874 40 CURVE SMOOTH",
"891 65 OFFCURVE",
"934 128 OFFCURVE",
"978 199 CURVE",
"1057 286 OFFCURVE",
"1161 390 OFFCURVE",
"1255 461 CURVE SMOOTH",
"1288 486 OFFCURVE",
"1328 504 OFFCURVE",
"1355 504 CURVE SMOOTH",
"1374 504 OFFCURVE",
"1387 495 OFFCURVE",
"1387 474 CURVE SMOOTH",
"1387 449 OFFCURVE",
"1369 406 OFFCURVE",
"1320 338 CURVE SMOOTH",
"1062 -21 OFFCURVE",
"1060 -57 OFFCURVE",
"1056 -127 CURVE SMOOTH",
"1051 -198 OFFCURVE",
"1122 -236 OFFCURVE",
"1173 -236 CURVE SMOOTH"
);
}
);
};
layerId = "F2190ACF-0345-4BD7-9FAD-2D95E96981D2";
paths = (
{
closed = 1;
nodes = (
"1188 -229 OFFCURVE",
"1202 -225 OFFCURVE",
"1211 -218 CURVE SMOOTH",
"1217 -212 OFFCURVE",
"1212 -203 OFFCURVE",
"1205 -203 CURVE SMOOTH",
"1204 -203 OFFCURVE",
"1202 -204 OFFCURVE",
"1200 -205 CURVE",
"1192 -212 OFFCURVE",
"1182 -216 OFFCURVE",
"1172 -216 CURVE SMOOTH",
"1156 -216 OFFCURVE",
"1141 -203 OFFCURVE",
"1141 -165 CURVE SMOOTH",
"1141 -159 OFFCURVE",
"1141 -152 OFFCURVE",
"1142 -145 CURVE SMOOTH",
"1150 -60 OFFCURVE",
"1230 108 OFFCURVE",
"1435 410 CURVE SMOOTH",
"1470 462 OFFCURVE",
"1485 499 OFFCURVE",
"1485 523 CURVE SMOOTH",
"1485 551 OFFCURVE",
"1466 563 OFFCURVE",
"1437 563 CURVE SMOOTH",
"1388 563 OFFCURVE",
"1310 529 OFFCURVE",
"1246 482 CURVE SMOOTH",
"1172 427 OFFCURVE",
"1091 351 OFFCURVE",
"1022 279 CURVE",
"1051 328 OFFCURVE",
"1076 376 OFFCURVE",
"1091 412 CURVE SMOOTH",
"1102 439 OFFCURVE",
"1108 466 OFFCURVE",
"1108 490 CURVE SMOOTH",
"1108 535 OFFCURVE",
"1087 570 OFFCURVE",
"1037 570 CURVE SMOOTH",
"1001 570 OFFCURVE",
"950 552 OFFCURVE",
"882 508 CURVE SMOOTH",
"787 446 OFFCURVE",
"651 318 OFFCURVE",
"530 191 CURVE",
"586 260 OFFCURVE",
"649 333 OFFCURVE",
"687 379 CURVE SMOOTH",
"728 429 OFFCURVE",
"769 498 OFFCURVE",
"769 556 CURVE SMOOTH",
"769 620 OFFCURVE",
"721 670 OFFCURVE",
"574 670 CURVE SMOOTH",
"424 670 OFFCURVE",
"213 622 OFFCURVE",
"76 544 CURVE SMOOTH",
"23 514 OFFCURVE",
"-2 469 OFFCURVE",
"-2 432 CURVE SMOOTH",
"-2 408 OFFCURVE",
"8 387 OFFCURVE",
"27 374 CURVE SMOOTH",
"30 372 OFFCURVE",
"34 371 OFFCURVE",
"37 371 CURVE SMOOTH",
"40 371 OFFCURVE",
"42 372 OFFCURVE",
"42 373 CURVE SMOOTH",
"42 374 OFFCURVE",
"42 375 OFFCURVE",
"40 376 CURVE SMOOTH",
"24 387 OFFCURVE",
"17 398 OFFCURVE",
"17 409 CURVE SMOOTH",
"17 444 OFFCURVE",
"89 481 OFFCURVE",
"178 511 CURVE SMOOTH",
"251 536 OFFCURVE",
"427 589 OFFCURVE",
"552 589 CURVE SMOOTH",
"630 589 OFFCURVE",
"688 568 OFFCURVE",
"688 506 CURVE SMOOTH",
"688 483 OFFCURVE",
"680 455 OFFCURVE",
"662 420 CURVE SMOOTH",
"610 318 OFFCURVE",
"493 185 OFFCURVE",
"407 79 CURVE SMOOTH",
"371 34 OFFCURVE",
"352 1 OFFCURVE",
"352 -10 CURVE SMOOTH",
"352 -22 OFFCURVE",
"376 -5 OFFCURVE",
"427 60 CURVE",
"429 60 OFFCURVE",
"432 61 OFFCURVE",
"434 63 CURVE SMOOTH",
"573 219 OFFCURVE",
"768 414 OFFCURVE",
"891 493 CURVE SMOOTH",
"927 516 OFFCURVE",
"953 526 OFFCURVE",
"971 526 CURVE SMOOTH",
"997 526 OFFCURVE",
"1007 506 OFFCURVE",
"1007 477 CURVE SMOOTH",
"1007 463 OFFCURVE",
"1005 446 OFFCURVE",
"1001 429 CURVE SMOOTH",
"981 348 OFFCURVE",
"815 60 OFFCURVE",
"815 60 CURVE",
"807 45 OFFCURVE",
"826 34 OFFCURVE",
"845 34 CURVE SMOOTH",
"856 34 OFFCURVE",
"868 38 OFFCURVE",
"874 47 CURVE SMOOTH",
"891 72 OFFCURVE",
"934 135 OFFCURVE",
"978 206 CURVE",
"1057 293 OFFCURVE",
"1161 397 OFFCURVE",
"1255 468 CURVE SMOOTH",
"1288 493 OFFCURVE",
"1328 511 OFFCURVE",
"1355 511 CURVE SMOOTH",
"1374 511 OFFCURVE",
"1387 502 OFFCURVE",
"1387 481 CURVE SMOOTH",
"1387 456 OFFCURVE",
"1369 413 OFFCURVE",
"1320 345 CURVE SMOOTH",
"1062 -14 OFFCURVE",
"1060 -50 OFFCURVE",
"1056 -120 CURVE SMOOTH",
"1051 -191 OFFCURVE",
"1122 -229 OFFCURVE",
"1173 -229 CURVE SMOOTH"
);
}
);
width = 1324;
}
);
note = M;
unicode = 004D;
},
{
glyphname = N;
lastChange = "2022-01-10 21:39:40 +0000";
layers = (
{
background = {
paths = (
{
closed = 1;
nodes = (
"-69 -151 OFFCURVE",
"-66 -147 OFFCURVE",
"-63 -140 CURVE SMOOTH",
"-5 -5 OFFCURVE",
"179 293 OFFCURVE",
"319 484 CURVE",
"308 432 OFFCURVE",
"301 374 OFFCURVE",
"301 314 CURVE SMOOTH",
"301 203 OFFCURVE",
"325 86 OFFCURVE",
"389 0 CURVE SMOOTH",
"414 -34 OFFCURVE",
"446 -51 OFFCURVE",
"477 -51 CURVE SMOOTH",
"495 -51 OFFCURVE",
"512 -46 OFFCURVE",
"528 -35 CURVE SMOOTH",
"532 -32 OFFCURVE",
"530 -24 OFFCURVE",
"525 -24 CURVE",
"525 -24 OFFCURVE",
"524 -25 OFFCURVE",
"523 -25 CURVE",
"517 -29 OFFCURVE",
"510 -31 OFFCURVE",
"503 -31 CURVE SMOOTH",
"481 -31 OFFCURVE",
"454 -12 OFFCURVE",
"436 16 CURVE SMOOTH",
"433 21 LINE",
"502 172 OFFCURVE",
"671 444 OFFCURVE",
"807 622 CURVE SMOOTH",
"812 628 OFFCURVE",
"814 633 OFFCURVE",
"814 637 CURVE SMOOTH",
"814 643 OFFCURVE",
"807 645 OFFCURVE",
"799 645 CURVE SMOOTH",
"789 645 OFFCURVE",
"778 642 OFFCURVE",
"774 642 CURVE SMOOTH",
"753 642 OFFCURVE",
"481 192 OFFCURVE",
"423 43 CURVE",
"403 91 OFFCURVE",
"394 165 OFFCURVE",
"394 244 CURVE SMOOTH",
"394 389 OFFCURVE",
"426 552 OFFCURVE",
"488 603 CURVE SMOOTH",
"494 607 OFFCURVE",
"496 612 OFFCURVE",
"496 617 CURVE SMOOTH",
"496 638 OFFCURVE",
"445 660 OFFCURVE",
"414 660 CURVE SMOOTH",
"386 660 OFFCURVE",
"358 617 OFFCURVE",
"336 549 CURVE",
"266 467 OFFCURVE",
"-28 11 OFFCURVE",
"-70 -112 CURVE SMOOTH",
"-75 -125 OFFCURVE",
"-76 -134 OFFCURVE",
"-76 -141 CURVE SMOOTH",
"-76 -148 OFFCURVE",
"-75 -151 OFFCURVE",
"-72 -151 CURVE SMOOTH"
);
}
);
};
layerId = "F2190ACF-0345-4BD7-9FAD-2D95E96981D2";
paths = (
{
closed = 1;
nodes = (
"-69 -144 OFFCURVE",
"-66 -140 OFFCURVE",
"-63 -133 CURVE SMOOTH",
"-5 2 OFFCURVE",
"179 300 OFFCURVE",
"319 491 CURVE",
"308 439 OFFCURVE",
"301 381 OFFCURVE",
"301 321 CURVE SMOOTH",
"301 210 OFFCURVE",
"325 93 OFFCURVE",
"389 7 CURVE SMOOTH",
"414 -27 OFFCURVE",
"446 -44 OFFCURVE",
"477 -44 CURVE SMOOTH",
"495 -44 OFFCURVE",
"512 -39 OFFCURVE",
"528 -28 CURVE SMOOTH",
"532 -25 OFFCURVE",
"530 -17 OFFCURVE",
"525 -17 CURVE",
"525 -17 OFFCURVE",
"524 -18 OFFCURVE",
"523 -18 CURVE",
"517 -22 OFFCURVE",
"510 -24 OFFCURVE",
"503 -24 CURVE SMOOTH",
"481 -24 OFFCURVE",
"454 -5 OFFCURVE",
"436 23 CURVE SMOOTH",
"433 28 LINE",
"502 179 OFFCURVE",
"671 451 OFFCURVE",
"807 629 CURVE SMOOTH",
"812 635 OFFCURVE",
"814 640 OFFCURVE",
"814 644 CURVE SMOOTH",
"814 650 OFFCURVE",
"807 652 OFFCURVE",
"799 652 CURVE SMOOTH",
"789 652 OFFCURVE",
"778 649 OFFCURVE",
"774 649 CURVE SMOOTH",
"753 649 OFFCURVE",
"481 199 OFFCURVE",
"423 50 CURVE",
"403 98 OFFCURVE",
"394 172 OFFCURVE",
"394 251 CURVE SMOOTH",
"394 396 OFFCURVE",
"426 559 OFFCURVE",
"488 610 CURVE SMOOTH",
"494 614 OFFCURVE",
"496 619 OFFCURVE",
"496 624 CURVE SMOOTH",
"496 645 OFFCURVE",
"445 667 OFFCURVE",
"414 667 CURVE SMOOTH",
"386 667 OFFCURVE",
"358 624 OFFCURVE",
"336 556 CURVE",
"266 474 OFFCURVE",
"-28 18 OFFCURVE",
"-70 -105 CURVE SMOOTH",
"-75 -118 OFFCURVE",
"-76 -127 OFFCURVE",
"-76 -134 CURVE SMOOTH",
"-76 -141 OFFCURVE",
"-75 -144 OFFCURVE",
"-72 -144 CURVE SMOOTH"
);
}
);
width = 585;
}
);
note = N;
unicode = 004E;
},
{
glyphname = Eng;
lastChange = "2022-01-10 21:39:40 +0000";
layers = (
{
background = {
paths = (
{
closed = 1;
nodes = (
"-69 -151 OFFCURVE",
"-66 -147 OFFCURVE",
"-63 -140 CURVE SMOOTH",
"-5 -5 OFFCURVE",
"179 293 OFFCURVE",
"319 484 CURVE",
"308 432 OFFCURVE",
"301 374 OFFCURVE",
"301 314 CURVE SMOOTH",
"301 203 OFFCURVE",
"325 86 OFFCURVE",
"389 0 CURVE SMOOTH",
"414 -34 OFFCURVE",
"446 -51 OFFCURVE",
"477 -51 CURVE SMOOTH",
"495 -51 OFFCURVE",
"512 -46 OFFCURVE",
"528 -35 CURVE SMOOTH",
"532 -32 OFFCURVE",
"530 -24 OFFCURVE",
"525 -24 CURVE",
"525 -24 OFFCURVE",
"524 -25 OFFCURVE",
"523 -25 CURVE",
"517 -29 OFFCURVE",
"510 -31 OFFCURVE",
"503 -31 CURVE SMOOTH",
"481 -31 OFFCURVE",
"454 -12 OFFCURVE",
"436 16 CURVE SMOOTH",
"433 21 LINE",
"502 172 OFFCURVE",
"671 444 OFFCURVE",
"807 622 CURVE SMOOTH",
"812 628 OFFCURVE",
"814 633 OFFCURVE",
"814 637 CURVE SMOOTH",
"814 643 OFFCURVE",
"807 645 OFFCURVE",
"799 645 CURVE SMOOTH",
"789 645 OFFCURVE",
"778 642 OFFCURVE",
"774 642 CURVE SMOOTH",
"753 642 OFFCURVE",
"481 192 OFFCURVE",
"423 43 CURVE",
"403 91 OFFCURVE",
"394 165 OFFCURVE",
"394 244 CURVE SMOOTH",
"394 389 OFFCURVE",
"426 552 OFFCURVE",
"488 603 CURVE SMOOTH",
"494 607 OFFCURVE",
"496 612 OFFCURVE",
"496 617 CURVE SMOOTH",
"496 638 OFFCURVE",
"445 660 OFFCURVE",
"414 660 CURVE SMOOTH",
"386 660 OFFCURVE",
"358 617 OFFCURVE",
"336 549 CURVE",
"266 467 OFFCURVE",
"-28 11 OFFCURVE",
"-70 -112 CURVE SMOOTH",
"-75 -125 OFFCURVE",
"-76 -134 OFFCURVE",
"-76 -141 CURVE SMOOTH",
"-76 -148 OFFCURVE",
"-75 -151 OFFCURVE",
"-72 -151 CURVE SMOOTH"
);
},
{
closed = 1;
nodes = (
"176 -361 OFFCURVE",
"211 -351 OFFCURVE",
"241 -331 CURVE SMOOTH",
"308 -286 OFFCURVE",
"390 -115 OFFCURVE",
"425 -8 CURVE",
"398 14 LINE",
"351 -68 OFFCURVE",
"310 -138 OFFCURVE",
"302 -150 CURVE SMOOTH",
"265 -204 OFFCURVE",
"214 -263 OFFCURVE",
"165 -294 CURVE SMOOTH",
"146 -306 OFFCURVE",
"119 -315 OFFCURVE",
"94 -315 CURVE SMOOTH",
"62 -315 OFFCURVE",
"33 -301 OFFCURVE",
"23 -265 CURVE SMOOTH",
"21 -258 OFFCURVE",
"15 -259 OFFCURVE",
"16 -265 CURVE SMOOTH",
"27 -328 OFFCURVE",
"82 -361 OFFCURVE",
"143 -361 CURVE SMOOTH"
);
}
);
};
layerId = "F2190ACF-0345-4BD7-9FAD-2D95E96981D2";
paths = (
{
closed = 1;
nodes = (
"-69 -144 OFFCURVE",
"-66 -140 OFFCURVE",
"-63 -133 CURVE SMOOTH",
"-5 2 OFFCURVE",
"179 300 OFFCURVE",
"319 491 CURVE",
"308 439 OFFCURVE",
"301 381 OFFCURVE",
"301 321 CURVE SMOOTH",
"301 210 OFFCURVE",
"325 93 OFFCURVE",
"389 7 CURVE SMOOTH",
"414 -27 OFFCURVE",
"446 -44 OFFCURVE",
"477 -44 CURVE SMOOTH",
"495 -44 OFFCURVE",
"512 -39 OFFCURVE",
"528 -28 CURVE SMOOTH",
"532 -25 OFFCURVE",
"530 -17 OFFCURVE",
"525 -17 CURVE",
"525 -17 OFFCURVE",
"524 -18 OFFCURVE",
"523 -18 CURVE",
"517 -22 OFFCURVE",
"510 -24 OFFCURVE",
"503 -24 CURVE SMOOTH",
"481 -24 OFFCURVE",
"454 -5 OFFCURVE",
"436 23 CURVE SMOOTH",
"433 28 LINE",
"502 179 OFFCURVE",
"671 451 OFFCURVE",
"807 629 CURVE SMOOTH",
"812 635 OFFCURVE",
"814 640 OFFCURVE",
"814 644 CURVE SMOOTH",
"814 650 OFFCURVE",
"807 652 OFFCURVE",
"799 652 CURVE SMOOTH",
"789 652 OFFCURVE",
"778 649 OFFCURVE",
"774 649 CURVE SMOOTH",
"753 649 OFFCURVE",
"481 199 OFFCURVE",
"423 50 CURVE",
"403 98 OFFCURVE",
"394 172 OFFCURVE",
"394 251 CURVE SMOOTH",
"394 396 OFFCURVE",
"426 559 OFFCURVE",
"488 610 CURVE SMOOTH",
"494 614 OFFCURVE",
"496 619 OFFCURVE",
"496 624 CURVE SMOOTH",
"496 645 OFFCURVE",
"445 667 OFFCURVE",
"414 667 CURVE SMOOTH",
"386 667 OFFCURVE",
"358 624 OFFCURVE",
"336 556 CURVE",
"266 474 OFFCURVE",
"-28 18 OFFCURVE",
"-70 -105 CURVE SMOOTH",
"-75 -118 OFFCURVE",
"-76 -127 OFFCURVE",
"-76 -134 CURVE SMOOTH",
"-76 -141 OFFCURVE",
"-75 -144 OFFCURVE",
"-72 -144 CURVE SMOOTH"
);
},
{
closed = 1;
nodes = (
"176 -354 OFFCURVE",
"211 -344 OFFCURVE",
"241 -324 CURVE SMOOTH",
"308 -279 OFFCURVE",
"390 -108 OFFCURVE",
"425 -1 CURVE",
"398 21 LINE",
"351 -61 OFFCURVE",
"310 -131 OFFCURVE",
"302 -143 CURVE SMOOTH",
"265 -197 OFFCURVE",
"214 -256 OFFCURVE",
"165 -287 CURVE SMOOTH",
"146 -299 OFFCURVE",
"119 -308 OFFCURVE",
"94 -308 CURVE SMOOTH",
"62 -308 OFFCURVE",
"33 -294 OFFCURVE",
"23 -258 CURVE SMOOTH",
"21 -251 OFFCURVE",
"15 -252 OFFCURVE",
"16 -258 CURVE SMOOTH",
"27 -321 OFFCURVE",
"82 -354 OFFCURVE",
"143 -354 CURVE SMOOTH"
);
}
);
width = 585;
}
);
unicode = 014A;
},
{
glyphname = O;
lastChange = "2022-01-10 21:39:40 +0000";
layers = (
{
background = {
paths = (
{
closed = 1;
nodes = (
"365 -46 OFFCURVE",
"409 -35 OFFCURVE",
"451 -12 CURVE SMOOTH",
"531 31 OFFCURVE",
"609 102 OFFCURVE",
"657 163 CURVE SMOOTH",
"725 249 OFFCURVE",
"808 369 OFFCURVE",
"808 517 CURVE SMOOTH",
"808 623 OFFCURVE",
"757 658 OFFCURVE",
"720 658 CURVE SMOOTH",
"713 658 OFFCURVE",
"707 657 OFFCURVE",
"702 655 CURVE SMOOTH",
"697 653 OFFCURVE",
"695 650 OFFCURVE",
"695 647 CURVE SMOOTH",
"695 645 OFFCURVE",
"696 644 OFFCURVE",
"698 644 CURVE SMOOTH",
"699 644 OFFCURVE",
"700 645 OFFCURVE",
"701 645 CURVE SMOOTH",
"704 646 OFFCURVE",
"707 647 OFFCURVE",
"711 647 CURVE SMOOTH",
"735 647 OFFCURVE",
"769 618 OFFCURVE",
"769 509 CURVE SMOOTH",
"769 372 OFFCURVE",
"714 262 OFFCURVE",
"654 187 CURVE SMOOTH",
"590 108 OFFCURVE",
"505 57 OFFCURVE",
"426 29 CURVE SMOOTH",
"373 10 OFFCURVE",
"327 2 OFFCURVE",
"289 2 CURVE SMOOTH",
"203 2 OFFCURVE",
"158 46 OFFCURVE",
"158 116 CURVE SMOOTH",
"158 168 OFFCURVE",
"183 233 OFFCURVE",
"235 305 CURVE SMOOTH",
"318 419 OFFCURVE",
"499 526 OFFCURVE",
"589 526 CURVE SMOOTH",
"621 526 OFFCURVE",
"641 513 OFFCURVE",
"641 481 CURVE SMOOTH",
"641 473 OFFCURVE",
"639 463 OFFCURVE",
"636 451 CURVE SMOOTH",
"635 445 OFFCURVE",
"637 440 OFFCURVE",
"640 440 CURVE SMOOTH",
"641 440 OFFCURVE",
"643 442 OFFCURVE",
"644 446 CURVE SMOOTH",
"648 458 OFFCURVE",
"655 485 OFFCURVE",
"655 511 CURVE SMOOTH",
"655 586 OFFCURVE",
"607 615 OFFCURVE",
"551 615 CURVE SMOOTH",
"529 615 OFFCURVE",
"505 611 OFFCURVE",
"483 603 CURVE SMOOTH",
"403 576 OFFCURVE",
"284 481 OFFCURVE",
"209 361 CURVE SMOOTH",
"158 279 OFFCURVE",
"136 206 OFFCURVE",
"136 146 CURVE SMOOTH",
"136 25 OFFCURVE",
"221 -46 OFFCURVE",
"325 -46 CURVE SMOOTH"
);
}
);
};
layerId = "F2190ACF-0345-4BD7-9FAD-2D95E96981D2";
paths = (
{
closed = 1;
nodes = (
"365 -39 OFFCURVE",
"409 -28 OFFCURVE",
"451 -5 CURVE SMOOTH",
"531 38 OFFCURVE",
"609 109 OFFCURVE",
"657 170 CURVE SMOOTH",
"725 256 OFFCURVE",
"808 376 OFFCURVE",
"808 524 CURVE SMOOTH",
"808 630 OFFCURVE",
"757 665 OFFCURVE",
"720 665 CURVE SMOOTH",
"713 665 OFFCURVE",
"707 664 OFFCURVE",
"702 662 CURVE SMOOTH",
"697 660 OFFCURVE",
"695 657 OFFCURVE",
"695 654 CURVE SMOOTH",
"695 652 OFFCURVE",
"696 651 OFFCURVE",
"698 651 CURVE SMOOTH",
"699 651 OFFCURVE",
"700 652 OFFCURVE",
"701 652 CURVE SMOOTH",
"704 653 OFFCURVE",
"707 654 OFFCURVE",
"711 654 CURVE SMOOTH",
"735 654 OFFCURVE",
"769 625 OFFCURVE",
"769 516 CURVE SMOOTH",
"769 379 OFFCURVE",
"714 269 OFFCURVE",
"654 194 CURVE SMOOTH",
"590 115 OFFCURVE",
"505 64 OFFCURVE",
"426 36 CURVE SMOOTH",
"373 17 OFFCURVE",
"327 9 OFFCURVE",
"289 9 CURVE SMOOTH",
"203 9 OFFCURVE",
"158 53 OFFCURVE",
"158 123 CURVE SMOOTH",
"158 175 OFFCURVE",
"183 240 OFFCURVE",
"235 312 CURVE SMOOTH",
"318 426 OFFCURVE",
"499 533 OFFCURVE",
"589 533 CURVE SMOOTH",
"621 533 OFFCURVE",
"641 520 OFFCURVE",
"641 488 CURVE SMOOTH",
"641 480 OFFCURVE",
"639 470 OFFCURVE",
"636 458 CURVE SMOOTH",
"635 452 OFFCURVE",
"637 447 OFFCURVE",
"640 447 CURVE SMOOTH",
"641 447 OFFCURVE",
"643 449 OFFCURVE",
"644 453 CURVE SMOOTH",
"648 465 OFFCURVE",
"655 492 OFFCURVE",
"655 518 CURVE SMOOTH",
"655 593 OFFCURVE",
"607 622 OFFCURVE",
"551 622 CURVE SMOOTH",
"529 622 OFFCURVE",
"505 618 OFFCURVE",
"483 610 CURVE SMOOTH",
"403 583 OFFCURVE",
"284 488 OFFCURVE",
"209 368 CURVE SMOOTH",
"158 286 OFFCURVE",
"136 213 OFFCURVE",
"136 153 CURVE SMOOTH",
"136 32 OFFCURVE",
"221 -39 OFFCURVE",
"325 -39 CURVE SMOOTH"
);
}
);
width = 701;
}
);
note = O;
unicode = 004F;
},
{
glyphname = Oslash;
lastChange = "2022-01-10 21:39:40 +0000";
layers = (
{
background = {
paths = (
{
closed = 1;
nodes = (
"239 -46 OFFCURVE",
"282 -35 OFFCURVE",
"324 -12 CURVE SMOOTH",
"404 31 OFFCURVE",
"483 102 OFFCURVE",
"531 163 CURVE SMOOTH",
"599 249 OFFCURVE",
"682 369 OFFCURVE",
"682 517 CURVE SMOOTH",
"682 623 OFFCURVE",
"631 658 OFFCURVE",
"594 658 CURVE SMOOTH",
"587 658 OFFCURVE",
"581 657 OFFCURVE",
"576 655 CURVE SMOOTH",
"571 653 OFFCURVE",
"568 649 OFFCURVE",
"568 647 CURVE SMOOTH",
"568 645 OFFCURVE",
"569 644 OFFCURVE",
"571 644 CURVE SMOOTH",
"572 644 OFFCURVE",
"573 645 OFFCURVE",
"574 645 CURVE SMOOTH",
"577 646 OFFCURVE",
"580 647 OFFCURVE",
"584 647 CURVE SMOOTH",
"608 647 OFFCURVE",
"642 618 OFFCURVE",
"642 506 CURVE SMOOTH",
"642 370 OFFCURVE",
"587 261 OFFCURVE",
"527 187 CURVE SMOOTH",
"464 108 OFFCURVE",
"379 57 OFFCURVE",
"300 29 CURVE SMOOTH",
"247 10 OFFCURVE",
"201 2 OFFCURVE",
"163 2 CURVE SMOOTH",
"77 2 OFFCURVE",
"32 46 OFFCURVE",
"32 116 CURVE SMOOTH",
"32 168 OFFCURVE",
"57 233 OFFCURVE",
"109 305 CURVE SMOOTH",
"192 419 OFFCURVE",
"373 526 OFFCURVE",
"463 526 CURVE SMOOTH",
"495 526 OFFCURVE",
"515 513 OFFCURVE",
"515 481 CURVE SMOOTH",
"515 473 OFFCURVE",
"513 463 OFFCURVE",
"510 451 CURVE SMOOTH",
"508 445 OFFCURVE",
"510 440 OFFCURVE",
"513 440 CURVE SMOOTH",
"515 440 OFFCURVE",
"517 442 OFFCURVE",
"518 446 CURVE SMOOTH",
"522 458 OFFCURVE",
"529 485 OFFCURVE",
"529 511 CURVE SMOOTH",
"529 586 OFFCURVE",
"480 615 OFFCURVE",
"424 615 CURVE SMOOTH",
"402 615 OFFCURVE",
"379 611 OFFCURVE",
"357 603 CURVE SMOOTH",
"277 576 OFFCURVE",
"158 481 OFFCURVE",
"83 361 CURVE SMOOTH",
"32 279 OFFCURVE",
"10 206 OFFCURVE",
"10 146 CURVE SMOOTH",
"10 25 OFFCURVE",
"95 -46 OFFCURVE",
"199 -46 CURVE SMOOTH"
);
}
);
};
layerId = "F2190ACF-0345-4BD7-9FAD-2D95E96981D2";
paths = (
{
closed = 1;
nodes = (
"239 -39 OFFCURVE",
"282 -28 OFFCURVE",
"324 -5 CURVE SMOOTH",
"404 38 OFFCURVE",
"483 109 OFFCURVE",
"531 170 CURVE SMOOTH",
"599 256 OFFCURVE",
"682 376 OFFCURVE",
"682 524 CURVE SMOOTH",
"682 630 OFFCURVE",
"631 665 OFFCURVE",
"594 665 CURVE SMOOTH",
"587 665 OFFCURVE",
"581 664 OFFCURVE",
"576 662 CURVE SMOOTH",
"571 660 OFFCURVE",
"568 656 OFFCURVE",
"568 654 CURVE SMOOTH",
"568 652 OFFCURVE",
"569 651 OFFCURVE",
"571 651 CURVE SMOOTH",
"572 651 OFFCURVE",
"573 652 OFFCURVE",
"574 652 CURVE SMOOTH",
"577 653 OFFCURVE",
"580 654 OFFCURVE",
"584 654 CURVE SMOOTH",
"608 654 OFFCURVE",
"642 625 OFFCURVE",
"642 513 CURVE SMOOTH",
"642 377 OFFCURVE",
"587 268 OFFCURVE",
"527 194 CURVE SMOOTH",
"464 115 OFFCURVE",
"379 64 OFFCURVE",
"300 36 CURVE SMOOTH",
"247 17 OFFCURVE",
"201 9 OFFCURVE",
"163 9 CURVE SMOOTH",
"77 9 OFFCURVE",
"32 53 OFFCURVE",
"32 123 CURVE SMOOTH",
"32 175 OFFCURVE",
"57 240 OFFCURVE",
"109 312 CURVE SMOOTH",
"192 426 OFFCURVE",
"373 533 OFFCURVE",
"463 533 CURVE SMOOTH",
"495 533 OFFCURVE",
"515 520 OFFCURVE",
"515 488 CURVE SMOOTH",
"515 480 OFFCURVE",
"513 470 OFFCURVE",
"510 458 CURVE SMOOTH",
"508 452 OFFCURVE",
"510 447 OFFCURVE",
"513 447 CURVE SMOOTH",
"515 447 OFFCURVE",
"517 449 OFFCURVE",
"518 453 CURVE SMOOTH",
"522 465 OFFCURVE",
"529 492 OFFCURVE",
"529 518 CURVE SMOOTH",
"529 593 OFFCURVE",
"480 622 OFFCURVE",
"424 622 CURVE SMOOTH",
"402 622 OFFCURVE",
"379 618 OFFCURVE",
"357 610 CURVE SMOOTH",
"277 583 OFFCURVE",
"158 488 OFFCURVE",
"83 368 CURVE SMOOTH",
"32 286 OFFCURVE",
"10 213 OFFCURVE",
"10 153 CURVE SMOOTH",
"10 32 OFFCURVE",
"95 -39 OFFCURVE",
"199 -39 CURVE SMOOTH"
);
}
);
width = 600;
}
);
note = Oslash;
unicode = 00D8;
},
{
glyphname = OE;
lastChange = "2022-01-10 21:39:40 +0000";
layers = (
{
background = {
paths = (
{
closed = 1;
nodes = (
"784 -51 OFFCURVE",
"824 -46 OFFCURVE",
"867 -37 CURVE SMOOTH",
"1090 10 OFFCURVE",
"1331 182 OFFCURVE",
"1365 278 CURVE SMOOTH",
"1367 284 OFFCURVE",
"1367 287 OFFCURVE",
"1367 289 CURVE SMOOTH",
"1367 291 OFFCURVE",
"1367 292 OFFCURVE",
"1366 292 CURVE SMOOTH",
"1364 292 OFFCURVE",
"1360 288 OFFCURVE",
"1354 280 CURVE SMOOTH",
"1261 145 OFFCURVE",
"1045 37 OFFCURVE",
"856 4 CURVE SMOOTH",
"816 -3 OFFCURVE",
"778 -6 OFFCURVE",
"744 -6 CURVE SMOOTH",
"612 -6 OFFCURVE",
"527 44 OFFCURVE",
"527 128 CURVE SMOOTH",
"527 140 OFFCURVE",
"529 152 OFFCURVE",
"532 165 CURVE",
"565 207 OFFCURVE",
"602 257 OFFCURVE",
"631 315 CURVE",
"638 322 OFFCURVE",
"646 330 OFFCURVE",
"654 337 CURVE SMOOTH",
"787 461 OFFCURVE",
"1074 577 OFFCURVE",
"1214 577 CURVE SMOOTH",
"1263 577 OFFCURVE",
"1294 562 OFFCURVE",
"1294 529 CURVE SMOOTH",
"1294 520 OFFCURVE",
"1291 508 OFFCURVE",
"1285 495 CURVE SMOOTH",
"1282 489 OFFCURVE",
"1283 484 OFFCURVE",
"1286 484 CURVE SMOOTH",
"1288 484 OFFCURVE",
"1290 486 OFFCURVE",
"1293 490 CURVE",
"1301 505 OFFCURVE",
"1313 537 OFFCURVE",
"1313 567 CURVE SMOOTH",
"1313 643 OFFCURVE",
"1239 673 OFFCURVE",
"1154 673 CURVE SMOOTH",
"1121 673 OFFCURVE",
"1085 668 OFFCURVE",
"1050 660 CURVE SMOOTH",
"944 635 OFFCURVE",
"794 558 OFFCURVE",
"677 457 CURVE",
"679 478 OFFCURVE",
"681 499 OFFCURVE",
"681 522 CURVE SMOOTH",
"681 625 OFFCURVE",
"630 658 OFFCURVE",
"594 658 CURVE SMOOTH",
"587 658 OFFCURVE",
"581 657 OFFCURVE",
"576 655 CURVE SMOOTH",
"571 653 OFFCURVE",
"568 649 OFFCURVE",
"568 647 CURVE SMOOTH",
"568 645 OFFCURVE",
"569 644 OFFCURVE",
"571 644 CURVE SMOOTH",
"572 644 OFFCURVE",
"573 645 OFFCURVE",
"574 645 CURVE SMOOTH",
"577 646 OFFCURVE",
"580 646 OFFCURVE",
"583 646 CURVE SMOOTH",
"606 646 OFFCURVE",
"637 623 OFFCURVE",
"641 533 CURVE SMOOTH",
"642 522 OFFCURVE",
"642 512 OFFCURVE",
"642 501 CURVE SMOOTH",
"642 472 OFFCURVE",
"639 444 OFFCURVE",
"634 417 CURVE",
"615 398 LINE SMOOTH",
"535 312 OFFCURVE",
"497 226 OFFCURVE",
"496 152 CURVE",
"438 92 OFFCURVE",
"367 52 OFFCURVE",
"300 29 CURVE SMOOTH",
"247 10 OFFCURVE",
"201 2 OFFCURVE",
"163 2 CURVE SMOOTH",
"77 2 OFFCURVE",
"32 46 OFFCURVE",
"32 116 CURVE SMOOTH",
"32 168 OFFCURVE",
"57 233 OFFCURVE",
"109 305 CURVE SMOOTH",
"192 419 OFFCURVE",
"373 526 OFFCURVE",
"463 526 CURVE SMOOTH",
"495 526 OFFCURVE",
"515 513 OFFCURVE",
"515 481 CURVE SMOOTH",
"515 473 OFFCURVE",
"513 463 OFFCURVE",
"510 451 CURVE SMOOTH",
"508 445 OFFCURVE",
"510 440 OFFCURVE",
"513 440 CURVE SMOOTH",
"515 440 OFFCURVE",
"517 442 OFFCURVE",
"518 446 CURVE SMOOTH",
"522 458 OFFCURVE",
"529 485 OFFCURVE",
"529 511 CURVE SMOOTH",
"529 586 OFFCURVE",
"480 615 OFFCURVE",
"424 615 CURVE SMOOTH",
"402 615 OFFCURVE",
"379 611 OFFCURVE",
"357 603 CURVE SMOOTH",
"277 576 OFFCURVE",
"158 481 OFFCURVE",
"83 361 CURVE SMOOTH",
"32 279 OFFCURVE",
"10 206 OFFCURVE",
"10 146 CURVE SMOOTH",
"10 25 OFFCURVE",
"95 -46 OFFCURVE",
"199 -46 CURVE SMOOTH",
"239 -46 OFFCURVE",
"282 -35 OFFCURVE",
"324 -12 CURVE SMOOTH",
"388 22 OFFCURVE",
"451 74 OFFCURVE",
"498 124 CURVE",
"510 21 OFFCURVE",
"599 -51 OFFCURVE",
"748 -51 CURVE SMOOTH"
);
},
{
closed = 1;
nodes = (
"708 277 OFFCURVE",
"738 289 OFFCURVE",
"770 296 CURVE SMOOTH",
"822 307 OFFCURVE",
"872 313 OFFCURVE",
"916 313 CURVE SMOOTH",
"966 313 OFFCURVE",
"1008 305 OFFCURVE",
"1032 289 CURVE SMOOTH",
"1038 285 OFFCURVE",
"1043 283 OFFCURVE",
"1046 283 CURVE SMOOTH",
"1051 283 OFFCURVE",
"1054 287 OFFCURVE",
"1054 292 CURVE SMOOTH",
"1054 296 OFFCURVE",
"1052 301 OFFCURVE",
"1048 306 CURVE SMOOTH",
"1014 343 OFFCURVE",
"913 359 OFFCURVE",
"828 359 CURVE SMOOTH",
"797 359 OFFCURVE",
"768 357 OFFCURVE",
"745 353 CURVE SMOOTH",
"673 339 OFFCURVE",
"656 318 OFFCURVE",
"656 302 CURVE SMOOTH",
"656 292 OFFCURVE",
"663 284 OFFCURVE",
"667 282 CURVE SMOOTH",
"672 279 OFFCURVE",
"679 277 OFFCURVE",
"686 277 CURVE SMOOTH"
);
}
);
};
layerId = "F2190ACF-0345-4BD7-9FAD-2D95E96981D2";
paths = (
{
closed = 1;
nodes = (
"784 -44 OFFCURVE",
"824 -39 OFFCURVE",
"867 -30 CURVE SMOOTH",
"1090 17 OFFCURVE",
"1331 189 OFFCURVE",
"1365 285 CURVE SMOOTH",
"1367 291 OFFCURVE",
"1367 294 OFFCURVE",
"1367 296 CURVE SMOOTH",
"1367 298 OFFCURVE",
"1367 299 OFFCURVE",
"1366 299 CURVE SMOOTH",
"1364 299 OFFCURVE",
"1360 295 OFFCURVE",
"1354 287 CURVE SMOOTH",
"1261 152 OFFCURVE",
"1045 44 OFFCURVE",
"856 11 CURVE SMOOTH",
"816 4 OFFCURVE",
"778 1 OFFCURVE",
"744 1 CURVE SMOOTH",
"612 1 OFFCURVE",
"527 51 OFFCURVE",
"527 135 CURVE SMOOTH",
"527 147 OFFCURVE",
"529 159 OFFCURVE",
"532 172 CURVE",
"565 214 OFFCURVE",
"602 264 OFFCURVE",
"631 322 CURVE",
"638 329 OFFCURVE",
"646 337 OFFCURVE",
"654 344 CURVE SMOOTH",
"787 468 OFFCURVE",
"1074 584 OFFCURVE",
"1214 584 CURVE SMOOTH",
"1263 584 OFFCURVE",
"1294 569 OFFCURVE",
"1294 536 CURVE SMOOTH",
"1294 527 OFFCURVE",
"1291 515 OFFCURVE",
"1285 502 CURVE SMOOTH",
"1282 496 OFFCURVE",
"1283 491 OFFCURVE",
"1286 491 CURVE SMOOTH",
"1288 491 OFFCURVE",
"1290 493 OFFCURVE",
"1293 497 CURVE",
"1301 512 OFFCURVE",
"1313 544 OFFCURVE",
"1313 574 CURVE SMOOTH",
"1313 650 OFFCURVE",
"1239 680 OFFCURVE",
"1154 680 CURVE SMOOTH",
"1121 680 OFFCURVE",
"1085 675 OFFCURVE",
"1050 667 CURVE SMOOTH",
"944 642 OFFCURVE",
"794 565 OFFCURVE",
"677 464 CURVE",
"679 485 OFFCURVE",
"681 506 OFFCURVE",
"681 529 CURVE SMOOTH",
"681 632 OFFCURVE",
"630 665 OFFCURVE",
"594 665 CURVE SMOOTH",
"587 665 OFFCURVE",
"581 664 OFFCURVE",
"576 662 CURVE SMOOTH",
"571 660 OFFCURVE",
"568 656 OFFCURVE",
"568 654 CURVE SMOOTH",
"568 652 OFFCURVE",
"569 651 OFFCURVE",
"571 651 CURVE SMOOTH",
"572 651 OFFCURVE",
"573 652 OFFCURVE",
"574 652 CURVE SMOOTH",
"577 653 OFFCURVE",
"580 653 OFFCURVE",
"583 653 CURVE SMOOTH",
"606 653 OFFCURVE",
"637 630 OFFCURVE",
"641 540 CURVE SMOOTH",
"642 529 OFFCURVE",
"642 519 OFFCURVE",
"642 508 CURVE SMOOTH",
"642 479 OFFCURVE",
"639 451 OFFCURVE",
"634 424 CURVE",
"615 405 LINE SMOOTH",
"535 319 OFFCURVE",
"497 233 OFFCURVE",
"496 159 CURVE",
"438 99 OFFCURVE",
"367 59 OFFCURVE",
"300 36 CURVE SMOOTH",
"247 17 OFFCURVE",
"201 9 OFFCURVE",
"163 9 CURVE SMOOTH",
"77 9 OFFCURVE",
"32 53 OFFCURVE",
"32 123 CURVE SMOOTH",
"32 175 OFFCURVE",
"57 240 OFFCURVE",
"109 312 CURVE SMOOTH",
"192 426 OFFCURVE",
"373 533 OFFCURVE",
"463 533 CURVE SMOOTH",
"495 533 OFFCURVE",
"515 520 OFFCURVE",
"515 488 CURVE SMOOTH",
"515 480 OFFCURVE",
"513 470 OFFCURVE",
"510 458 CURVE SMOOTH",
"508 452 OFFCURVE",
"510 447 OFFCURVE",
"513 447 CURVE SMOOTH",
"515 447 OFFCURVE",
"517 449 OFFCURVE",
"518 453 CURVE SMOOTH",
"522 465 OFFCURVE",
"529 492 OFFCURVE",
"529 518 CURVE SMOOTH",
"529 593 OFFCURVE",
"480 622 OFFCURVE",
"424 622 CURVE SMOOTH",
"402 622 OFFCURVE",
"379 618 OFFCURVE",
"357 610 CURVE SMOOTH",
"277 583 OFFCURVE",
"158 488 OFFCURVE",
"83 368 CURVE SMOOTH",
"32 286 OFFCURVE",
"10 213 OFFCURVE",
"10 153 CURVE SMOOTH",
"10 32 OFFCURVE",
"95 -39 OFFCURVE",
"199 -39 CURVE SMOOTH",
"239 -39 OFFCURVE",
"282 -28 OFFCURVE",
"324 -5 CURVE SMOOTH",
"388 29 OFFCURVE",
"451 81 OFFCURVE",
"498 131 CURVE",
"510 28 OFFCURVE",
"599 -44 OFFCURVE",
"748 -44 CURVE SMOOTH"
);
},
{
closed = 1;
nodes = (
"708 284 OFFCURVE",
"738 296 OFFCURVE",
"770 303 CURVE SMOOTH",
"822 314 OFFCURVE",
"872 320 OFFCURVE",
"916 320 CURVE SMOOTH",
"966 320 OFFCURVE",
"1008 312 OFFCURVE",
"1032 296 CURVE SMOOTH",
"1038 292 OFFCURVE",
"1043 290 OFFCURVE",
"1046 290 CURVE SMOOTH",
"1051 290 OFFCURVE",
"1054 294 OFFCURVE",
"1054 299 CURVE SMOOTH",
"1054 303 OFFCURVE",
"1052 308 OFFCURVE",
"1048 313 CURVE SMOOTH",
"1014 350 OFFCURVE",
"913 366 OFFCURVE",
"828 366 CURVE SMOOTH",
"797 366 OFFCURVE",
"768 364 OFFCURVE",
"745 360 CURVE SMOOTH",
"673 346 OFFCURVE",
"656 325 OFFCURVE",
"656 309 CURVE SMOOTH",
"656 299 OFFCURVE",
"663 291 OFFCURVE",
"667 289 CURVE SMOOTH",
"672 286 OFFCURVE",
"679 284 OFFCURVE",
"686 284 CURVE SMOOTH"
);
}
);
width = 1364;
}
);
note = OE;
unicode = 0152;
},
{
glyphname = P;
lastChange = "2022-01-10 21:39:40 +0000";
layers = (
{
background = {
paths = (
{
closed = 1;
nodes = (
"-1 -33 OFFCURVE",
"9 -26 OFFCURVE",
"12 -17 CURVE SMOOTH",
"30 29 OFFCURVE",
"74 100 OFFCURVE",
"125 174 CURVE",
"137 173 OFFCURVE",
"149 172 OFFCURVE",
"162 172 CURVE SMOOTH",
"303 172 OFFCURVE",
"486 245 OFFCURVE",
"568 292 CURVE SMOOTH",
"671 352 OFFCURVE",
"726 442 OFFCURVE",
"726 518 CURVE SMOOTH",
"726 600 OFFCURVE",
"663 667 OFFCURVE",
"525 667 CURVE SMOOTH",
"511 667 OFFCURVE",
"496 666 OFFCURVE",
"480 665 CURVE SMOOTH",
"314 649 OFFCURVE",
"90 584 OFFCURVE",
"38 509 CURVE",
"36 505 OFFCURVE",
"34 500 OFFCURVE",
"34 493 CURVE SMOOTH",
"34 476 OFFCURVE",
"44 451 OFFCURVE",
"66 438 CURVE SMOOTH",
"70 435 OFFCURVE",
"75 434 OFFCURVE",
"75 437 CURVE SMOOTH",
"75 438 OFFCURVE",
"75 440 OFFCURVE",
"73 443 CURVE SMOOTH",
"69 450 OFFCURVE",
"74 458 OFFCURVE",
"84 466 CURVE SMOOTH",
"153 524 OFFCURVE",
"343 578 OFFCURVE",
"459 592 CURVE SMOOTH",
"477 594 OFFCURVE",
"493 595 OFFCURVE",
"509 595 CURVE SMOOTH",
"617 595 OFFCURVE",
"677 547 OFFCURVE",
"677 482 CURVE SMOOTH",
"677 431 OFFCURVE",
"640 371 OFFCURVE",
"559 316 CURVE SMOOTH",
"482 264 OFFCURVE",
"277 183 OFFCURVE",
"137 190 CURVE",
"240 339 OFFCURVE",
"366 495 OFFCURVE",
"366 495 CURVE",
"366 503 OFFCURVE",
"360 516 OFFCURVE",
"351 516 CURVE SMOOTH",
"333 516 OFFCURVE",
"203 346 OFFCURVE",
"102 195 CURVE",
"76 199 OFFCURVE",
"53 209 OFFCURVE",
"35 223 CURVE SMOOTH",
"18 236 OFFCURVE",
"11 253 OFFCURVE",
"11 269 CURVE SMOOTH",
"11 278 OFFCURVE",
"13 286 OFFCURVE",
"18 293 CURVE SMOOTH",
"22 297 OFFCURVE",
"23 301 OFFCURVE",
"23 304 CURVE SMOOTH",
"23 306 OFFCURVE",
"22 307 OFFCURVE",
"21 307 CURVE SMOOTH",
"19 307 OFFCURVE",
"17 306 OFFCURVE",
"14 303 CURVE SMOOTH",
"2 292 OFFCURVE",
"-4 278 OFFCURVE",
"-4 264 CURVE SMOOTH",
"-4 245 OFFCURVE",
"7 225 OFFCURVE",
"26 210 CURVE SMOOTH",
"44 196 OFFCURVE",
"67 186 OFFCURVE",
"92 180 CURVE",
"38 97 OFFCURVE",
"-5 22 OFFCURVE",
"-14 -14 CURVE SMOOTH",
"-15 -18 OFFCURVE",
"-16 -21 OFFCURVE",
"-16 -24 CURVE SMOOTH",
"-16 -30 OFFCURVE",
"-12 -33 OFFCURVE",
"-8 -33 CURVE SMOOTH"
);
}
);
};
layerId = "F2190ACF-0345-4BD7-9FAD-2D95E96981D2";
paths = (
{
closed = 1;
nodes = (
"-1 -26 OFFCURVE",
"9 -19 OFFCURVE",
"12 -10 CURVE SMOOTH",
"30 36 OFFCURVE",
"74 107 OFFCURVE",
"125 181 CURVE",
"137 180 OFFCURVE",
"149 179 OFFCURVE",
"162 179 CURVE SMOOTH",
"303 179 OFFCURVE",
"486 252 OFFCURVE",
"568 299 CURVE SMOOTH",
"671 359 OFFCURVE",
"726 449 OFFCURVE",
"726 525 CURVE SMOOTH",
"726 607 OFFCURVE",
"663 674 OFFCURVE",
"525 674 CURVE SMOOTH",
"511 674 OFFCURVE",
"496 673 OFFCURVE",
"480 672 CURVE SMOOTH",
"314 656 OFFCURVE",
"90 591 OFFCURVE",
"38 516 CURVE",
"36 512 OFFCURVE",
"34 507 OFFCURVE",
"34 500 CURVE SMOOTH",
"34 483 OFFCURVE",
"44 458 OFFCURVE",
"66 445 CURVE SMOOTH",
"70 442 OFFCURVE",
"75 441 OFFCURVE",
"75 444 CURVE SMOOTH",
"75 445 OFFCURVE",
"75 447 OFFCURVE",
"73 450 CURVE SMOOTH",
"69 457 OFFCURVE",
"74 465 OFFCURVE",
"84 473 CURVE SMOOTH",
"153 531 OFFCURVE",
"343 585 OFFCURVE",
"459 599 CURVE SMOOTH",
"477 601 OFFCURVE",
"493 602 OFFCURVE",
"509 602 CURVE SMOOTH",
"617 602 OFFCURVE",
"677 554 OFFCURVE",
"677 489 CURVE SMOOTH",
"677 438 OFFCURVE",
"640 378 OFFCURVE",
"559 323 CURVE SMOOTH",
"482 271 OFFCURVE",
"277 190 OFFCURVE",
"137 197 CURVE",
"240 346 OFFCURVE",
"366 502 OFFCURVE",
"366 502 CURVE",
"366 510 OFFCURVE",
"360 523 OFFCURVE",
"351 523 CURVE SMOOTH",
"333 523 OFFCURVE",
"203 353 OFFCURVE",
"102 202 CURVE",
"76 206 OFFCURVE",
"53 216 OFFCURVE",
"35 230 CURVE SMOOTH",
"18 243 OFFCURVE",
"11 260 OFFCURVE",
"11 276 CURVE SMOOTH",
"11 285 OFFCURVE",
"13 293 OFFCURVE",
"18 300 CURVE SMOOTH",
"22 304 OFFCURVE",
"23 308 OFFCURVE",
"23 311 CURVE SMOOTH",
"23 313 OFFCURVE",
"22 314 OFFCURVE",
"21 314 CURVE SMOOTH",
"19 314 OFFCURVE",
"17 313 OFFCURVE",
"14 310 CURVE SMOOTH",
"2 299 OFFCURVE",
"-4 285 OFFCURVE",
"-4 271 CURVE SMOOTH",
"-4 252 OFFCURVE",
"7 232 OFFCURVE",
"26 217 CURVE SMOOTH",
"44 203 OFFCURVE",
"67 193 OFFCURVE",
"92 187 CURVE",
"38 104 OFFCURVE",
"-5 29 OFFCURVE",
"-14 -7 CURVE SMOOTH",
"-15 -11 OFFCURVE",
"-16 -14 OFFCURVE",
"-16 -17 CURVE SMOOTH",
"-16 -23 OFFCURVE",
"-12 -26 OFFCURVE",
"-8 -26 CURVE SMOOTH"
);
}
);
width = 539;
}
);
note = P;
unicode = 0050;
},
{
glyphname = Thorn;
lastChange = "2022-01-10 21:39:40 +0000";
layers = (
{
background = {
paths = (
{
closed = 1;
nodes = (
"-1 -236 OFFCURVE",
"9 -228 OFFCURVE",
"12 -219 CURVE SMOOTH",
"30 -173 OFFCURVE",
"74 -103 OFFCURVE",
"125 -28 CURVE",
"138 -29 OFFCURVE",
"151 -30 OFFCURVE",
"164 -30 CURVE SMOOTH",
"305 -30 OFFCURVE",
"487 42 OFFCURVE",
"568 90 CURVE SMOOTH",
"671 150 OFFCURVE",
"726 239 OFFCURVE",
"726 315 CURVE SMOOTH",
"726 397 OFFCURVE",
"663 464 OFFCURVE",
"525 464 CURVE SMOOTH",
"511 464 OFFCURVE",
"496 463 OFFCURVE",
"480 462 CURVE SMOOTH",
"466 461 OFFCURVE",
"451 459 OFFCURVE",
"436 457 CURVE",
"474 516 OFFCURVE",
"509 569 OFFCURVE",
"539 613 CURVE",
"540 620 OFFCURVE",
"533 635 OFFCURVE",
"527 635 CURVE SMOOTH",
"526 635 OFFCURVE",
"525 634 OFFCURVE",
"524 633 CURVE SMOOTH",
"484 579 OFFCURVE",
"442 516 OFFCURVE",
"399 451 CURVE",
"248 426 OFFCURVE",
"82 370 OFFCURVE",
"38 306 CURVE",
"36 302 OFFCURVE",
"34 297 OFFCURVE",
"34 290 CURVE SMOOTH",
"34 273 OFFCURVE",
"44 249 OFFCURVE",
"66 235 CURVE SMOOTH",
"70 232 OFFCURVE",
"75 231 OFFCURVE",
"75 235 CURVE SMOOTH",
"75 236 OFFCURVE",
"75 238 OFFCURVE",
"73 241 CURVE SMOOTH",
"69 247 OFFCURVE",
"74 255 OFFCURVE",
"84 263 CURVE SMOOTH",
"133 305 OFFCURVE",
"243 344 OFFCURVE",
"344 368 CURVE",
"252 226 OFFCURVE",
"163 83 OFFCURVE",
"102 -8 CURVE",
"76 -3 OFFCURVE",
"53 6 OFFCURVE",
"35 20 CURVE SMOOTH",
"18 33 OFFCURVE",
"11 50 OFFCURVE",
"11 66 CURVE SMOOTH",
"11 75 OFFCURVE",
"13 83 OFFCURVE",
"18 90 CURVE SMOOTH",
"21 94 OFFCURVE",
"23 98 OFFCURVE",
"23 100 CURVE SMOOTH",
"23 103 OFFCURVE",
"22 104 OFFCURVE",
"20 104 CURVE SMOOTH",
"19 104 OFFCURVE",
"17 103 OFFCURVE",
"14 101 CURVE SMOOTH",
"2 90 OFFCURVE",
"-4 76 OFFCURVE",
"-4 62 CURVE SMOOTH",
"-4 43 OFFCURVE",
"7 23 OFFCURVE",
"26 8 CURVE SMOOTH",
"44 -7 OFFCURVE",
"67 -17 OFFCURVE",
"92 -23 CURVE",
"38 -105 OFFCURVE",
"-5 -180 OFFCURVE",
"-14 -217 CURVE SMOOTH",
"-15 -221 OFFCURVE",
"-16 -224 OFFCURVE",
"-16 -227 CURVE SMOOTH",
"-16 -233 OFFCURVE",
"-12 -236 OFFCURVE",
"-8 -236 CURVE SMOOTH"
);
},
{
closed = 1;
nodes = (
"201 79 OFFCURVE",
"296 234 OFFCURVE",
"386 377 CURVE",
"412 383 OFFCURVE",
"437 387 OFFCURVE",
"459 389 CURVE SMOOTH",
"477 391 OFFCURVE",
"493 392 OFFCURVE",
"509 392 CURVE SMOOTH",
"617 392 OFFCURVE",
"677 344 OFFCURVE",
"677 279 CURVE SMOOTH",
"677 229 OFFCURVE",
"640 168 OFFCURVE",
"559 113 CURVE SMOOTH",
"482 61 OFFCURVE",
"277 -20 OFFCURVE",
"137 -12 CURVE"
);
}
);
};
layerId = "F2190ACF-0345-4BD7-9FAD-2D95E96981D2";
paths = (
{
closed = 1;
nodes = (
"-1 -229 OFFCURVE",
"9 -221 OFFCURVE",
"12 -212 CURVE SMOOTH",
"30 -166 OFFCURVE",
"74 -96 OFFCURVE",
"125 -21 CURVE",
"138 -22 OFFCURVE",
"151 -23 OFFCURVE",
"164 -23 CURVE SMOOTH",
"305 -23 OFFCURVE",
"487 49 OFFCURVE",
"568 97 CURVE SMOOTH",
"671 157 OFFCURVE",
"726 246 OFFCURVE",
"726 322 CURVE SMOOTH",
"726 404 OFFCURVE",
"663 471 OFFCURVE",
"525 471 CURVE SMOOTH",
"511 471 OFFCURVE",
"496 470 OFFCURVE",
"480 469 CURVE SMOOTH",
"466 468 OFFCURVE",
"451 466 OFFCURVE",
"436 464 CURVE",
"474 523 OFFCURVE",
"509 576 OFFCURVE",
"539 620 CURVE",
"540 627 OFFCURVE",
"533 642 OFFCURVE",
"527 642 CURVE SMOOTH",
"526 642 OFFCURVE",
"525 641 OFFCURVE",
"524 640 CURVE SMOOTH",
"484 586 OFFCURVE",
"442 523 OFFCURVE",
"399 458 CURVE",
"248 433 OFFCURVE",
"82 377 OFFCURVE",
"38 313 CURVE",
"36 309 OFFCURVE",
"34 304 OFFCURVE",
"34 297 CURVE SMOOTH",
"34 280 OFFCURVE",
"44 256 OFFCURVE",
"66 242 CURVE SMOOTH",
"70 239 OFFCURVE",
"75 238 OFFCURVE",
"75 242 CURVE SMOOTH",
"75 243 OFFCURVE",
"75 245 OFFCURVE",
"73 248 CURVE SMOOTH",
"69 254 OFFCURVE",
"74 262 OFFCURVE",
"84 270 CURVE SMOOTH",
"133 312 OFFCURVE",
"243 351 OFFCURVE",
"344 375 CURVE",
"252 233 OFFCURVE",
"163 90 OFFCURVE",
"102 -1 CURVE",
"76 4 OFFCURVE",
"53 13 OFFCURVE",
"35 27 CURVE SMOOTH",
"18 40 OFFCURVE",
"11 57 OFFCURVE",
"11 73 CURVE SMOOTH",
"11 82 OFFCURVE",
"13 90 OFFCURVE",
"18 97 CURVE SMOOTH",
"21 101 OFFCURVE",
"23 105 OFFCURVE",
"23 107 CURVE SMOOTH",
"23 110 OFFCURVE",
"22 111 OFFCURVE",
"20 111 CURVE SMOOTH",
"19 111 OFFCURVE",
"17 110 OFFCURVE",
"14 108 CURVE SMOOTH",
"2 97 OFFCURVE",
"-4 83 OFFCURVE",
"-4 69 CURVE SMOOTH",
"-4 50 OFFCURVE",
"7 30 OFFCURVE",
"26 15 CURVE SMOOTH",
"44 0 OFFCURVE",
"67 -10 OFFCURVE",
"92 -16 CURVE",
"38 -98 OFFCURVE",
"-5 -173 OFFCURVE",
"-14 -210 CURVE SMOOTH",
"-15 -214 OFFCURVE",
"-16 -217 OFFCURVE",
"-16 -220 CURVE SMOOTH",
"-16 -226 OFFCURVE",
"-12 -229 OFFCURVE",
"-8 -229 CURVE SMOOTH"
);
},
{
closed = 1;
nodes = (
"201 86 OFFCURVE",
"296 241 OFFCURVE",
"386 384 CURVE",
"412 390 OFFCURVE",
"437 394 OFFCURVE",
"459 396 CURVE SMOOTH",
"477 398 OFFCURVE",
"493 399 OFFCURVE",
"509 399 CURVE SMOOTH",
"617 399 OFFCURVE",
"677 351 OFFCURVE",
"677 286 CURVE SMOOTH",
"677 236 OFFCURVE",
"640 175 OFFCURVE",
"559 120 CURVE SMOOTH",
"482 68 OFFCURVE",
"277 -13 OFFCURVE",
"137 -5 CURVE"
);
}
);
width = 539;
}
);
note = Thorn;
unicode = 00DE;
},
{
glyphname = Q;
lastChange = "2022-01-10 21:39:40 +0000";
layers = (
{
background = {
paths = (
{
closed = 1;
nodes = (
"652 -234 OFFCURVE",
"656 -230 OFFCURVE",
"658 -222 CURVE SMOOTH",
"660 -213 OFFCURVE",
"662 -204 OFFCURVE",
"662 -196 CURVE SMOOTH",
"662 -91 OFFCURVE",
"459 -58 OFFCURVE",
"294 -58 CURVE SMOOTH",
"230 -58 OFFCURVE",
"172 -63 OFFCURVE",
"133 -70 CURVE SMOOTH",
"125 -71 LINE",
"100 -69 OFFCURVE",
"70 -42 OFFCURVE",
"74 48 CURVE SMOOTH",
"86 291 OFFCURVE",
"232 514 OFFCURVE",
"475 595 CURVE SMOOTH",
"530 614 OFFCURVE",
"576 622 OFFCURVE",
"614 622 CURVE SMOOTH",
"694 622 OFFCURVE",
"734 584 OFFCURVE",
"734 524 CURVE SMOOTH",
"734 470 OFFCURVE",
"702 399 OFFCURVE",
"636 320 CURVE SMOOTH",
"539 204 OFFCURVE",
"323 83 OFFCURVE",
"225 83 CURVE SMOOTH",
"194 83 OFFCURVE",
"175 95 OFFCURVE",
"175 123 CURVE SMOOTH",
"175 133 OFFCURVE",
"178 146 OFFCURVE",
"184 162 CURVE SMOOTH",
"187 168 OFFCURVE",
"185 174 OFFCURVE",
"182 174 CURVE SMOOTH",
"180 174 OFFCURVE",
"178 172 OFFCURVE",
"176 167 CURVE SMOOTH",
"168 150 OFFCURVE",
"155 112 OFFCURVE",
"155 78 CURVE SMOOTH",
"155 11 OFFCURVE",
"201 -16 OFFCURVE",
"257 -16 CURVE SMOOTH",
"281 -16 OFFCURVE",
"306 -11 OFFCURVE",
"331 -3 CURVE SMOOTH",
"421 26 OFFCURVE",
"568 143 OFFCURVE",
"656 264 CURVE SMOOTH",
"725 358 OFFCURVE",
"753 439 OFFCURVE",
"753 504 CURVE SMOOTH",
"753 609 OFFCURVE",
"680 670 OFFCURVE",
"583 670 CURVE SMOOTH",
"543 670 OFFCURVE",
"499 659 OFFCURVE",
"455 637 CURVE SMOOTH",
"246 531 OFFCURVE",
"39 271 OFFCURVE",
"27 45 CURVE SMOOTH",
"24 -32 OFFCURVE",
"55 -67 OFFCURVE",
"89 -79 CURVE",
"-36 -111 OFFCURVE",
"-66 -158 OFFCURVE",
"-66 -185 CURVE SMOOTH",
"-66 -193 OFFCURVE",
"-62 -200 OFFCURVE",
"-58 -202 CURVE SMOOTH",
"-52 -206 OFFCURVE",
"-44 -207 OFFCURVE",
"-34 -207 CURVE SMOOTH",
"12 -207 OFFCURVE",
"96 -172 OFFCURVE",
"160 -159 CURVE SMOOTH",
"221 -146 OFFCURVE",
"293 -140 OFFCURVE",
"362 -140 CURVE SMOOTH",
"510 -140 OFFCURVE",
"647 -167 OFFCURVE",
"647 -214 CURVE SMOOTH",
"647 -217 OFFCURVE",
"646 -221 OFFCURVE",
"645 -224 CURVE SMOOTH",
"643 -230 OFFCURVE",
"645 -234 OFFCURVE",
"648 -234 CURVE SMOOTH"
);
}
);
};
layerId = "F2190ACF-0345-4BD7-9FAD-2D95E96981D2";
paths = (
{
closed = 1;
nodes = (
"652 -227 OFFCURVE",
"656 -223 OFFCURVE",
"658 -215 CURVE SMOOTH",
"660 -206 OFFCURVE",
"662 -197 OFFCURVE",
"662 -189 CURVE SMOOTH",
"662 -84 OFFCURVE",
"459 -51 OFFCURVE",
"294 -51 CURVE SMOOTH",
"230 -51 OFFCURVE",
"172 -56 OFFCURVE",
"133 -63 CURVE SMOOTH",
"125 -64 LINE",
"100 -62 OFFCURVE",
"70 -35 OFFCURVE",
"74 55 CURVE SMOOTH",
"86 298 OFFCURVE",
"232 521 OFFCURVE",
"475 602 CURVE SMOOTH",
"530 621 OFFCURVE",
"576 629 OFFCURVE",
"614 629 CURVE SMOOTH",
"694 629 OFFCURVE",
"734 591 OFFCURVE",
"734 531 CURVE SMOOTH",
"734 477 OFFCURVE",
"702 406 OFFCURVE",
"636 327 CURVE SMOOTH",
"539 211 OFFCURVE",
"323 90 OFFCURVE",
"225 90 CURVE SMOOTH",
"194 90 OFFCURVE",
"175 102 OFFCURVE",
"175 130 CURVE SMOOTH",
"175 140 OFFCURVE",
"178 153 OFFCURVE",
"184 169 CURVE SMOOTH",
"187 175 OFFCURVE",
"185 181 OFFCURVE",
"182 181 CURVE SMOOTH",
"180 181 OFFCURVE",
"178 179 OFFCURVE",
"176 174 CURVE SMOOTH",
"168 157 OFFCURVE",
"155 119 OFFCURVE",
"155 85 CURVE SMOOTH",
"155 18 OFFCURVE",
"201 -9 OFFCURVE",
"257 -9 CURVE SMOOTH",
"281 -9 OFFCURVE",
"306 -4 OFFCURVE",
"331 4 CURVE SMOOTH",
"421 33 OFFCURVE",
"568 150 OFFCURVE",
"656 271 CURVE SMOOTH",
"725 365 OFFCURVE",
"753 446 OFFCURVE",
"753 511 CURVE SMOOTH",
"753 616 OFFCURVE",
"680 677 OFFCURVE",
"583 677 CURVE SMOOTH",
"543 677 OFFCURVE",
"499 666 OFFCURVE",
"455 644 CURVE SMOOTH",
"246 538 OFFCURVE",
"39 278 OFFCURVE",
"27 52 CURVE SMOOTH",
"24 -25 OFFCURVE",
"55 -60 OFFCURVE",
"89 -72 CURVE",
"-36 -104 OFFCURVE",
"-66 -151 OFFCURVE",
"-66 -178 CURVE SMOOTH",
"-66 -186 OFFCURVE",
"-62 -193 OFFCURVE",
"-58 -195 CURVE SMOOTH",
"-52 -199 OFFCURVE",
"-44 -200 OFFCURVE",
"-34 -200 CURVE SMOOTH",
"12 -200 OFFCURVE",
"96 -165 OFFCURVE",
"160 -152 CURVE SMOOTH",
"221 -139 OFFCURVE",
"293 -133 OFFCURVE",
"362 -133 CURVE SMOOTH",
"510 -133 OFFCURVE",
"647 -160 OFFCURVE",
"647 -207 CURVE SMOOTH",
"647 -210 OFFCURVE",
"646 -214 OFFCURVE",
"645 -217 CURVE SMOOTH",
"643 -223 OFFCURVE",
"645 -227 OFFCURVE",
"648 -227 CURVE SMOOTH"
);
}
);
width = 636;
}
);
note = Q;
unicode = 0051;
},
{
glyphname = R;
lastChange = "2022-01-10 21:39:40 +0000";
layers = (
{
background = {
paths = (
{
closed = 1;
nodes = (
"-1 -46 OFFCURVE",
"9 -39 OFFCURVE",
"12 -30 CURVE SMOOTH",
"32 21 OFFCURVE",
"85 103 OFFCURVE",
"143 187 CURVE",
"190 96 OFFCURVE",
"313 -24 OFFCURVE",
"456 -24 CURVE SMOOTH",
"512 -24 OFFCURVE",
"564 -4 OFFCURVE",
"570 43 CURVE SMOOTH",
"571 49 OFFCURVE",
"563 50 OFFCURVE",
"563 45 CURVE",
"559 20 OFFCURVE",
"529 3 OFFCURVE",
"497 3 CURVE SMOOTH",
"413 3 OFFCURVE",
"251 140 OFFCURVE",
"209 246 CURVE",
"219 246 OFFCURVE",
"230 246 OFFCURVE",
"241 247 CURVE SMOOTH",
"341 253 OFFCURVE",
"477 299 OFFCURVE",
"566 351 CURVE SMOOTH",
"671 412 OFFCURVE",
"710 481 OFFCURVE",
"710 536 CURVE SMOOTH",
"710 594 OFFCURVE",
"669 638 OFFCURVE",
"617 649 CURVE SMOOTH",
"598 653 OFFCURVE",
"574 655 OFFCURVE",
"548 655 CURVE SMOOTH",
"382 655 OFFCURVE",
"97 582 OFFCURVE",
"38 495 CURVE",
"35 492 OFFCURVE",
"34 486 OFFCURVE",
"34 479 CURVE SMOOTH",
"34 462 OFFCURVE",
"43 438 OFFCURVE",
"65 425 CURVE SMOOTH",
"68 423 OFFCURVE",
"71 422 OFFCURVE",
"73 422 CURVE SMOOTH",
"74 422 OFFCURVE",
"75 423 OFFCURVE",
"75 424 CURVE SMOOTH",
"75 425 OFFCURVE",
"75 427 OFFCURVE",
"73 430 CURVE SMOOTH",
"69 437 OFFCURVE",
"74 444 OFFCURVE",
"84 453 CURVE SMOOTH",
"164 521 OFFCURVE",
"408 582 OFFCURVE",
"507 582 CURVE SMOOTH",
"624 582 OFFCURVE",
"669 551 OFFCURVE",
"669 510 CURVE SMOOTH",
"669 468 OFFCURVE",
"622 415 OFFCURVE",
"558 371 CURVE SMOOTH",
"472 313 OFFCURVE",
"341 270 OFFCURVE",
"240 264 CURVE SMOOTH",
"204 261 LINE",
"203 263 OFFCURVE",
"203 266 OFFCURVE",
"202 268 CURVE",
"286 383 OFFCURVE",
"366 482 OFFCURVE",
"366 482 CURVE",
"366 490 OFFCURVE",
"360 502 OFFCURVE",
"350 502 CURVE SMOOTH",
"338 502 OFFCURVE",
"267 415 OFFCURVE",
"190 309 CURVE",
"171 312 OFFCURVE",
"125 275 OFFCURVE",
"124 255 CURVE SMOOTH",
"123 246 OFFCURVE",
"125 234 OFFCURVE",
"129 221 CURVE",
"59 119 OFFCURVE",
"-3 17 OFFCURVE",
"-14 -28 CURVE SMOOTH",
"-15 -32 OFFCURVE",
"-16 -35 OFFCURVE",
"-16 -37 CURVE SMOOTH",
"-16 -43 OFFCURVE",
"-12 -46 OFFCURVE",
"-8 -46 CURVE SMOOTH"
);
}
);
};
layerId = "F2190ACF-0345-4BD7-9FAD-2D95E96981D2";
paths = (
{
closed = 1;
nodes = (
"-1 -39 OFFCURVE",
"9 -32 OFFCURVE",
"12 -23 CURVE SMOOTH",
"32 28 OFFCURVE",
"85 110 OFFCURVE",
"143 194 CURVE",
"190 103 OFFCURVE",
"313 -17 OFFCURVE",
"456 -17 CURVE SMOOTH",
"512 -17 OFFCURVE",
"564 3 OFFCURVE",
"570 50 CURVE SMOOTH",
"571 56 OFFCURVE",
"563 57 OFFCURVE",
"563 52 CURVE",
"559 27 OFFCURVE",
"529 10 OFFCURVE",
"497 10 CURVE SMOOTH",
"413 10 OFFCURVE",
"251 147 OFFCURVE",
"209 253 CURVE",
"219 253 OFFCURVE",
"230 253 OFFCURVE",
"241 254 CURVE SMOOTH",
"341 260 OFFCURVE",
"477 306 OFFCURVE",
"566 358 CURVE SMOOTH",
"671 419 OFFCURVE",
"710 488 OFFCURVE",
"710 543 CURVE SMOOTH",
"710 601 OFFCURVE",
"669 645 OFFCURVE",
"617 656 CURVE SMOOTH",
"598 660 OFFCURVE",
"574 662 OFFCURVE",
"548 662 CURVE SMOOTH",
"382 662 OFFCURVE",
"97 589 OFFCURVE",
"38 502 CURVE",
"35 499 OFFCURVE",
"34 493 OFFCURVE",
"34 486 CURVE SMOOTH",
"34 469 OFFCURVE",
"43 445 OFFCURVE",
"65 432 CURVE SMOOTH",
"68 430 OFFCURVE",
"71 429 OFFCURVE",
"73 429 CURVE SMOOTH",
"74 429 OFFCURVE",
"75 430 OFFCURVE",
"75 431 CURVE SMOOTH",
"75 432 OFFCURVE",
"75 434 OFFCURVE",
"73 437 CURVE SMOOTH",
"69 444 OFFCURVE",
"74 451 OFFCURVE",
"84 460 CURVE SMOOTH",
"164 528 OFFCURVE",
"408 589 OFFCURVE",
"507 589 CURVE SMOOTH",
"624 589 OFFCURVE",
"669 558 OFFCURVE",
"669 517 CURVE SMOOTH",
"669 475 OFFCURVE",
"622 422 OFFCURVE",
"558 378 CURVE SMOOTH",
"472 320 OFFCURVE",
"341 277 OFFCURVE",
"240 271 CURVE SMOOTH",
"204 268 LINE",
"203 270 OFFCURVE",
"203 273 OFFCURVE",
"202 275 CURVE",
"286 390 OFFCURVE",
"366 489 OFFCURVE",
"366 489 CURVE",
"366 497 OFFCURVE",
"360 509 OFFCURVE",
"350 509 CURVE SMOOTH",
"338 509 OFFCURVE",
"267 422 OFFCURVE",
"190 316 CURVE",
"171 319 OFFCURVE",
"125 282 OFFCURVE",
"124 262 CURVE SMOOTH",
"123 253 OFFCURVE",
"125 241 OFFCURVE",
"129 228 CURVE",
"59 126 OFFCURVE",
"-3 24 OFFCURVE",
"-14 -21 CURVE SMOOTH",
"-15 -25 OFFCURVE",
"-16 -28 OFFCURVE",
"-16 -30 CURVE SMOOTH",
"-16 -36 OFFCURVE",
"-12 -39 OFFCURVE",
"-8 -39 CURVE SMOOTH"
);
}
);
width = 587;
}
);
note = R;
unicode = 0052;
},
{
glyphname = S;
lastChange = "2022-01-10 21:39:40 +0000";
layers = (
{
background = {
paths = (
{
closed = 1;
nodes = (
"272 -40 OFFCURVE",
"377 -32 OFFCURVE",
"459 9 CURVE SMOOTH",
"520 40 OFFCURVE",
"559 89 OFFCURVE",
"559 137 CURVE SMOOTH",
"559 175 OFFCURVE",
"535 213 OFFCURVE",
"479 241 CURVE SMOOTH",
"416 272 OFFCURVE",
"341 288 OFFCURVE",
"346 331 CURVE SMOOTH",
"351 375 OFFCURVE",
"481 478 OFFCURVE",
"596 540 CURVE SMOOTH",
"616 551 OFFCURVE",
"689 589 OFFCURVE",
"735 589 CURVE SMOOTH",
"749 589 OFFCURVE",
"760 585 OFFCURVE",
"766 576 CURVE",
"726 548 OFFCURVE",
"686 514 OFFCURVE",
"655 477 CURVE SMOOTH",
"628 445 OFFCURVE",
"592 390 OFFCURVE",
"592 342 CURVE SMOOTH",
"592 319 OFFCURVE",
"601 297 OFFCURVE",
"623 280 CURVE",
"615 387 OFFCURVE",
"823 515 OFFCURVE",
"830 574 CURVE SMOOTH",
"836 629 OFFCURVE",
"786 649 OFFCURVE",
"728 649 CURVE SMOOTH",
"584 649 OFFCURVE",
"306 509 OFFCURVE",
"290 371 CURVE SMOOTH",
"280 277 OFFCURVE",
"430 246 OFFCURVE",
"469 222 CURVE SMOOTH",
"496 205 OFFCURVE",
"507 187 OFFCURVE",
"507 169 CURVE SMOOTH",
"507 116 OFFCURVE",
"411 65 OFFCURVE",
"364 52 CURVE SMOOTH",
"324 40 OFFCURVE",
"271 33 OFFCURVE",
"216 33 CURVE SMOOTH",
"130 33 OFFCURVE",
"40 51 OFFCURVE",
"-8 94 CURVE",
"18 -8 OFFCURVE",
"158 -42 OFFCURVE",
"247 -40 CURVE SMOOTH"
);
}
);
};
layerId = "F2190ACF-0345-4BD7-9FAD-2D95E96981D2";
paths = (
{
closed = 1;
nodes = (
"272 -33 OFFCURVE",
"377 -25 OFFCURVE",
"459 16 CURVE SMOOTH",
"520 47 OFFCURVE",
"559 96 OFFCURVE",
"559 144 CURVE SMOOTH",
"559 182 OFFCURVE",
"535 220 OFFCURVE",
"479 248 CURVE SMOOTH",
"416 279 OFFCURVE",
"341 295 OFFCURVE",
"346 338 CURVE SMOOTH",
"351 382 OFFCURVE",
"481 485 OFFCURVE",
"596 547 CURVE SMOOTH",
"616 558 OFFCURVE",
"689 596 OFFCURVE",
"735 596 CURVE SMOOTH",
"749 596 OFFCURVE",
"760 592 OFFCURVE",
"766 583 CURVE",
"726 555 OFFCURVE",
"686 521 OFFCURVE",
"655 484 CURVE SMOOTH",
"628 452 OFFCURVE",
"592 397 OFFCURVE",
"592 349 CURVE SMOOTH",
"592 326 OFFCURVE",
"601 304 OFFCURVE",
"623 287 CURVE",
"615 394 OFFCURVE",
"823 522 OFFCURVE",
"830 581 CURVE SMOOTH",
"836 636 OFFCURVE",
"786 656 OFFCURVE",
"728 656 CURVE SMOOTH",
"584 656 OFFCURVE",
"306 516 OFFCURVE",
"290 378 CURVE SMOOTH",
"280 284 OFFCURVE",
"430 253 OFFCURVE",
"469 229 CURVE SMOOTH",
"496 212 OFFCURVE",
"507 194 OFFCURVE",
"507 176 CURVE SMOOTH",
"507 123 OFFCURVE",
"411 72 OFFCURVE",
"364 59 CURVE SMOOTH",
"324 47 OFFCURVE",
"271 40 OFFCURVE",
"216 40 CURVE SMOOTH",
"130 40 OFFCURVE",
"40 58 OFFCURVE",
"-8 101 CURVE",
"18 -1 OFFCURVE",
"158 -35 OFFCURVE",
"247 -33 CURVE SMOOTH"
);
}
);
width = 590;
}
);
note = S;
unicode = 0053;
},
{
glyphname = Germandbls;
lastChange = "2022-01-10 21:39:40 +0000";
layers = (
{
background = {
paths = (
{
closed = 1;
nodes = (
"-11 -168 OFFCURVE",
"305 446 OFFCURVE",
"424 539 CURVE SMOOTH",
"483 586 OFFCURVE",
"560 619 OFFCURVE",
"619 619 CURVE SMOOTH",
"669 619 OFFCURVE",
"705 595 OFFCURVE",
"705 535 CURVE SMOOTH",
"705 442 OFFCURVE",
"521 395 OFFCURVE",
"451 378 CURVE SMOOTH",
"414 370 OFFCURVE",
"398 352 OFFCURVE",
"398 340 CURVE SMOOTH",
"398 333 OFFCURVE",
"403 328 OFFCURVE",
"412 328 CURVE SMOOTH",
"421 328 OFFCURVE",
"439 329 OFFCURVE",
"451 329 CURVE SMOOTH",
"563 329 OFFCURVE",
"613 282 OFFCURVE",
"613 223 CURVE SMOOTH",
"613 74 OFFCURVE",
"381 -6 OFFCURVE",
"217 -6 CURVE SMOOTH",
"181 -6 OFFCURVE",
"151 -9 OFFCURVE",
"104 7 CURVE",
"100 9 OFFCURVE",
"91 12 OFFCURVE",
"86 12 CURVE SMOOTH",
"85 12 OFFCURVE",
"84 12 OFFCURVE",
"84 11 CURVE SMOOTH",
"84 9 OFFCURVE",
"87 5 OFFCURVE",
"96 -3 CURVE SMOOTH",
"117 -20 OFFCURVE",
"160 -58 OFFCURVE",
"280 -58 CURVE SMOOTH",
"459 -58 OFFCURVE",
"703 53 OFFCURVE",
"703 224 CURVE SMOOTH",
"703 294 OFFCURVE",
"644 350 OFFCURVE",
"505 355 CURVE SMOOTH",
"496 355 OFFCURVE",
"492 357 OFFCURVE",
"492 360 CURVE SMOOTH",
"492 363 OFFCURVE",
"500 367 OFFCURVE",
"516 370 CURVE SMOOTH",
"595 387 OFFCURVE",
"762 461 OFFCURVE",
"762 579 CURVE SMOOTH",
"762 649 OFFCURVE",
"706 680 OFFCURVE",
"634 680 CURVE SMOOTH",
"562 680 OFFCURVE",
"474 648 OFFCURVE",
"415 594 CURVE SMOOTH",
"253 446 OFFCURVE",
"145 220 OFFCURVE",
"34 23 CURVE SMOOTH",
"-7 -50 OFFCURVE",
"-69 -143 OFFCURVE",
"-106 -160 CURVE SMOOTH",
"-114 -164 OFFCURVE",
"-110 -168 OFFCURVE",
"-94 -168 CURVE SMOOTH"
);
}
);
};
layerId = "F2190ACF-0345-4BD7-9FAD-2D95E96981D2";
paths = (
{
closed = 1;
nodes = (
"-11 -161 OFFCURVE",
"305 453 OFFCURVE",
"424 546 CURVE SMOOTH",
"483 593 OFFCURVE",
"560 626 OFFCURVE",
"619 626 CURVE SMOOTH",
"669 626 OFFCURVE",
"705 602 OFFCURVE",
"705 542 CURVE SMOOTH",
"705 449 OFFCURVE",
"521 402 OFFCURVE",
"451 385 CURVE SMOOTH",
"414 377 OFFCURVE",
"398 359 OFFCURVE",
"398 347 CURVE SMOOTH",
"398 340 OFFCURVE",
"403 335 OFFCURVE",
"412 335 CURVE SMOOTH",
"421 335 OFFCURVE",
"439 336 OFFCURVE",
"451 336 CURVE SMOOTH",
"563 336 OFFCURVE",
"613 289 OFFCURVE",
"613 230 CURVE SMOOTH",
"613 81 OFFCURVE",
"381 1 OFFCURVE",
"217 1 CURVE SMOOTH",
"181 1 OFFCURVE",
"151 -2 OFFCURVE",
"104 14 CURVE",
"100 16 OFFCURVE",
"91 19 OFFCURVE",
"86 19 CURVE SMOOTH",
"85 19 OFFCURVE",
"84 19 OFFCURVE",
"84 18 CURVE SMOOTH",
"84 16 OFFCURVE",
"87 12 OFFCURVE",
"96 4 CURVE SMOOTH",
"117 -13 OFFCURVE",
"160 -51 OFFCURVE",
"280 -51 CURVE SMOOTH",
"459 -51 OFFCURVE",
"703 60 OFFCURVE",
"703 231 CURVE SMOOTH",
"703 301 OFFCURVE",
"644 357 OFFCURVE",
"505 362 CURVE SMOOTH",
"496 362 OFFCURVE",
"492 364 OFFCURVE",
"492 367 CURVE SMOOTH",
"492 370 OFFCURVE",
"500 374 OFFCURVE",
"516 377 CURVE SMOOTH",
"595 394 OFFCURVE",
"762 468 OFFCURVE",
"762 586 CURVE SMOOTH",
"762 656 OFFCURVE",
"706 687 OFFCURVE",
"634 687 CURVE SMOOTH",
"562 687 OFFCURVE",
"474 655 OFFCURVE",
"415 601 CURVE SMOOTH",
"253 453 OFFCURVE",
"145 227 OFFCURVE",
"34 30 CURVE SMOOTH",
"-7 -43 OFFCURVE",
"-69 -136 OFFCURVE",
"-106 -153 CURVE SMOOTH",
"-114 -157 OFFCURVE",
"-110 -161 OFFCURVE",
"-94 -161 CURVE SMOOTH"
);
}
);
width = 731;
}
);
unicode = 1E9E;
},
{
glyphname = Schwa;
lastChange = "2022-01-10 21:39:40 +0000";
layers = (
{
background = {
paths = (
{
closed = 1;
nodes = (
"551 6 OFFCURVE",
"856 245 OFFCURVE",
"856 511 CURVE SMOOTH",
"856 657 OFFCURVE",
"718 717 OFFCURVE",
"590 717 CURVE SMOOTH",
"441 717 OFFCURVE",
"234 645 OFFCURVE",
"130 533 CURVE",
"128 530 OFFCURVE",
"126 527 OFFCURVE",
"126 524 CURVE SMOOTH",
"126 522 OFFCURVE",
"127 518 OFFCURVE",
"131 518 CURVE SMOOTH",
"133 518 OFFCURVE",
"134 519 OFFCURVE",
"136 520 CURVE",
"242 606 OFFCURVE",
"335 639 OFFCURVE",
"469 663 CURVE SMOOTH",
"503 668 OFFCURVE",
"538 672 OFFCURVE",
"572 672 CURVE SMOOTH",
"682 672 OFFCURVE",
"828 629 OFFCURVE",
"828 495 CURVE SMOOTH",
"828 450 OFFCURVE",
"812 403 OFFCURVE",
"785 358 CURVE",
"780 389 OFFCURVE",
"685 395 OFFCURVE",
"666 395 CURVE SMOOTH",
"409 395 OFFCURVE",
"12 302 OFFCURVE",
"12 104 CURVE SMOOTH",
"12 29 OFFCURVE",
"104 6 OFFCURVE",
"164 6 CURVE SMOOTH"
);
},
{
closed = 1;
nodes = (
"177 36 OFFCURVE",
"114 44 OFFCURVE",
"114 91 CURVE SMOOTH",
"114 194 OFFCURVE",
"401 353 OFFCURVE",
"737 353 CURVE SMOOTH",
"756 353 OFFCURVE",
"768 346 OFFCURVE",
"775 346 CURVE SMOOTH",
"778 346 LINE",
"671 181 OFFCURVE",
"413 36 OFFCURVE",
"211 36 CURVE SMOOTH"
);
}
);
};
layerId = "F2190ACF-0345-4BD7-9FAD-2D95E96981D2";
paths = (
{
closed = 1;
nodes = (
"551 13 OFFCURVE",
"856 252 OFFCURVE",
"856 518 CURVE SMOOTH",
"856 664 OFFCURVE",
"718 724 OFFCURVE",
"590 724 CURVE SMOOTH",
"441 724 OFFCURVE",
"234 652 OFFCURVE",
"130 540 CURVE",
"128 537 OFFCURVE",
"126 534 OFFCURVE",
"126 531 CURVE SMOOTH",
"126 529 OFFCURVE",
"127 525 OFFCURVE",
"131 525 CURVE SMOOTH",
"133 525 OFFCURVE",
"134 526 OFFCURVE",
"136 527 CURVE",
"242 613 OFFCURVE",
"335 646 OFFCURVE",
"469 670 CURVE SMOOTH",
"503 675 OFFCURVE",
"538 679 OFFCURVE",
"572 679 CURVE SMOOTH",
"682 679 OFFCURVE",
"828 636 OFFCURVE",
"828 502 CURVE SMOOTH",
"828 457 OFFCURVE",
"812 410 OFFCURVE",
"785 365 CURVE",
"780 396 OFFCURVE",
"685 402 OFFCURVE",
"666 402 CURVE SMOOTH",
"409 402 OFFCURVE",
"12 309 OFFCURVE",
"12 111 CURVE SMOOTH",
"12 36 OFFCURVE",
"104 13 OFFCURVE",
"164 13 CURVE SMOOTH"
);
},
{
closed = 1;
nodes = (
"177 43 OFFCURVE",
"114 51 OFFCURVE",
"114 98 CURVE SMOOTH",
"114 201 OFFCURVE",
"401 360 OFFCURVE",
"737 360 CURVE SMOOTH",
"756 360 OFFCURVE",
"768 353 OFFCURVE",
"775 353 CURVE SMOOTH",
"778 353 LINE",
"671 188 OFFCURVE",
"413 43 OFFCURVE",
"211 43 CURVE SMOOTH"
);
}
);
width = 789;
}
);
unicode = 018F;
},
{
glyphname = T;
lastChange = "2022-01-10 21:39:40 +0000";
layers = (
{
background = {
paths = (
{
closed = 1;
nodes = (
"15 416 OFFCURVE",
"16 417 OFFCURVE",
"16 418 CURVE SMOOTH",
"16 419 OFFCURVE",
"15 420 OFFCURVE",
"14 421 CURVE SMOOTH",
"4 430 OFFCURVE",
"-1 439 OFFCURVE",
"-1 448 CURVE SMOOTH",
"-1 522 OFFCURVE",
"344 564 OFFCURVE",
"422 572 CURVE SMOOTH",
"476 577 OFFCURVE",
"541 581 OFFCURVE",
"603 581 CURVE SMOOTH",
"736 581 OFFCURVE",
"860 564 OFFCURVE",
"860 506 CURVE SMOOTH",
"860 496 OFFCURVE",
"856 485 OFFCURVE",
"848 473 CURVE SMOOTH",
"841 462 OFFCURVE",
"838 455 OFFCURVE",
"838 450 CURVE SMOOTH",
"838 446 OFFCURVE",
"840 444 OFFCURVE",
"844 444 CURVE SMOOTH",
"853 444 OFFCURVE",
"872 456 OFFCURVE",
"880 467 CURVE SMOOTH",
"889 479 OFFCURVE",
"893 491 OFFCURVE",
"893 503 CURVE SMOOTH",
"893 564 OFFCURVE",
"787 628 OFFCURVE",
"591 647 CURVE SMOOTH",
"561 650 OFFCURVE",
"529 651 OFFCURVE",
"496 651 CURVE SMOOTH",
"362 651 OFFCURVE",
"204 628 OFFCURVE",
"87 582 CURVE SMOOTH",
"18 555 OFFCURVE",
"-18 505 OFFCURVE",
"-18 464 CURVE SMOOTH",
"-18 447 OFFCURVE",
"-12 432 OFFCURVE",
"0 421 CURVE SMOOTH",
"4 418 OFFCURVE",
"9 416 OFFCURVE",
"13 416 CURVE SMOOTH"
);
},
{
closed = 1;
nodes = (
"308 -90 OFFCURVE",
"329 -84 OFFCURVE",
"340 -74 CURVE SMOOTH",
"344 -71 OFFCURVE",
"346 -68 OFFCURVE",
"346 -66 CURVE SMOOTH",
"346 -65 OFFCURVE",
"346 -64 OFFCURVE",
"344 -64 CURVE SMOOTH",
"343 -64 OFFCURVE",
"341 -65 OFFCURVE",
"338 -67 CURVE SMOOTH",
"330 -73 OFFCURVE",
"320 -77 OFFCURVE",
"310 -77 CURVE SMOOTH",
"276 -77 OFFCURVE",
"265 -47 OFFCURVE",
"265 -9 CURVE SMOOTH",
"265 44 OFFCURVE",
"287 113 OFFCURVE",
"297 141 CURVE SMOOTH",
"329 234 OFFCURVE",
"391 363 OFFCURVE",
"516 549 CURVE SMOOTH",
"519 554 OFFCURVE",
"515 562 OFFCURVE",
"507 562 CURVE SMOOTH",
"502 562 OFFCURVE",
"495 558 OFFCURVE",
"486 547 CURVE SMOOTH",
"304 291 OFFCURVE",
"253 220 OFFCURVE",
"226 145 CURVE SMOOTH",
"212 106 OFFCURVE",
"198 57 OFFCURVE",
"198 13 CURVE SMOOTH",
"198 -39 OFFCURVE",
"219 -83 OFFCURVE",
"288 -88 CURVE SMOOTH"
);
}
);
};
layerId = "F2190ACF-0345-4BD7-9FAD-2D95E96981D2";
paths = (
{
closed = 1;
nodes = (
"15 423 OFFCURVE",
"16 424 OFFCURVE",
"16 425 CURVE SMOOTH",
"16 426 OFFCURVE",
"15 427 OFFCURVE",
"14 428 CURVE SMOOTH",
"4 437 OFFCURVE",
"-1 446 OFFCURVE",
"-1 455 CURVE SMOOTH",
"-1 529 OFFCURVE",
"344 571 OFFCURVE",
"422 579 CURVE SMOOTH",
"476 584 OFFCURVE",
"541 588 OFFCURVE",
"603 588 CURVE SMOOTH",
"736 588 OFFCURVE",
"860 571 OFFCURVE",
"860 513 CURVE SMOOTH",
"860 503 OFFCURVE",
"856 492 OFFCURVE",
"848 480 CURVE SMOOTH",
"841 469 OFFCURVE",
"838 462 OFFCURVE",
"838 457 CURVE SMOOTH",
"838 453 OFFCURVE",
"840 451 OFFCURVE",
"844 451 CURVE SMOOTH",
"853 451 OFFCURVE",
"872 463 OFFCURVE",
"880 474 CURVE SMOOTH",
"889 486 OFFCURVE",
"893 498 OFFCURVE",
"893 510 CURVE SMOOTH",
"893 571 OFFCURVE",
"787 635 OFFCURVE",
"591 654 CURVE SMOOTH",
"561 657 OFFCURVE",
"529 658 OFFCURVE",
"496 658 CURVE SMOOTH",
"362 658 OFFCURVE",
"204 635 OFFCURVE",
"87 589 CURVE SMOOTH",
"18 562 OFFCURVE",
"-18 512 OFFCURVE",
"-18 471 CURVE SMOOTH",
"-18 454 OFFCURVE",
"-12 439 OFFCURVE",
"0 428 CURVE SMOOTH",
"4 425 OFFCURVE",
"9 423 OFFCURVE",
"13 423 CURVE SMOOTH"
);
},
{
closed = 1;
nodes = (
"308 -83 OFFCURVE",
"329 -77 OFFCURVE",
"340 -67 CURVE SMOOTH",
"344 -64 OFFCURVE",
"346 -61 OFFCURVE",
"346 -59 CURVE SMOOTH",
"346 -58 OFFCURVE",
"346 -57 OFFCURVE",
"344 -57 CURVE SMOOTH",
"343 -57 OFFCURVE",
"341 -58 OFFCURVE",
"338 -60 CURVE SMOOTH",
"330 -66 OFFCURVE",
"320 -70 OFFCURVE",
"310 -70 CURVE SMOOTH",
"276 -70 OFFCURVE",
"265 -40 OFFCURVE",
"265 -2 CURVE SMOOTH",
"265 51 OFFCURVE",
"287 120 OFFCURVE",
"297 148 CURVE SMOOTH",
"329 241 OFFCURVE",
"391 370 OFFCURVE",
"516 556 CURVE SMOOTH",
"519 561 OFFCURVE",
"515 569 OFFCURVE",
"507 569 CURVE SMOOTH",
"502 569 OFFCURVE",
"495 565 OFFCURVE",
"486 554 CURVE SMOOTH",
"304 298 OFFCURVE",
"253 227 OFFCURVE",
"226 152 CURVE SMOOTH",
"212 113 OFFCURVE",
"198 64 OFFCURVE",
"198 20 CURVE SMOOTH",
"198 -32 OFFCURVE",
"219 -76 OFFCURVE",
"288 -81 CURVE SMOOTH"
);
}
);
width = 433;
}
);
note = T;
unicode = 0054;
},
{
glyphname = U;
lastChange = "2022-01-10 21:39:40 +0000";
layers = (
{
background = {
paths = (
{
closed = 1;
nodes = (
"554 -125 OFFCURVE",
"576 -113 OFFCURVE",
"585 -105 CURVE SMOOTH",
"591 -101 OFFCURVE",
"591 -97 OFFCURVE",
"588 -97 CURVE SMOOTH",
"587 -97 OFFCURVE",
"585 -97 OFFCURVE",
"583 -99 CURVE SMOOTH",
"577 -105 OFFCURVE",
"568 -108 OFFCURVE",
"559 -108 CURVE SMOOTH",
"552 -107 LINE SMOOTH",
"529 -102 OFFCURVE",
"519 -82 OFFCURVE",
"519 -52 CURVE SMOOTH",
"519 96 OFFCURVE",
"770 490 OFFCURVE",
"839 558 CURVE SMOOTH",
"847 566 OFFCURVE",
"838 573 OFFCURVE",
"822 573 CURVE SMOOTH",
"804 573 OFFCURVE",
"779 564 OFFCURVE",
"759 536 CURVE SMOOTH",
"664 400 OFFCURVE",
"495 85 OFFCURVE",
"336 -3 CURVE SMOOTH",
"313 -16 OFFCURVE",
"294 -22 OFFCURVE",
"279 -22 CURVE SMOOTH",
"249 -22 OFFCURVE",
"236 1 OFFCURVE",
"236 33 CURVE SMOOTH",
"236 49 OFFCURVE",
"239 68 OFFCURVE",
"246 88 CURVE SMOOTH",
"287 211 OFFCURVE",
"446 448 OFFCURVE",
"465 542 CURVE SMOOTH",
"467 551 OFFCURVE",
"468 560 OFFCURVE",
"468 568 CURVE SMOOTH",
"468 644 OFFCURVE",
"388 670 OFFCURVE",
"295 670 CURVE SMOOTH",
"190 670 OFFCURVE",
"67 636 OFFCURVE",
"25 602 CURVE SMOOTH",
"11 591 OFFCURVE",
"5 573 OFFCURVE",
"5 556 CURVE SMOOTH",
"5 534 OFFCURVE",
"15 515 OFFCURVE",
"29 515 CURVE SMOOTH",
"34 515 OFFCURVE",
"39 517 OFFCURVE",
"44 521 CURVE SMOOTH",
"91 559 OFFCURVE",
"228 626 OFFCURVE",
"313 626 CURVE SMOOTH",
"357 626 OFFCURVE",
"387 609 OFFCURVE",
"387 563 CURVE SMOOTH",
"387 462 OFFCURVE",
"219 228 OFFCURVE",
"196 74 CURVE SMOOTH",
"195 68 OFFCURVE",
"195 61 OFFCURVE",
"195 55 CURVE SMOOTH",
"195 3 OFFCURVE",
"227 -42 OFFCURVE",
"280 -42 CURVE SMOOTH",
"296 -42 OFFCURVE",
"313 -38 OFFCURVE",
"332 -29 CURVE SMOOTH",
"387 -2 OFFCURVE",
"454 60 OFFCURVE",
"520 146 CURVE",
"497 104 OFFCURVE",
"452 16 OFFCURVE",
"452 -48 CURVE SMOOTH",
"452 -92 OFFCURVE",
"473 -125 OFFCURVE",
"538 -125 CURVE SMOOTH"
);
}
);
};
layerId = "F2190ACF-0345-4BD7-9FAD-2D95E96981D2";
paths = (
{
closed = 1;
nodes = (
"554 -118 OFFCURVE",
"576 -106 OFFCURVE",
"585 -98 CURVE SMOOTH",
"591 -94 OFFCURVE",
"591 -90 OFFCURVE",
"588 -90 CURVE SMOOTH",
"587 -90 OFFCURVE",
"585 -90 OFFCURVE",
"583 -92 CURVE SMOOTH",
"577 -98 OFFCURVE",
"568 -101 OFFCURVE",
"559 -101 CURVE SMOOTH",
"552 -100 LINE SMOOTH",
"529 -95 OFFCURVE",
"519 -75 OFFCURVE",
"519 -45 CURVE SMOOTH",
"519 103 OFFCURVE",
"770 497 OFFCURVE",
"839 565 CURVE SMOOTH",
"847 573 OFFCURVE",
"838 580 OFFCURVE",
"822 580 CURVE SMOOTH",
"804 580 OFFCURVE",
"779 571 OFFCURVE",
"759 543 CURVE SMOOTH",
"664 407 OFFCURVE",
"495 92 OFFCURVE",
"336 4 CURVE SMOOTH",
"313 -9 OFFCURVE",
"294 -15 OFFCURVE",
"279 -15 CURVE SMOOTH",
"249 -15 OFFCURVE",
"236 8 OFFCURVE",
"236 40 CURVE SMOOTH",
"236 56 OFFCURVE",
"239 75 OFFCURVE",
"246 95 CURVE SMOOTH",
"287 218 OFFCURVE",
"446 455 OFFCURVE",
"465 549 CURVE SMOOTH",
"467 558 OFFCURVE",
"468 567 OFFCURVE",
"468 575 CURVE SMOOTH",
"468 651 OFFCURVE",
"388 677 OFFCURVE",
"295 677 CURVE SMOOTH",
"190 677 OFFCURVE",
"67 643 OFFCURVE",
"25 609 CURVE SMOOTH",
"11 598 OFFCURVE",
"5 580 OFFCURVE",
"5 563 CURVE SMOOTH",
"5 541 OFFCURVE",
"15 522 OFFCURVE",
"29 522 CURVE SMOOTH",
"34 522 OFFCURVE",
"39 524 OFFCURVE",
"44 528 CURVE SMOOTH",
"91 566 OFFCURVE",
"228 633 OFFCURVE",
"313 633 CURVE SMOOTH",
"357 633 OFFCURVE",
"387 616 OFFCURVE",
"387 570 CURVE SMOOTH",
"387 469 OFFCURVE",
"219 235 OFFCURVE",
"196 81 CURVE SMOOTH",
"195 75 OFFCURVE",
"195 68 OFFCURVE",
"195 62 CURVE SMOOTH",
"195 10 OFFCURVE",
"227 -35 OFFCURVE",
"280 -35 CURVE SMOOTH",
"296 -35 OFFCURVE",
"313 -31 OFFCURVE",
"332 -22 CURVE SMOOTH",
"387 5 OFFCURVE",
"454 67 OFFCURVE",
"520 153 CURVE",
"497 111 OFFCURVE",
"452 23 OFFCURVE",
"452 -41 CURVE SMOOTH",
"452 -85 OFFCURVE",
"473 -118 OFFCURVE",
"538 -118 CURVE SMOOTH"
);
}
);
width = 674;
}
);
note = U;
unicode = 0055;
},
{
glyphname = V;
lastChange = "2022-01-10 21:39:40 +0000";
layers = (
{
background = {
paths = (
{
closed = 1;
nodes = (
"237 -101 OFFCURVE",
"241 -99 OFFCURVE",
"243 -95 CURVE SMOOTH",
"303 15 OFFCURVE",
"738 643 OFFCURVE",
"949 628 CURVE SMOOTH",
"955 627 OFFCURVE",
"964 626 OFFCURVE",
"964 631 CURVE SMOOTH",
"964 633 OFFCURVE",
"963 634 OFFCURVE",
"962 636 CURVE SMOOTH",
"953 648 OFFCURVE",
"938 653 OFFCURVE",
"919 653 CURVE SMOOTH",
"883 653 OFFCURVE",
"835 634 OFFCURVE",
"801 614 CURVE SMOOTH",
"640 519 OFFCURVE",
"440 243 OFFCURVE",
"321 63 CURVE",
"360 206 OFFCURVE",
"378 318 OFFCURVE",
"378 409 CURVE SMOOTH",
"378 459 OFFCURVE",
"372 502 OFFCURVE",
"362 541 CURVE SMOOTH",
"340 623 OFFCURVE",
"292 655 OFFCURVE",
"240 655 CURVE SMOOTH",
"168 655 OFFCURVE",
"86 596 OFFCURVE",
"45 518 CURVE SMOOTH",
"23 475 OFFCURVE",
"11 409 OFFCURVE",
"11 355 CURVE SMOOTH",
"11 324 OFFCURVE",
"15 296 OFFCURVE",
"23 279 CURVE SMOOTH",
"27 269 OFFCURVE",
"32 274 OFFCURVE",
"32 284 CURVE SMOOTH",
"32 286 LINE SMOOTH",
"27 350 OFFCURVE",
"42 421 OFFCURVE",
"69 482 CURVE SMOOTH",
"114 583 OFFCURVE",
"164 629 OFFCURVE",
"205 629 CURVE SMOOTH",
"250 629 OFFCURVE",
"283 572 OFFCURVE",
"283 473 CURVE SMOOTH",
"283 463 OFFCURVE",
"283 453 OFFCURVE",
"282 443 CURVE SMOOTH",
"271 250 OFFCURVE",
"201 12 OFFCURVE",
"189 -32 CURVE SMOOTH",
"187 -40 OFFCURVE",
"242 -22 OFFCURVE",
"277 -6 CURVE",
"253 -44 OFFCURVE",
"236 -74 OFFCURVE",
"227 -89 CURVE SMOOTH",
"223 -96 OFFCURVE",
"228 -101 OFFCURVE",
"233 -101 CURVE SMOOTH"
);
}
);
};
layerId = "F2190ACF-0345-4BD7-9FAD-2D95E96981D2";
paths = (
{
closed = 1;
nodes = (
"237 -94 OFFCURVE",
"241 -92 OFFCURVE",
"243 -88 CURVE SMOOTH",
"303 22 OFFCURVE",
"738 650 OFFCURVE",
"949 635 CURVE SMOOTH",
"955 634 OFFCURVE",
"964 633 OFFCURVE",
"964 638 CURVE SMOOTH",
"964 640 OFFCURVE",
"963 641 OFFCURVE",
"962 643 CURVE SMOOTH",
"953 655 OFFCURVE",
"938 660 OFFCURVE",
"919 660 CURVE SMOOTH",
"883 660 OFFCURVE",
"835 641 OFFCURVE",
"801 621 CURVE SMOOTH",
"640 526 OFFCURVE",
"440 250 OFFCURVE",
"321 70 CURVE",
"360 213 OFFCURVE",
"378 325 OFFCURVE",
"378 416 CURVE SMOOTH",
"378 466 OFFCURVE",
"372 509 OFFCURVE",
"362 548 CURVE SMOOTH",
"340 630 OFFCURVE",
"292 662 OFFCURVE",
"240 662 CURVE SMOOTH",
"168 662 OFFCURVE",
"86 603 OFFCURVE",
"45 525 CURVE SMOOTH",
"23 482 OFFCURVE",
"11 416 OFFCURVE",
"11 362 CURVE SMOOTH",
"11 331 OFFCURVE",
"15 303 OFFCURVE",
"23 286 CURVE SMOOTH",
"27 276 OFFCURVE",
"32 281 OFFCURVE",
"32 291 CURVE SMOOTH",
"32 293 LINE SMOOTH",
"27 357 OFFCURVE",
"42 428 OFFCURVE",
"69 489 CURVE SMOOTH",
"114 590 OFFCURVE",
"164 636 OFFCURVE",
"205 636 CURVE SMOOTH",
"250 636 OFFCURVE",
"283 579 OFFCURVE",
"283 480 CURVE SMOOTH",
"283 470 OFFCURVE",
"283 460 OFFCURVE",
"282 450 CURVE SMOOTH",
"271 257 OFFCURVE",
"201 19 OFFCURVE",
"189 -25 CURVE SMOOTH",
"187 -33 OFFCURVE",
"242 -15 OFFCURVE",
"277 1 CURVE",
"253 -37 OFFCURVE",
"236 -67 OFFCURVE",
"227 -82 CURVE SMOOTH",
"223 -89 OFFCURVE",
"228 -94 OFFCURVE",
"233 -94 CURVE SMOOTH"
);
}
);
width = 484;
}
);
note = V;
unicode = 0056;
},
{
glyphname = W;
lastChange = "2022-01-10 21:39:40 +0000";
layers = (
{
background = {
paths = (
{
closed = 1;
nodes = (
"86 -84 OFFCURVE",
"213 -39 OFFCURVE",
"220 -28 CURVE SMOOTH",
"253 27 OFFCURVE",
"284 90 OFFCURVE",
"312 156 CURVE",
"423 325 OFFCURVE",
"579 492 OFFCURVE",
"643 492 CURVE SMOOTH",
"661 492 OFFCURVE",
"672 479 OFFCURVE",
"672 448 CURVE SMOOTH",
"672 432 OFFCURVE",
"669 411 OFFCURVE",
"663 385 CURVE SMOOTH",
"616 193 OFFCURVE",
"534 22 OFFCURVE",
"515 -23 CURVE",
"509 -34 OFFCURVE",
"630 10 OFFCURVE",
"636 22 CURVE",
"770 224 OFFCURVE",
"1070 652 OFFCURVE",
"1240 639 CURVE SMOOTH",
"1246 639 OFFCURVE",
"1255 638 OFFCURVE",
"1255 643 CURVE SMOOTH",
"1255 644 OFFCURVE",
"1254 645 OFFCURVE",
"1253 647 CURVE SMOOTH",
"1244 659 OFFCURVE",
"1229 664 OFFCURVE",
"1210 664 CURVE SMOOTH",
"1174 664 OFFCURVE",
"1126 646 OFFCURVE",
"1093 626 CURVE SMOOTH",
"957 544 OFFCURVE",
"795 314 OFFCURVE",
"686 142 CURVE",
"721 240 OFFCURVE",
"756 368 OFFCURVE",
"756 455 CURVE SMOOTH",
"756 514 OFFCURVE",
"740 554 OFFCURVE",
"697 554 CURVE SMOOTH",
"669 554 OFFCURVE",
"629 537 OFFCURVE",
"575 497 CURVE SMOOTH",
"502 443 OFFCURVE",
"418 357 OFFCURVE",
"358 268 CURVE",
"390 363 OFFCURVE",
"402 436 OFFCURVE",
"402 493 CURVE SMOOTH",
"402 586 OFFCURVE",
"355 623 OFFCURVE",
"293 623 CURVE SMOOTH",
"217 623 OFFCURVE",
"120 567 OFFCURVE",
"69 491 CURVE SMOOTH",
"33 437 OFFCURVE",
"8 346 OFFCURVE",
"8 287 CURVE SMOOTH",
"8 273 OFFCURVE",
"10 260 OFFCURVE",
"13 251 CURVE SMOOTH",
"16 241 OFFCURVE",
"22 247 OFFCURVE",
"23 259 CURVE SMOOTH",
"27 323 OFFCURVE",
"52 394 OFFCURVE",
"88 455 CURVE SMOOTH",
"145 554 OFFCURVE",
"205 598 OFFCURVE",
"249 598 CURVE SMOOTH",
"288 598 OFFCURVE",
"314 563 OFFCURVE",
"314 501 CURVE SMOOTH",
"314 474 OFFCURVE",
"310 443 OFFCURVE",
"299 407 CURVE SMOOTH",
"243 214 OFFCURVE",
"114 -28 OFFCURVE",
"92 -73 CURVE SMOOTH"
);
}
);
};
layerId = "F2190ACF-0345-4BD7-9FAD-2D95E96981D2";
paths = (
{
closed = 1;
nodes = (
"86 -77 OFFCURVE",
"213 -32 OFFCURVE",
"220 -21 CURVE SMOOTH",
"253 34 OFFCURVE",
"284 97 OFFCURVE",
"312 163 CURVE",
"423 332 OFFCURVE",
"579 499 OFFCURVE",
"643 499 CURVE SMOOTH",
"661 499 OFFCURVE",
"672 486 OFFCURVE",
"672 455 CURVE SMOOTH",
"672 439 OFFCURVE",
"669 418 OFFCURVE",
"663 392 CURVE SMOOTH",
"616 200 OFFCURVE",
"534 29 OFFCURVE",
"515 -16 CURVE",
"509 -27 OFFCURVE",
"630 17 OFFCURVE",
"636 29 CURVE",
"770 231 OFFCURVE",
"1070 659 OFFCURVE",
"1240 646 CURVE SMOOTH",
"1246 646 OFFCURVE",
"1255 645 OFFCURVE",
"1255 650 CURVE SMOOTH",
"1255 651 OFFCURVE",
"1254 652 OFFCURVE",
"1253 654 CURVE SMOOTH",
"1244 666 OFFCURVE",
"1229 671 OFFCURVE",
"1210 671 CURVE SMOOTH",
"1174 671 OFFCURVE",
"1126 653 OFFCURVE",
"1093 633 CURVE SMOOTH",
"957 551 OFFCURVE",
"795 321 OFFCURVE",
"686 149 CURVE",
"721 247 OFFCURVE",
"756 375 OFFCURVE",
"756 462 CURVE SMOOTH",
"756 521 OFFCURVE",
"740 561 OFFCURVE",
"697 561 CURVE SMOOTH",
"669 561 OFFCURVE",
"629 544 OFFCURVE",
"575 504 CURVE SMOOTH",
"502 450 OFFCURVE",
"418 364 OFFCURVE",
"358 275 CURVE",
"390 370 OFFCURVE",
"402 443 OFFCURVE",
"402 500 CURVE SMOOTH",
"402 593 OFFCURVE",
"355 630 OFFCURVE",
"293 630 CURVE SMOOTH",
"217 630 OFFCURVE",
"120 574 OFFCURVE",
"69 498 CURVE SMOOTH",
"33 444 OFFCURVE",
"8 353 OFFCURVE",
"8 294 CURVE SMOOTH",
"8 280 OFFCURVE",
"10 267 OFFCURVE",
"13 258 CURVE SMOOTH",
"16 248 OFFCURVE",
"22 254 OFFCURVE",
"23 266 CURVE SMOOTH",
"27 330 OFFCURVE",
"52 401 OFFCURVE",
"88 462 CURVE SMOOTH",
"145 561 OFFCURVE",
"205 605 OFFCURVE",
"249 605 CURVE SMOOTH",
"288 605 OFFCURVE",
"314 570 OFFCURVE",
"314 508 CURVE SMOOTH",
"314 481 OFFCURVE",
"310 450 OFFCURVE",
"299 414 CURVE SMOOTH",
"243 221 OFFCURVE",
"114 -21 OFFCURVE",
"92 -66 CURVE SMOOTH"
);
}
);
width = 814;
}
);
note = W;
unicode = 0057;
},
{
glyphname = X;
lastChange = "2022-01-10 21:39:40 +0000";
layers = (
{
background = {
paths = (
{
closed = 1;
nodes = (
"-135 -102 OFFCURVE",
"-129 -98 OFFCURVE",
"-123 -89 CURVE SMOOTH",
"-78 -27 OFFCURVE",
"23 86 OFFCURVE",
"144 205 CURVE",
"200 78 OFFCURVE",
"290 -31 OFFCURVE",
"379 -31 CURVE SMOOTH",
"410 -31 OFFCURVE",
"433 -28 OFFCURVE",
"453 -3 CURVE SMOOTH",
"456 1 OFFCURVE",
"453 5 OFFCURVE",
"450 5 CURVE SMOOTH",
"449 5 OFFCURVE",
"447 4 OFFCURVE",
"446 3 CURVE SMOOTH",
"435 -11 OFFCURVE",
"417 -17 OFFCURVE",
"397 -17 CURVE SMOOTH",
"382 -17 OFFCURVE",
"365 -13 OFFCURVE",
"350 -5 CURVE SMOOTH",
"297 24 OFFCURVE",
"238 141 OFFCURVE",
"206 266 CURVE",
"279 336 OFFCURVE",
"357 405 OFFCURVE",
"433 465 CURVE SMOOTH",
"574 578 OFFCURVE",
"711 658 OFFCURVE",
"795 656 CURVE SMOOTH",
"800 656 OFFCURVE",
"801 664 OFFCURVE",
"796 664 CURVE SMOOTH",
"612 669 OFFCURVE",
"387 497 OFFCURVE",
"197 306 CURVE",
"188 352 OFFCURVE",
"183 399 OFFCURVE",
"183 441 CURVE SMOOTH",
"183 494 OFFCURVE",
"191 540 OFFCURVE",
"209 568 CURVE SMOOTH",
"212 573 OFFCURVE",
"214 577 OFFCURVE",
"214 580 CURVE SMOOTH",
"214 586 OFFCURVE",
"207 589 OFFCURVE",
"198 589 CURVE SMOOTH",
"173 589 OFFCURVE",
"125 569 OFFCURVE",
"115 551 CURVE SMOOTH",
"101 527 OFFCURVE",
"94 486 OFFCURVE",
"94 438 CURVE SMOOTH",
"94 377 OFFCURVE",
"105 304 OFFCURVE",
"131 237 CURVE",
"20 118 OFFCURVE",
"-75 0 OFFCURVE",
"-135 -81 CURVE SMOOTH",
"-140 -88 OFFCURVE",
"-142 -94 OFFCURVE",
"-142 -98 CURVE SMOOTH",
"-142 -100 OFFCURVE",
"-141 -102 OFFCURVE",
"-139 -102 CURVE SMOOTH"
);
}
);
};
layerId = "F2190ACF-0345-4BD7-9FAD-2D95E96981D2";
paths = (
{
closed = 1;
nodes = (
"-135 -95 OFFCURVE",
"-129 -91 OFFCURVE",
"-123 -82 CURVE SMOOTH",
"-78 -20 OFFCURVE",
"23 93 OFFCURVE",
"144 212 CURVE",
"200 85 OFFCURVE",
"290 -24 OFFCURVE",
"379 -24 CURVE SMOOTH",
"410 -24 OFFCURVE",
"433 -21 OFFCURVE",
"453 4 CURVE SMOOTH",
"456 8 OFFCURVE",
"453 12 OFFCURVE",
"450 12 CURVE SMOOTH",
"449 12 OFFCURVE",
"447 11 OFFCURVE",
"446 10 CURVE SMOOTH",
"435 -4 OFFCURVE",
"417 -10 OFFCURVE",
"397 -10 CURVE SMOOTH",
"382 -10 OFFCURVE",
"365 -6 OFFCURVE",
"350 2 CURVE SMOOTH",
"297 31 OFFCURVE",
"238 148 OFFCURVE",
"206 273 CURVE",
"279 343 OFFCURVE",
"357 412 OFFCURVE",
"433 472 CURVE SMOOTH",
"574 585 OFFCURVE",
"711 665 OFFCURVE",
"795 663 CURVE SMOOTH",
"800 663 OFFCURVE",
"801 671 OFFCURVE",
"796 671 CURVE SMOOTH",
"612 676 OFFCURVE",
"387 504 OFFCURVE",
"197 313 CURVE",
"188 359 OFFCURVE",
"183 406 OFFCURVE",
"183 448 CURVE SMOOTH",
"183 501 OFFCURVE",
"191 547 OFFCURVE",
"209 575 CURVE SMOOTH",
"212 580 OFFCURVE",
"214 584 OFFCURVE",
"214 587 CURVE SMOOTH",
"214 593 OFFCURVE",
"207 596 OFFCURVE",
"198 596 CURVE SMOOTH",
"173 596 OFFCURVE",
"125 576 OFFCURVE",
"115 558 CURVE SMOOTH",
"101 534 OFFCURVE",
"94 493 OFFCURVE",
"94 445 CURVE SMOOTH",
"94 384 OFFCURVE",
"105 311 OFFCURVE",
"131 244 CURVE",
"20 125 OFFCURVE",
"-75 7 OFFCURVE",
"-135 -74 CURVE SMOOTH",
"-140 -81 OFFCURVE",
"-142 -87 OFFCURVE",
"-142 -91 CURVE SMOOTH",
"-142 -93 OFFCURVE",
"-141 -95 OFFCURVE",
"-139 -95 CURVE SMOOTH"
);
}
);
width = 500;
}
);
note = X;
unicode = 0058;
},
{
glyphname = Y;
lastChange = "2022-01-10 21:39:40 +0000";
layers = (
{
background = {
paths = (
{
closed = 1;
nodes = (
"476 -313 OFFCURVE",
"614 -200 OFFCURVE",
"710 -60 CURVE SMOOTH",
"805 79 OFFCURVE",
"882 315 OFFCURVE",
"882 490 CURVE SMOOTH",
"882 539 OFFCURVE",
"876 583 OFFCURVE",
"863 619 CURVE SMOOTH",
"861 625 OFFCURVE",
"858 627 OFFCURVE",
"855 627 CURVE SMOOTH",
"853 627 OFFCURVE",
"851 626 OFFCURVE",
"849 625 CURVE SMOOTH",
"845 624 OFFCURVE",
"839 616 OFFCURVE",
"834 600 CURVE SMOOTH",
"803 497 OFFCURVE",
"727 373 OFFCURVE",
"634 238 CURVE SMOOTH",
"604 194 OFFCURVE",
"439 -6 OFFCURVE",
"371 -6 CURVE SMOOTH",
"352 -6 OFFCURVE",
"345 6 OFFCURVE",
"345 23 CURVE SMOOTH",
"345 80 OFFCURVE",
"425 208 OFFCURVE",
"485 313 CURVE SMOOTH",
"533 395 OFFCURVE",
"601 498 OFFCURVE",
"601 570 CURVE SMOOTH",
"601 624 OFFCURVE",
"564 661 OFFCURVE",
"453 661 CURVE SMOOTH",
"338 661 OFFCURVE",
"174 623 OFFCURVE",
"70 564 CURVE SMOOTH",
"28 540 OFFCURVE",
"9 505 OFFCURVE",
"9 476 CURVE SMOOTH",
"9 458 OFFCURVE",
"16 442 OFFCURVE",
"31 432 CURVE SMOOTH",
"34 430 OFFCURVE",
"37 430 OFFCURVE",
"40 430 CURVE SMOOTH",
"42 430 OFFCURVE",
"44 430 OFFCURVE",
"44 431 CURVE",
"42 433 LINE",
"30 441 OFFCURVE",
"24 450 OFFCURVE",
"24 459 CURVE SMOOTH",
"24 486 OFFCURVE",
"80 514 OFFCURVE",
"148 538 CURVE SMOOTH",
"204 557 OFFCURVE",
"341 598 OFFCURVE",
"437 598 CURVE SMOOTH",
"515 598 OFFCURVE",
"542 568 OFFCURVE",
"542 525 CURVE SMOOTH",
"542 463 OFFCURVE",
"488 379 OFFCURVE",
"460 332 CURVE SMOOTH",
"396 222 OFFCURVE",
"317 80 OFFCURVE",
"317 12 CURVE SMOOTH",
"317 -8 OFFCURVE",
"324 -22 OFFCURVE",
"341 -26 CURVE SMOOTH",
"345 -27 OFFCURVE",
"349 -27 OFFCURVE",
"353 -27 CURVE SMOOTH",
"441 -27 OFFCURVE",
"595 148 OFFCURVE",
"642 206 CURVE SMOOTH",
"728 314 OFFCURVE",
"814 463 OFFCURVE",
"847 574 CURVE",
"853 448 OFFCURVE",
"801 268 OFFCURVE",
"644 30 CURVE SMOOTH",
"560 -97 OFFCURVE",
"439 -281 OFFCURVE",
"296 -281 CURVE SMOOTH",
"195 -281 OFFCURVE",
"108 -185 OFFCURVE",
"89 -45 CURVE SMOOTH",
"88 -37 OFFCURVE",
"84 -32 OFFCURVE",
"80 -32 CURVE SMOOTH",
"77 -32 OFFCURVE",
"75 -35 OFFCURVE",
"75 -43 CURVE SMOOTH",
"75 -47 LINE SMOOTH",
"97 -239 OFFCURVE",
"205 -313 OFFCURVE",
"335 -313 CURVE SMOOTH"
);
}
);
};
layerId = "F2190ACF-0345-4BD7-9FAD-2D95E96981D2";
paths = (
{
closed = 1;
nodes = (
"476 -306 OFFCURVE",
"614 -193 OFFCURVE",
"710 -53 CURVE SMOOTH",
"805 86 OFFCURVE",
"882 322 OFFCURVE",
"882 497 CURVE SMOOTH",
"882 546 OFFCURVE",
"876 590 OFFCURVE",
"863 626 CURVE SMOOTH",
"861 632 OFFCURVE",
"858 634 OFFCURVE",
"855 634 CURVE SMOOTH",
"853 634 OFFCURVE",
"851 633 OFFCURVE",
"849 632 CURVE SMOOTH",
"845 631 OFFCURVE",
"839 623 OFFCURVE",
"834 607 CURVE SMOOTH",
"803 504 OFFCURVE",
"727 380 OFFCURVE",
"634 245 CURVE SMOOTH",
"604 201 OFFCURVE",
"439 1 OFFCURVE",
"371 1 CURVE SMOOTH",
"352 1 OFFCURVE",
"345 13 OFFCURVE",
"345 30 CURVE SMOOTH",
"345 87 OFFCURVE",
"425 215 OFFCURVE",
"485 320 CURVE SMOOTH",
"533 402 OFFCURVE",
"601 505 OFFCURVE",
"601 577 CURVE SMOOTH",
"601 631 OFFCURVE",
"564 668 OFFCURVE",
"453 668 CURVE SMOOTH",
"338 668 OFFCURVE",
"174 630 OFFCURVE",
"70 571 CURVE SMOOTH",
"28 547 OFFCURVE",
"9 512 OFFCURVE",
"9 483 CURVE SMOOTH",
"9 465 OFFCURVE",
"16 449 OFFCURVE",
"31 439 CURVE SMOOTH",
"34 437 OFFCURVE",
"37 437 OFFCURVE",
"40 437 CURVE SMOOTH",
"42 437 OFFCURVE",
"44 437 OFFCURVE",
"44 438 CURVE",
"42 440 LINE",
"30 448 OFFCURVE",
"24 457 OFFCURVE",
"24 466 CURVE SMOOTH",
"24 493 OFFCURVE",
"80 521 OFFCURVE",
"148 545 CURVE SMOOTH",
"204 564 OFFCURVE",
"341 605 OFFCURVE",
"437 605 CURVE SMOOTH",
"515 605 OFFCURVE",
"542 575 OFFCURVE",
"542 532 CURVE SMOOTH",
"542 470 OFFCURVE",
"488 386 OFFCURVE",
"460 339 CURVE SMOOTH",
"396 229 OFFCURVE",
"317 87 OFFCURVE",
"317 19 CURVE SMOOTH",
"317 -1 OFFCURVE",
"324 -15 OFFCURVE",
"341 -19 CURVE SMOOTH",
"345 -20 OFFCURVE",
"349 -20 OFFCURVE",
"353 -20 CURVE SMOOTH",
"441 -20 OFFCURVE",
"595 155 OFFCURVE",
"642 213 CURVE SMOOTH",
"728 321 OFFCURVE",
"814 470 OFFCURVE",
"847 581 CURVE",
"853 455 OFFCURVE",
"801 275 OFFCURVE",
"644 37 CURVE SMOOTH",
"560 -90 OFFCURVE",
"439 -274 OFFCURVE",
"296 -274 CURVE SMOOTH",
"195 -274 OFFCURVE",
"108 -178 OFFCURVE",
"89 -38 CURVE SMOOTH",
"88 -30 OFFCURVE",
"84 -25 OFFCURVE",
"80 -25 CURVE SMOOTH",
"77 -25 OFFCURVE",
"75 -28 OFFCURVE",
"75 -36 CURVE SMOOTH",
"75 -40 LINE SMOOTH",
"97 -232 OFFCURVE",
"205 -306 OFFCURVE",
"335 -306 CURVE SMOOTH"
);
}
);
width = 912;
}
);
note = Y;
unicode = 0059;
},
{
glyphname = Z;
lastChange = "2022-01-10 21:39:40 +0000";
layers = (
{
background = {
paths = (
{
closed = 1;
nodes = (
"719 -54 OFFCURVE",
"723 -51 OFFCURVE",
"726 -44 CURVE SMOOTH",
"731 -33 OFFCURVE",
"733 -22 OFFCURVE",
"733 -12 CURVE SMOOTH",
"733 89 OFFCURVE",
"505 122 OFFCURVE",
"322 122 CURVE SMOOTH",
"235 122 OFFCURVE",
"157 115 OFFCURVE",
"121 103 CURVE",
"257 223 OFFCURVE",
"502 414 OFFCURVE",
"757 530 CURVE",
"760 532 LINE",
"761 525 OFFCURVE",
"760 518 OFFCURVE",
"757 510 CURVE SMOOTH",
"753 503 OFFCURVE",
"759 499 OFFCURVE",
"763 510 CURVE SMOOTH",
"767 521 OFFCURVE",
"770 530 OFFCURVE",
"771 539 CURVE",
"775 542 OFFCURVE",
"776 545 OFFCURVE",
"776 548 CURVE SMOOTH",
"776 551 OFFCURVE",
"775 553 OFFCURVE",
"773 555 CURVE",
"777 613 OFFCURVE",
"715 637 OFFCURVE",
"667 646 CURVE SMOOTH",
"628 653 OFFCURVE",
"584 657 OFFCURVE",
"539 657 CURVE SMOOTH",
"461 657 OFFCURVE",
"379 646 OFFCURVE",
"315 622 CURVE SMOOTH",
"235 592 OFFCURVE",
"179 530 OFFCURVE",
"179 480 CURVE SMOOTH",
"179 463 OFFCURVE",
"185 448 OFFCURVE",
"199 435 CURVE SMOOTH",
"202 432 OFFCURVE",
"207 431 OFFCURVE",
"210 431 CURVE SMOOTH",
"211 431 OFFCURVE",
"212 431 OFFCURVE",
"212 432 CURVE SMOOTH",
"212 433 OFFCURVE",
"212 434 OFFCURVE",
"211 435 CURVE SMOOTH",
"200 448 OFFCURVE",
"194 460 OFFCURVE",
"194 471 CURVE SMOOTH",
"194 544 OFFCURVE",
"405 590 OFFCURVE",
"567 590 CURVE SMOOTH",
"643 590 OFFCURVE",
"709 580 OFFCURVE",
"735 557 CURVE",
"535 493 OFFCURVE",
"242 258 OFFCURVE",
"75 91 CURVE",
"72 89 LINE",
"52 80 OFFCURVE",
"19 60 OFFCURVE",
"7 52 CURVE SMOOTH",
"-4 44 OFFCURVE",
"-8 35 OFFCURVE",
"-8 25 CURVE SMOOTH",
"-8 2 OFFCURVE",
"20 -20 OFFCURVE",
"41 -16 CURVE SMOOTH",
"105 -4 OFFCURVE",
"352 33 OFFCURVE",
"530 33 CURVE SMOOTH",
"638 33 OFFCURVE",
"721 19 OFFCURVE",
"721 -23 CURVE SMOOTH",
"721 -30 OFFCURVE",
"719 -37 OFFCURVE",
"715 -45 CURVE SMOOTH",
"712 -50 OFFCURVE",
"713 -54 OFFCURVE",
"717 -54 CURVE SMOOTH"
);
}
);
};
layerId = "F2190ACF-0345-4BD7-9FAD-2D95E96981D2";
paths = (
{
closed = 1;
nodes = (
"719 -47 OFFCURVE",
"723 -44 OFFCURVE",
"726 -37 CURVE SMOOTH",
"731 -26 OFFCURVE",
"733 -15 OFFCURVE",
"733 -5 CURVE SMOOTH",
"733 96 OFFCURVE",
"505 129 OFFCURVE",
"322 129 CURVE SMOOTH",
"235 129 OFFCURVE",
"157 122 OFFCURVE",
"121 110 CURVE",
"257 230 OFFCURVE",
"502 421 OFFCURVE",
"757 537 CURVE",
"760 539 LINE",
"761 532 OFFCURVE",
"760 525 OFFCURVE",
"757 517 CURVE SMOOTH",
"753 510 OFFCURVE",
"759 506 OFFCURVE",
"763 517 CURVE SMOOTH",
"767 528 OFFCURVE",
"770 537 OFFCURVE",
"771 546 CURVE",
"775 549 OFFCURVE",
"776 552 OFFCURVE",
"776 555 CURVE SMOOTH",
"776 558 OFFCURVE",
"775 560 OFFCURVE",
"773 562 CURVE",
"777 620 OFFCURVE",
"715 644 OFFCURVE",
"667 653 CURVE SMOOTH",
"628 660 OFFCURVE",
"584 664 OFFCURVE",
"539 664 CURVE SMOOTH",
"461 664 OFFCURVE",
"379 653 OFFCURVE",
"315 629 CURVE SMOOTH",
"235 599 OFFCURVE",
"179 537 OFFCURVE",
"179 487 CURVE SMOOTH",
"179 470 OFFCURVE",
"185 455 OFFCURVE",
"199 442 CURVE SMOOTH",
"202 439 OFFCURVE",
"207 438 OFFCURVE",
"210 438 CURVE SMOOTH",
"211 438 OFFCURVE",
"212 438 OFFCURVE",
"212 439 CURVE SMOOTH",
"212 440 OFFCURVE",
"212 441 OFFCURVE",
"211 442 CURVE SMOOTH",
"200 455 OFFCURVE",
"194 467 OFFCURVE",
"194 478 CURVE SMOOTH",
"194 551 OFFCURVE",
"405 597 OFFCURVE",
"567 597 CURVE SMOOTH",
"643 597 OFFCURVE",
"709 587 OFFCURVE",
"735 564 CURVE",
"535 500 OFFCURVE",
"242 265 OFFCURVE",
"75 98 CURVE",
"72 96 LINE",
"52 87 OFFCURVE",
"19 67 OFFCURVE",
"7 59 CURVE SMOOTH",
"-4 51 OFFCURVE",
"-8 42 OFFCURVE",
"-8 32 CURVE SMOOTH",
"-8 9 OFFCURVE",
"20 -13 OFFCURVE",
"41 -9 CURVE SMOOTH",
"105 3 OFFCURVE",
"352 40 OFFCURVE",
"530 40 CURVE SMOOTH",
"638 40 OFFCURVE",
"721 26 OFFCURVE",
"721 -16 CURVE SMOOTH",
"721 -23 OFFCURVE",
"719 -30 OFFCURVE",
"715 -38 CURVE SMOOTH",
"712 -43 OFFCURVE",
"713 -47 OFFCURVE",
"717 -47 CURVE SMOOTH"
);
}
);
width = 743;
}
);
note = Z;
unicode = 005A;
},
{
glyphname = a;
lastChange = "2022-01-10 22:22:12 +0000";
layers = (
{
background = {
paths = (
{
closed = 1;
nodes = (
"76 -1 OFFCURVE",
"102 6 OFFCURVE",
"132 24 CURVE SMOOTH",
"167 45 OFFCURVE",
"201 72 OFFCURVE",
"236 115 CURVE",
"229 98 LINE SMOOTH",
"223 83 OFFCURVE",
"219 68 OFFCURVE",
"219 55 CURVE SMOOTH",
"219 22 OFFCURVE",
"238 -1 OFFCURVE",
"274 -1 CURVE SMOOTH",
"289 -1 OFFCURVE",
"307 3 OFFCURVE",
"328 13 CURVE SMOOTH",
"392 42 OFFCURVE",
"469 111 OFFCURVE",
"488 128 CURVE SMOOTH",
"491 131 OFFCURVE",
"493 135 OFFCURVE",
"493 139 CURVE SMOOTH",
"493 142 OFFCURVE",
"491 144 OFFCURVE",
"489 144 CURVE SMOOTH",
"486 144 OFFCURVE",
"487 144 OFFCURVE",
"482 140 CURVE SMOOTH",
"457 118 OFFCURVE",
"407 77 OFFCURVE",
"358 49 CURVE SMOOTH",
"335 36 OFFCURVE",
"318 30 OFFCURVE",
"307 30 CURVE SMOOTH",
"297 30 OFFCURVE",
"292 36 OFFCURVE",
"292 45 CURVE SMOOTH",
"292 59 OFFCURVE",
"302 81 OFFCURVE",
"318 105 CURVE SMOOTH",
"338 135 OFFCURVE",
"365 165 OFFCURVE",
"375 178 CURVE SMOOTH",
"383 188 OFFCURVE",
"386 196 OFFCURVE",
"386 203 CURVE SMOOTH",
"386 224 OFFCURVE",
"356 231 OFFCURVE",
"342 231 CURVE",
"336 248 OFFCURVE",
"327 259 OFFCURVE",
"303 274 CURVE SMOOTH",
"285 285 OFFCURVE",
"264 289 OFFCURVE",
"241 289 CURVE SMOOTH",
"178 289 OFFCURVE",
"102 254 OFFCURVE",
"55 204 CURVE SMOOTH",
"10 156 OFFCURVE",
"-10 107 OFFCURVE",
"-10 69 CURVE SMOOTH",
"-10 27 OFFCURVE",
"14 -1 OFFCURVE",
"55 -1 CURVE SMOOTH"
);
},
{
closed = 1;
nodes = (
"74 25 OFFCURVE",
"68 32 OFFCURVE",
"68 44 CURVE SMOOTH",
"68 67 OFFCURVE",
"90 111 OFFCURVE",
"141 171 CURVE SMOOTH",
"190 229 OFFCURVE",
"249 260 OFFCURVE",
"288 260 CURVE SMOOTH",
"312 260 OFFCURVE",
"321 253 OFFCURVE",
"321 241 CURVE SMOOTH",
"321 205 OFFCURVE",
"232 129 OFFCURVE",
"217 113 CURVE SMOOTH",
"157 53 OFFCURVE",
"110 25 OFFCURVE",
"86 25 CURVE SMOOTH"
);
}
);
};
layerId = "F2190ACF-0345-4BD7-9FAD-2D95E96981D2";
paths = (
{
closed = 1;
nodes = (
"76 -1 OFFCURVE",
"102 6 OFFCURVE",
"132 24 CURVE SMOOTH",
"167 45 OFFCURVE",
"201 72 OFFCURVE",
"236 115 CURVE",
"229 98 LINE SMOOTH",
"223 83 OFFCURVE",
"219 68 OFFCURVE",
"219 55 CURVE SMOOTH",
"219 22 OFFCURVE",
"238 -1 OFFCURVE",
"274 -1 CURVE SMOOTH",
"289 -1 OFFCURVE",
"307 3 OFFCURVE",
"328 13 CURVE SMOOTH",
"392 42 OFFCURVE",
"469 111 OFFCURVE",
"488 128 CURVE SMOOTH",
"491 131 OFFCURVE",
"493 135 OFFCURVE",
"493 139 CURVE SMOOTH",
"493 142 OFFCURVE",
"491 144 OFFCURVE",
"489 144 CURVE SMOOTH",
"486 144 OFFCURVE",
"487 144 OFFCURVE",
"482 140 CURVE SMOOTH",
"457 118 OFFCURVE",
"407 77 OFFCURVE",
"358 49 CURVE SMOOTH",
"335 36 OFFCURVE",
"318 30 OFFCURVE",
"307 30 CURVE SMOOTH",
"297 30 OFFCURVE",
"292 36 OFFCURVE",
"292 45 CURVE SMOOTH",
"292 59 OFFCURVE",
"302 81 OFFCURVE",
"318 105 CURVE SMOOTH",
"338 135 OFFCURVE",
"365 165 OFFCURVE",
"375 178 CURVE SMOOTH",
"383 188 OFFCURVE",
"386 196 OFFCURVE",
"386 203 CURVE SMOOTH",
"386 224 OFFCURVE",
"356 231 OFFCURVE",
"342 231 CURVE",
"330 264 OFFCURVE",
"291 289 OFFCURVE",
"241 289 CURVE SMOOTH",
"178 289 OFFCURVE",
"102 254 OFFCURVE",
"55 204 CURVE SMOOTH",
"10 156 OFFCURVE",
"-10 107 OFFCURVE",
"-10 69 CURVE SMOOTH",
"-10 27 OFFCURVE",
"14 -1 OFFCURVE",
"55 -1 CURVE SMOOTH"
);
},
{
closed = 1;
nodes = (
"74 25 OFFCURVE",
"68 32 OFFCURVE",
"68 44 CURVE SMOOTH",
"68 67 OFFCURVE",
"90 111 OFFCURVE",
"141 171 CURVE SMOOTH",
"190 229 OFFCURVE",
"249 260 OFFCURVE",
"288 260 CURVE SMOOTH",
"312 260 OFFCURVE",
"321 253 OFFCURVE",
"321 241 CURVE SMOOTH",
"321 205 OFFCURVE",
"232 129 OFFCURVE",
"217 113 CURVE SMOOTH",
"157 53 OFFCURVE",
"110 25 OFFCURVE",
"86 25 CURVE SMOOTH"
);
}
);
width = 476;
}
);
note = a;
unicode = 0061;
},
{
glyphname = ae;
lastChange = "2022-01-10 21:39:40 +0000";
layers = (
{
background = {
paths = (
{
closed = 1;
nodes = (
"327 -19 OFFCURVE",
"337 -19 OFFCURVE",
"347 -17 CURVE",
"456 -15 OFFCURVE",
"552 79 OFFCURVE",
"628 148 CURVE SMOOTH",
"632 152 OFFCURVE",
"634 158 OFFCURVE",
"634 161 CURVE SMOOTH",
"634 164 OFFCURVE",
"633 166 OFFCURVE",
"631 166 CURVE SMOOTH",
"629 166 OFFCURVE",
"626 165 OFFCURVE",
"622 161 CURVE SMOOTH",
"574 113 OFFCURVE",
"451 11 OFFCURVE",
"382 10 CURVE SMOOTH",
"345 9 OFFCURVE",
"318 24 OFFCURVE",
"318 55 CURVE SMOOTH",
"318 58 OFFCURVE",
"318 62 OFFCURVE",
"319 66 CURVE SMOOTH",
"330 126 OFFCURVE",
"408 212 OFFCURVE",
"460 236 CURVE SMOOTH",
"473 242 OFFCURVE",
"486 245 OFFCURVE",
"496 245 CURVE SMOOTH",
"518 245 OFFCURVE",
"532 233 OFFCURVE",
"532 217 CURVE SMOOTH",
"532 200 OFFCURVE",
"516 177 OFFCURVE",
"478 156 CURVE SMOOTH",
"444 138 OFFCURVE",
"402 128 OFFCURVE",
"385 128 CURVE SMOOTH",
"375 128 OFFCURVE",
"370 126 OFFCURVE",
"370 124 CURVE SMOOTH",
"370 121 OFFCURVE",
"376 119 OFFCURVE",
"387 119 CURVE SMOOTH",
"415 119 OFFCURVE",
"458 131 OFFCURVE",
"487 144 CURVE SMOOTH",
"535 167 OFFCURVE",
"560 199 OFFCURVE",
"560 226 CURVE SMOOTH",
"560 254 OFFCURVE",
"533 276 OFFCURVE",
"477 276 CURVE SMOOTH",
"432 276 OFFCURVE",
"385 260 OFFCURVE",
"344 234 CURVE",
"338 245 OFFCURVE",
"329 255 OFFCURVE",
"309 267 CURVE SMOOTH",
"291 278 OFFCURVE",
"270 282 OFFCURVE",
"247 282 CURVE SMOOTH",
"184 282 OFFCURVE",
"108 247 OFFCURVE",
"61 197 CURVE SMOOTH",
"16 149 OFFCURVE",
"-4 100 OFFCURVE",
"-4 62 CURVE SMOOTH",
"-4 20 OFFCURVE",
"20 -8 OFFCURVE",
"61 -8 CURVE SMOOTH",
"82 -8 OFFCURVE",
"108 -1 OFFCURVE",
"138 17 CURVE SMOOTH",
"173 38 OFFCURVE",
"207 65 OFFCURVE",
"242 108 CURVE",
"235 91 LINE SMOOTH",
"228 76 OFFCURVE",
"225 62 OFFCURVE",
"225 50 CURVE SMOOTH",
"225 6 OFFCURVE",
"264 -19 OFFCURVE",
"318 -19 CURVE SMOOTH"
);
},
{
closed = 1;
nodes = (
"80 18 OFFCURVE",
"74 25 OFFCURVE",
"74 37 CURVE SMOOTH",
"74 60 OFFCURVE",
"96 104 OFFCURVE",
"147 164 CURVE SMOOTH",
"196 222 OFFCURVE",
"255 253 OFFCURVE",
"294 253 CURVE SMOOTH",
"318 253 OFFCURVE",
"327 246 OFFCURVE",
"327 234 CURVE SMOOTH",
"327 198 OFFCURVE",
"238 122 OFFCURVE",
"223 106 CURVE SMOOTH",
"163 46 OFFCURVE",
"116 18 OFFCURVE",
"92 18 CURVE SMOOTH"
);
}
);
};
layerId = "F2190ACF-0345-4BD7-9FAD-2D95E96981D2";
paths = (
{
closed = 1;
nodes = (
"327 -12 OFFCURVE",
"337 -12 OFFCURVE",
"347 -10 CURVE",
"456 -8 OFFCURVE",
"552 86 OFFCURVE",
"628 155 CURVE SMOOTH",
"632 159 OFFCURVE",
"634 165 OFFCURVE",
"634 168 CURVE SMOOTH",
"634 171 OFFCURVE",
"633 173 OFFCURVE",
"631 173 CURVE SMOOTH",
"629 173 OFFCURVE",
"626 172 OFFCURVE",
"622 168 CURVE SMOOTH",
"574 120 OFFCURVE",
"451 18 OFFCURVE",
"382 17 CURVE SMOOTH",
"345 16 OFFCURVE",
"318 31 OFFCURVE",
"318 62 CURVE SMOOTH",
"318 65 OFFCURVE",
"318 69 OFFCURVE",
"319 73 CURVE SMOOTH",
"330 133 OFFCURVE",
"408 219 OFFCURVE",
"460 243 CURVE SMOOTH",
"473 249 OFFCURVE",
"486 252 OFFCURVE",
"496 252 CURVE SMOOTH",
"518 252 OFFCURVE",
"532 240 OFFCURVE",
"532 224 CURVE SMOOTH",
"532 207 OFFCURVE",
"516 184 OFFCURVE",
"478 163 CURVE SMOOTH",
"444 145 OFFCURVE",
"402 135 OFFCURVE",
"385 135 CURVE SMOOTH",
"375 135 OFFCURVE",
"370 133 OFFCURVE",
"370 131 CURVE SMOOTH",
"370 128 OFFCURVE",
"376 126 OFFCURVE",
"387 126 CURVE SMOOTH",
"415 126 OFFCURVE",
"458 138 OFFCURVE",
"487 151 CURVE SMOOTH",
"535 174 OFFCURVE",
"560 206 OFFCURVE",
"560 233 CURVE SMOOTH",
"560 261 OFFCURVE",
"533 283 OFFCURVE",
"477 283 CURVE SMOOTH",
"432 283 OFFCURVE",
"385 267 OFFCURVE",
"344 241 CURVE",
"338 252 OFFCURVE",
"329 262 OFFCURVE",
"309 274 CURVE SMOOTH",
"291 285 OFFCURVE",
"270 289 OFFCURVE",
"247 289 CURVE SMOOTH",
"184 289 OFFCURVE",
"108 254 OFFCURVE",
"61 204 CURVE SMOOTH",
"16 156 OFFCURVE",
"-4 107 OFFCURVE",
"-4 69 CURVE SMOOTH",
"-4 27 OFFCURVE",
"20 -1 OFFCURVE",
"61 -1 CURVE SMOOTH",
"82 -1 OFFCURVE",
"108 6 OFFCURVE",
"138 24 CURVE SMOOTH",
"173 45 OFFCURVE",
"207 72 OFFCURVE",
"242 115 CURVE",
"235 98 LINE SMOOTH",
"228 83 OFFCURVE",
"225 69 OFFCURVE",
"225 57 CURVE SMOOTH",
"225 13 OFFCURVE",
"264 -12 OFFCURVE",
"318 -12 CURVE SMOOTH"
);
},
{
closed = 1;
nodes = (
"80 25 OFFCURVE",
"74 32 OFFCURVE",
"74 44 CURVE SMOOTH",
"74 67 OFFCURVE",
"96 111 OFFCURVE",
"147 171 CURVE SMOOTH",
"196 229 OFFCURVE",
"255 260 OFFCURVE",
"294 260 CURVE SMOOTH",
"318 260 OFFCURVE",
"327 253 OFFCURVE",
"327 241 CURVE SMOOTH",
"327 205 OFFCURVE",
"238 129 OFFCURVE",
"223 113 CURVE SMOOTH",
"163 53 OFFCURVE",
"116 25 OFFCURVE",
"92 25 CURVE SMOOTH"
);
}
);
width = 586;
}
);
note = ae;
unicode = 00E6;
},
{
glyphname = b;
lastChange = "2022-01-10 22:21:42 +0000";
layers = (
{
background = {
paths = (
{
closed = 1;
nodes = (
"206 -17 OFFCURVE",
"275 26 OFFCURVE",
"327 87 CURVE SMOOTH",
"370 137 OFFCURVE",
"397 195 OFFCURVE",
"397 240 CURVE SMOOTH",
"397 265 OFFCURVE",
"388 285 OFFCURVE",
"370 298 CURVE SMOOTH",
"359 305 OFFCURVE",
"346 309 OFFCURVE",
"331 309 CURVE SMOOTH",
"287 309 OFFCURVE",
"230 276 OFFCURVE",
"182 228 CURVE",
"252 350 OFFCURVE",
"318 489 OFFCURVE",
"312 543 CURVE SMOOTH",
"307 587 OFFCURVE",
"287 603 OFFCURVE",
"259 604 CURVE SMOOTH",
"256 604 OFFCURVE",
"256 600 OFFCURVE",
"259 600 CURVE SMOOTH",
"274 599 OFFCURVE",
"278 589 OFFCURVE",
"278 578 CURVE SMOOTH",
"278 570 OFFCURVE",
"276 562 OFFCURVE",
"274 555 CURVE SMOOTH",
"258 501 OFFCURVE",
"200 400 OFFCURVE",
"126 285 CURVE SMOOTH",
"63 185 OFFCURVE",
"32 161 OFFCURVE",
"-10 125 CURVE SMOOTH",
"-16 120 OFFCURVE",
"-18 115 OFFCURVE",
"-18 113 CURVE SMOOTH",
"-18 110 OFFCURVE",
"-17 109 OFFCURVE",
"-14 109 CURVE SMOOTH",
"-12 109 OFFCURVE",
"-8 110 OFFCURVE",
"-5 113 CURVE SMOOTH",
"12 127 OFFCURVE",
"35 147 OFFCURVE",
"52 164 CURVE",
"11 100 OFFCURVE",
"-32 40 OFFCURVE",
"-49 16 CURVE",
"-32 0 OFFCURVE",
"-12 -5 OFFCURVE",
"2 -5 CURVE SMOOTH",
"19 -5 OFFCURVE",
"31 3 OFFCURVE",
"46 20 CURVE SMOOTH",
"58 33 OFFCURVE",
"77 59 OFFCURVE",
"99 92 CURVE",
"94 76 OFFCURVE",
"92 60 OFFCURVE",
"92 46 CURVE SMOOTH",
"92 23 OFFCURVE",
"99 5 OFFCURVE",
"114 -6 CURVE SMOOTH",
"125 -14 OFFCURVE",
"139 -17 OFFCURVE",
"154 -17 CURVE SMOOTH"
);
},
{
closed = 1;
nodes = (
"140 -8 OFFCURVE",
"131 -5 OFFCURVE",
"124 -1 CURVE SMOOTH",
"111 8 OFFCURVE",
"104 25 OFFCURVE",
"104 48 CURVE SMOOTH",
"104 79 OFFCURVE",
"116 119 OFFCURVE",
"143 159 CURVE SMOOTH",
"179 215 OFFCURVE",
"227 246 OFFCURVE",
"262 246 CURVE SMOOTH",
"271 246 OFFCURVE",
"279 243 OFFCURVE",
"286 239 CURVE SMOOTH",
"299 230 OFFCURVE",
"306 213 OFFCURVE",
"306 189 CURVE SMOOTH",
"306 159 OFFCURVE",
"294 119 OFFCURVE",
"268 78 CURVE SMOOTH",
"232 22 OFFCURVE",
"184 -8 OFFCURVE",
"149 -8 CURVE SMOOTH"
);
}
);
};
layerId = "F2190ACF-0345-4BD7-9FAD-2D95E96981D2";
paths = (
{
closed = 1;
nodes = (
"206 -17 OFFCURVE",
"275 26 OFFCURVE",
"327 87 CURVE SMOOTH",
"370 137 OFFCURVE",
"397 195 OFFCURVE",
"397 240 CURVE SMOOTH",
"397 281 OFFCURVE",
"371 309 OFFCURVE",
"331 309 CURVE SMOOTH",
"287 309 OFFCURVE",
"230 276 OFFCURVE",
"182 228 CURVE",
"252 350 OFFCURVE",
"318 489 OFFCURVE",
"312 543 CURVE SMOOTH",
"307 587 OFFCURVE",
"287 603 OFFCURVE",
"259 604 CURVE SMOOTH",
"256 604 OFFCURVE",
"256 600 OFFCURVE",
"259 600 CURVE SMOOTH",
"274 599 OFFCURVE",
"278 589 OFFCURVE",
"278 578 CURVE SMOOTH",
"278 570 OFFCURVE",
"276 562 OFFCURVE",
"274 555 CURVE SMOOTH",
"258 501 OFFCURVE",
"200 400 OFFCURVE",
"126 285 CURVE SMOOTH",
"63 185 OFFCURVE",
"32 161 OFFCURVE",
"-10 125 CURVE SMOOTH",
"-16 120 OFFCURVE",
"-18 115 OFFCURVE",
"-18 113 CURVE SMOOTH",
"-18 110 OFFCURVE",
"-17 109 OFFCURVE",
"-14 109 CURVE SMOOTH",
"-12 109 OFFCURVE",
"-8 110 OFFCURVE",
"-5 113 CURVE SMOOTH",
"12 127 OFFCURVE",
"35 147 OFFCURVE",
"52 164 CURVE",
"11 100 OFFCURVE",
"-32 40 OFFCURVE",
"-49 16 CURVE",
"-32 0 OFFCURVE",
"-12 -5 OFFCURVE",
"2 -5 CURVE SMOOTH",
"19 -5 OFFCURVE",
"31 3 OFFCURVE",
"46 20 CURVE SMOOTH",
"58 33 OFFCURVE",
"77 59 OFFCURVE",
"99 92 CURVE",
"94 76 OFFCURVE",
"92 60 OFFCURVE",
"92 46 CURVE SMOOTH",
"92 6 OFFCURVE",
"113 -17 OFFCURVE",
"154 -17 CURVE SMOOTH"
);
},
{
closed = 1;
nodes = (
"121 -8 OFFCURVE",
"104 12 OFFCURVE",
"104 48 CURVE SMOOTH",
"104 79 OFFCURVE",
"116 119 OFFCURVE",
"143 159 CURVE SMOOTH",
"179 215 OFFCURVE",
"227 246 OFFCURVE",
"262 246 CURVE SMOOTH",
"289 246 OFFCURVE",
"306 225 OFFCURVE",
"306 189 CURVE SMOOTH",
"306 159 OFFCURVE",
"294 119 OFFCURVE",
"268 78 CURVE SMOOTH",
"232 22 OFFCURVE",
"184 -8 OFFCURVE",
"149 -8 CURVE SMOOTH"
);
}
);
width = 405;
}
);
note = b;
unicode = 0062;
},
{
glyphname = c;
lastChange = "2022-01-10 22:21:36 +0000";
layers = (
{
background = {
paths = (
{
closed = 1;
nodes = (
"126 -10 OFFCURVE",
"159 -2 OFFCURVE",
"193 13 CURVE SMOOTH",
"257 42 OFFCURVE",
"328 107 OFFCURVE",
"380 155 CURVE SMOOTH",
"384 158 OFFCURVE",
"386 163 OFFCURVE",
"386 167 CURVE SMOOTH",
"386 170 OFFCURVE",
"385 172 OFFCURVE",
"382 172 CURVE SMOOTH",
"379 172 OFFCURVE",
"376 170 OFFCURVE",
"372 166 CURVE SMOOTH",
"336 133 OFFCURVE",
"274 79 OFFCURVE",
"227 49 CURVE SMOOTH",
"188 25 OFFCURVE",
"157 15 OFFCURVE",
"134 15 CURVE SMOOTH",
"99 15 OFFCURVE",
"82 37 OFFCURVE",
"82 68 CURVE SMOOTH",
"82 131 OFFCURVE",
"163 225 OFFCURVE",
"222 251 CURVE SMOOTH",
"241 260 OFFCURVE",
"256 264 OFFCURVE",
"266 264 CURVE SMOOTH",
"281 264 OFFCURVE",
"287 256 OFFCURVE",
"287 244 CURVE SMOOTH",
"287 234 OFFCURVE",
"283 221 OFFCURVE",
"275 207 CURVE SMOOTH",
"273 204 OFFCURVE",
"272 201 OFFCURVE",
"272 198 CURVE SMOOTH",
"272 193 OFFCURVE",
"276 191 OFFCURVE",
"281 191 CURVE SMOOTH",
"289 191 OFFCURVE",
"300 197 OFFCURVE",
"305 208 CURVE SMOOTH",
"309 216 OFFCURVE",
"311 224 OFFCURVE",
"311 232 CURVE SMOOTH",
"311 260 OFFCURVE",
"285 283 OFFCURVE",
"231 283 CURVE SMOOTH",
"122 283 OFFCURVE",
"-6 191 OFFCURVE",
"-6 74 CURVE SMOOTH",
"-6 19 OFFCURVE",
"38 -10 OFFCURVE",
"96 -10 CURVE SMOOTH"
);
}
);
};
layerId = "F2190ACF-0345-4BD7-9FAD-2D95E96981D2";
paths = (
{
closed = 1;
nodes = (
"126 -10 OFFCURVE",
"159 -2 OFFCURVE",
"193 13 CURVE SMOOTH",
"257 42 OFFCURVE",
"328 107 OFFCURVE",
"380 155 CURVE SMOOTH",
"384 158 OFFCURVE",
"386 163 OFFCURVE",
"386 167 CURVE SMOOTH",
"386 170 OFFCURVE",
"385 172 OFFCURVE",
"382 172 CURVE SMOOTH",
"379 172 OFFCURVE",
"376 170 OFFCURVE",
"372 166 CURVE SMOOTH",
"336 133 OFFCURVE",
"274 79 OFFCURVE",
"227 49 CURVE SMOOTH",
"188 25 OFFCURVE",
"157 15 OFFCURVE",
"134 15 CURVE SMOOTH",
"99 15 OFFCURVE",
"82 37 OFFCURVE",
"82 68 CURVE SMOOTH",
"82 131 OFFCURVE",
"163 225 OFFCURVE",
"222 251 CURVE SMOOTH",
"241 260 OFFCURVE",
"256 264 OFFCURVE",
"266 264 CURVE SMOOTH",
"281 264 OFFCURVE",
"287 256 OFFCURVE",
"287 244 CURVE SMOOTH",
"287 234 OFFCURVE",
"283 221 OFFCURVE",
"275 207 CURVE SMOOTH",
"273 204 OFFCURVE",
"272 201 OFFCURVE",
"272 198 CURVE SMOOTH",
"272 193 OFFCURVE",
"276 191 OFFCURVE",
"281 191 CURVE SMOOTH",
"299 191 OFFCURVE",
"311 213 OFFCURVE",
"311 232 CURVE SMOOTH",
"311 260 OFFCURVE",
"285 283 OFFCURVE",
"231 283 CURVE SMOOTH",
"122 283 OFFCURVE",
"-6 191 OFFCURVE",
"-6 74 CURVE SMOOTH",
"-6 19 OFFCURVE",
"38 -10 OFFCURVE",
"96 -10 CURVE SMOOTH"
);
}
);
width = 339;
}
);
note = c;
unicode = 0063;
},
{
glyphname = d;
lastChange = "2022-01-10 22:21:31 +0000";
layers = (
{
background = {
paths = (
{
closed = 1;
nodes = (
"285 -90 OFFCURVE",
"291 -87 OFFCURVE",
"287 -82 CURVE SMOOTH",
"278 -71 OFFCURVE",
"274 -55 OFFCURVE",
"274 -36 CURVE SMOOTH",
"274 37 OFFCURVE",
"332 157 OFFCURVE",
"394 247 CURVE SMOOTH",
"463 347 OFFCURVE",
"561 461 OFFCURVE",
"587 478 CURVE",
"571 492 OFFCURVE",
"548 499 OFFCURVE",
"526 499 CURVE SMOOTH",
"503 499 OFFCURVE",
"480 491 OFFCURVE",
"465 474 CURVE SMOOTH",
"433 438 OFFCURVE",
"370 338 OFFCURVE",
"320 232 CURVE",
"320 260 OFFCURVE",
"295 283 OFFCURVE",
"239 283 CURVE SMOOTH",
"173 283 OFFCURVE",
"101 248 OFFCURVE",
"54 196 CURVE SMOOTH",
"27 167 OFFCURVE",
"5 139 OFFCURVE",
"-12 125 CURVE SMOOTH",
"-18 120 OFFCURVE",
"-22 115 OFFCURVE",
"-22 111 CURVE SMOOTH",
"-22 108 OFFCURVE",
"-20 106 OFFCURVE",
"-17 106 CURVE SMOOTH",
"-14 106 OFFCURVE",
"-12 107 OFFCURVE",
"-9 109 CURVE SMOOTH",
"-2 114 OFFCURVE",
"5 121 OFFCURVE",
"13 128 CURVE",
"8 112 OFFCURVE",
"4 96 OFFCURVE",
"4 79 CURVE SMOOTH",
"4 12 OFFCURVE",
"44 -18 OFFCURVE",
"93 -18 CURVE SMOOTH",
"124 -18 OFFCURVE",
"157 -6 OFFCURVE",
"184 16 CURVE SMOOTH",
"212 40 OFFCURVE",
"246 76 OFFCURVE",
"271 108 CURVE",
"259 67 OFFCURVE",
"251 29 OFFCURVE",
"251 -4 CURVE SMOOTH",
"251 -40 OFFCURVE",
"260 -70 OFFCURVE",
"282 -88 CURVE SMOOTH"
);
},
{
closed = 1;
nodes = (
"100 16 OFFCURVE",
"91 38 OFFCURVE",
"91 64 CURVE SMOOTH",
"91 70 OFFCURVE",
"92 78 OFFCURVE",
"93 85 CURVE SMOOTH",
"105 149 OFFCURVE",
"179 230 OFFCURVE",
"241 254 CURVE SMOOTH",
"255 259 OFFCURVE",
"266 262 OFFCURVE",
"276 262 CURVE SMOOTH",
"291 262 OFFCURVE",
"300 255 OFFCURVE",
"300 241 CURVE SMOOTH",
"300 234 OFFCURVE",
"297 223 OFFCURVE",
"290 211 CURVE SMOOTH",
"288 207 OFFCURVE",
"287 203 OFFCURVE",
"287 201 CURVE SMOOTH",
"287 195 OFFCURVE",
"290 192 OFFCURVE",
"295 192 CURVE SMOOTH",
"297 192 OFFCURVE",
"301 194 OFFCURVE",
"304 196 CURVE",
"296 178 OFFCURVE",
"289 161 OFFCURVE",
"283 143 CURVE",
"275 130 OFFCURVE",
"265 116 OFFCURVE",
"246 98 CURVE SMOOTH",
"187 38 OFFCURVE",
"148 16 OFFCURVE",
"124 16 CURVE SMOOTH"
);
}
);
};
layerId = "F2190ACF-0345-4BD7-9FAD-2D95E96981D2";
paths = (
{
closed = 1;
nodes = (
"285 -90 OFFCURVE",
"291 -87 OFFCURVE",
"287 -82 CURVE SMOOTH",
"278 -71 OFFCURVE",
"274 -55 OFFCURVE",
"274 -36 CURVE SMOOTH",
"274 37 OFFCURVE",
"332 157 OFFCURVE",
"394 247 CURVE SMOOTH",
"463 347 OFFCURVE",
"561 461 OFFCURVE",
"587 478 CURVE",
"571 492 OFFCURVE",
"548 499 OFFCURVE",
"526 499 CURVE SMOOTH",
"503 499 OFFCURVE",
"480 491 OFFCURVE",
"465 474 CURVE SMOOTH",
"433 438 OFFCURVE",
"370 338 OFFCURVE",
"320 232 CURVE",
"320 260 OFFCURVE",
"295 283 OFFCURVE",
"239 283 CURVE SMOOTH",
"173 283 OFFCURVE",
"101 248 OFFCURVE",
"54 196 CURVE SMOOTH",
"27 167 OFFCURVE",
"5 139 OFFCURVE",
"-12 125 CURVE SMOOTH",
"-18 120 OFFCURVE",
"-22 115 OFFCURVE",
"-22 111 CURVE SMOOTH",
"-22 108 OFFCURVE",
"-20 106 OFFCURVE",
"-17 106 CURVE SMOOTH",
"-14 106 OFFCURVE",
"-12 107 OFFCURVE",
"-9 109 CURVE SMOOTH",
"-2 114 OFFCURVE",
"5 121 OFFCURVE",
"13 128 CURVE",
"8 112 OFFCURVE",
"4 96 OFFCURVE",
"4 79 CURVE SMOOTH",
"4 12 OFFCURVE",
"44 -18 OFFCURVE",
"93 -18 CURVE SMOOTH",
"124 -18 OFFCURVE",
"157 -6 OFFCURVE",
"184 16 CURVE SMOOTH",
"212 40 OFFCURVE",
"246 76 OFFCURVE",
"271 108 CURVE",
"259 67 OFFCURVE",
"251 29 OFFCURVE",
"251 -4 CURVE SMOOTH",
"251 -40 OFFCURVE",
"260 -70 OFFCURVE",
"282 -88 CURVE SMOOTH"
);
},
{
closed = 1;
nodes = (
"100 16 OFFCURVE",
"91 38 OFFCURVE",
"91 64 CURVE SMOOTH",
"91 134 OFFCURVE",
"173 228 OFFCURVE",
"241 254 CURVE SMOOTH",
"255 259 OFFCURVE",
"266 262 OFFCURVE",
"276 262 CURVE SMOOTH",
"291 262 OFFCURVE",
"300 255 OFFCURVE",
"300 241 CURVE SMOOTH",
"300 234 OFFCURVE",
"297 223 OFFCURVE",
"290 211 CURVE SMOOTH",
"288 207 OFFCURVE",
"287 203 OFFCURVE",
"287 201 CURVE SMOOTH",
"287 195 OFFCURVE",
"290 192 OFFCURVE",
"295 192 CURVE SMOOTH",
"297 192 OFFCURVE",
"301 194 OFFCURVE",
"304 196 CURVE",
"296 178 OFFCURVE",
"289 161 OFFCURVE",
"283 143 CURVE",
"275 130 OFFCURVE",
"265 116 OFFCURVE",
"246 98 CURVE SMOOTH",
"187 38 OFFCURVE",
"148 16 OFFCURVE",
"124 16 CURVE SMOOTH"
);
}
);
width = 396;
}
);
note = d;
unicode = 0064;
},
{
glyphname = e;
lastChange = "2022-01-10 22:20:57 +0000";
layers = (
{
background = {
paths = (
{
closed = 1;
nodes = (
"207 -9 OFFCURVE",
"304 85 OFFCURVE",
"380 155 CURVE SMOOTH",
"384 158 OFFCURVE",
"386 164 OFFCURVE",
"386 167 CURVE SMOOTH",
"386 170 OFFCURVE",
"385 172 OFFCURVE",
"383 172 CURVE SMOOTH",
"381 172 OFFCURVE",
"378 170 OFFCURVE",
"374 166 CURVE SMOOTH",
"326 120 OFFCURVE",
"201 17 OFFCURVE",
"132 17 CURVE SMOOTH",
"99 17 OFFCURVE",
"82 39 OFFCURVE",
"82 69 CURVE SMOOTH",
"82 132 OFFCURVE",
"153 216 OFFCURVE",
"212 243 CURVE SMOOTH",
"225 249 OFFCURVE",
"238 252 OFFCURVE",
"248 252 CURVE SMOOTH",
"270 252 OFFCURVE",
"284 240 OFFCURVE",
"284 224 CURVE SMOOTH",
"284 206 OFFCURVE",
"269 184 OFFCURVE",
"231 163 CURVE SMOOTH",
"196 145 OFFCURVE",
"154 135 OFFCURVE",
"137 135 CURVE SMOOTH",
"127 135 OFFCURVE",
"123 133 OFFCURVE",
"123 131 CURVE SMOOTH",
"123 129 OFFCURVE",
"128 126 OFFCURVE",
"139 126 CURVE SMOOTH",
"167 126 OFFCURVE",
"210 138 OFFCURVE",
"239 151 CURVE SMOOTH",
"286 174 OFFCURVE",
"311 206 OFFCURVE",
"311 233 CURVE SMOOTH",
"311 261 OFFCURVE",
"285 283 OFFCURVE",
"230 283 CURVE SMOOTH",
"121 283 OFFCURVE",
"-6 191 OFFCURVE",
"-6 74 CURVE SMOOTH",
"-6 19 OFFCURVE",
"38 -10 OFFCURVE",
"97 -10 CURVE SMOOTH"
);
}
);
};
layerId = "F2190ACF-0345-4BD7-9FAD-2D95E96981D2";
paths = (
{
closed = 1;
nodes = (
"207 -9 OFFCURVE",
"304 85 OFFCURVE",
"380 155 CURVE SMOOTH",
"384 158 OFFCURVE",
"386 164 OFFCURVE",
"386 167 CURVE SMOOTH",
"386 170 OFFCURVE",
"385 172 OFFCURVE",
"383 172 CURVE SMOOTH",
"381 172 OFFCURVE",
"378 170 OFFCURVE",
"374 166 CURVE SMOOTH",
"326 120 OFFCURVE",
"201 17 OFFCURVE",
"132 17 CURVE SMOOTH",
"99 17 OFFCURVE",
"82 39 OFFCURVE",
"82 69 CURVE SMOOTH",
"82 132 OFFCURVE",
"153 216 OFFCURVE",
"212 243 CURVE SMOOTH",
"225 249 OFFCURVE",
"238 252 OFFCURVE",
"248 252 CURVE SMOOTH",
"270 252 OFFCURVE",
"284 240 OFFCURVE",
"284 224 CURVE SMOOTH",
"284 206 OFFCURVE",
"269 184 OFFCURVE",
"231 163 CURVE SMOOTH",
"196 145 OFFCURVE",
"154 135 OFFCURVE",
"137 135 CURVE SMOOTH",
"127 135 OFFCURVE",
"123 133 OFFCURVE",
"123 131 CURVE SMOOTH",
"123 129 OFFCURVE",
"128 126 OFFCURVE",
"139 126 CURVE SMOOTH",
"167 126 OFFCURVE",
"210 138 OFFCURVE",
"239 151 CURVE SMOOTH",
"286 174 OFFCURVE",
"311 206 OFFCURVE",
"311 233 CURVE SMOOTH",
"311 261 OFFCURVE",
"285 283 OFFCURVE",
"230 283 CURVE SMOOTH",
"121 283 OFFCURVE",
"-6 191 OFFCURVE",
"-6 74 CURVE SMOOTH",
"-6 19 OFFCURVE",
"38 -10 OFFCURVE",
"97 -10 CURVE SMOOTH"
);
}
);
width = 340;
}
);
note = e;
unicode = 0065;
},
{
glyphname = schwa;
lastChange = "2022-01-10 21:39:40 +0000";
layers = (
{
background = {
paths = (
{
closed = 1;
nodes = (
"264 4 OFFCURVE",
"391 96 OFFCURVE",
"391 213 CURVE SMOOTH",
"391 268 OFFCURVE",
"347 297 OFFCURVE",
"288 297 CURVE SMOOTH",
"178 296 OFFCURVE",
"81 204 OFFCURVE",
"5 132 CURVE SMOOTH",
"1 129 OFFCURVE",
"-1 123 OFFCURVE",
"-1 120 CURVE SMOOTH",
"-1 117 OFFCURVE",
"0 115 OFFCURVE",
"2 115 CURVE SMOOTH",
"4 115 OFFCURVE",
"9 117 OFFCURVE",
"13 121 CURVE SMOOTH",
"61 170 OFFCURVE",
"184 270 OFFCURVE",
"253 270 CURVE SMOOTH",
"286 270 OFFCURVE",
"303 248 OFFCURVE",
"303 218 CURVE SMOOTH",
"303 155 OFFCURVE",
"232 71 OFFCURVE",
"173 44 CURVE SMOOTH",
"160 38 OFFCURVE",
"147 35 OFFCURVE",
"137 35 CURVE SMOOTH",
"115 35 OFFCURVE",
"101 47 OFFCURVE",
"101 63 CURVE SMOOTH",
"101 81 OFFCURVE",
"116 103 OFFCURVE",
"154 124 CURVE SMOOTH",
"189 142 OFFCURVE",
"231 152 OFFCURVE",
"248 152 CURVE SMOOTH",
"258 152 OFFCURVE",
"262 154 OFFCURVE",
"262 156 CURVE SMOOTH",
"262 158 OFFCURVE",
"257 161 OFFCURVE",
"246 161 CURVE SMOOTH",
"218 161 OFFCURVE",
"175 149 OFFCURVE",
"146 136 CURVE SMOOTH",
"99 113 OFFCURVE",
"74 81 OFFCURVE",
"74 54 CURVE SMOOTH",
"74 26 OFFCURVE",
"100 4 OFFCURVE",
"155 4 CURVE SMOOTH"
);
}
);
};
layerId = "F2190ACF-0345-4BD7-9FAD-2D95E96981D2";
paths = (
{
closed = 1;
nodes = (
"264 11 OFFCURVE",
"391 103 OFFCURVE",
"391 220 CURVE SMOOTH",
"391 275 OFFCURVE",
"347 304 OFFCURVE",
"288 304 CURVE SMOOTH",
"178 303 OFFCURVE",
"81 211 OFFCURVE",
"5 139 CURVE SMOOTH",
"1 136 OFFCURVE",
"-1 130 OFFCURVE",
"-1 127 CURVE SMOOTH",
"-1 124 OFFCURVE",
"0 122 OFFCURVE",
"2 122 CURVE SMOOTH",
"4 122 OFFCURVE",
"9 124 OFFCURVE",
"13 128 CURVE SMOOTH",
"61 177 OFFCURVE",
"184 277 OFFCURVE",
"253 277 CURVE SMOOTH",
"286 277 OFFCURVE",
"303 255 OFFCURVE",
"303 225 CURVE SMOOTH",
"303 162 OFFCURVE",
"232 78 OFFCURVE",
"173 51 CURVE SMOOTH",
"160 45 OFFCURVE",
"147 42 OFFCURVE",
"137 42 CURVE SMOOTH",
"115 42 OFFCURVE",
"101 54 OFFCURVE",
"101 70 CURVE SMOOTH",
"101 88 OFFCURVE",
"116 110 OFFCURVE",
"154 131 CURVE SMOOTH",
"189 149 OFFCURVE",
"231 159 OFFCURVE",
"248 159 CURVE SMOOTH",
"258 159 OFFCURVE",
"262 161 OFFCURVE",
"262 163 CURVE SMOOTH",
"262 165 OFFCURVE",
"257 168 OFFCURVE",
"246 168 CURVE SMOOTH",
"218 168 OFFCURVE",
"175 156 OFFCURVE",
"146 143 CURVE SMOOTH",
"99 120 OFFCURVE",
"74 88 OFFCURVE",
"74 61 CURVE SMOOTH",
"74 33 OFFCURVE",
"100 11 OFFCURVE",
"155 11 CURVE SMOOTH"
);
}
);
width = 407;
}
);
unicode = 0259;
},
{
glyphname = f;
lastChange = "2022-01-10 22:20:52 +0000";
layers = (
{
background = {
paths = (
{
closed = 1;
nodes = (
"37 -92 OFFCURVE",
"43 -89 OFFCURVE",
"39 -84 CURVE SMOOTH",
"31 -74 OFFCURVE",
"27 -59 OFFCURVE",
"27 -41 CURVE SMOOTH",
"27 22 OFFCURVE",
"69 128 OFFCURVE",
"129 225 CURVE SMOOTH",
"142 244 LINE",
"170 252 OFFCURVE",
"195 255 OFFCURVE",
"217 255 CURVE SMOOTH",
"242 255 OFFCURVE",
"261 251 OFFCURVE",
"273 243 CURVE SMOOTH",
"277 241 OFFCURVE",
"280 240 OFFCURVE",
"282 240 CURVE SMOOTH",
"285 240 OFFCURVE",
"287 242 OFFCURVE",
"287 246 CURVE SMOOTH",
"287 249 OFFCURVE",
"286 253 OFFCURVE",
"283 258 CURVE SMOOTH",
"278 265 OFFCURVE",
"271 272 OFFCURVE",
"262 279 CURVE SMOOTH",
"248 290 OFFCURVE",
"218 300 OFFCURVE",
"182 303 CURVE",
"221 356 OFFCURVE",
"271 416 OFFCURVE",
"319 447 CURVE SMOOTH",
"338 459 OFFCURVE",
"365 468 OFFCURVE",
"390 468 CURVE SMOOTH",
"422 468 OFFCURVE",
"451 454 OFFCURVE",
"461 418 CURVE SMOOTH",
"463 411 OFFCURVE",
"469 412 OFFCURVE",
"469 417 CURVE SMOOTH",
"469 418 LINE SMOOTH",
"458 481 OFFCURVE",
"403 515 OFFCURVE",
"343 515 CURVE SMOOTH",
"309 515 OFFCURVE",
"274 505 OFFCURVE",
"244 484 CURVE SMOOTH",
"195 451 OFFCURVE",
"144 380 OFFCURVE",
"101 300 CURVE",
"95 299 OFFCURVE",
"90 298 OFFCURVE",
"85 296 CURVE SMOOTH",
"48 286 OFFCURVE",
"38 266 OFFCURVE",
"38 247 CURVE SMOOTH",
"38 230 OFFCURVE",
"47 214 OFFCURVE",
"51 212 CURVE",
"52 211 OFFCURVE",
"55 211 OFFCURVE",
"58 212 CURVE",
"21 127 OFFCURVE",
"-3 44 OFFCURVE",
"-3 -5 CURVE SMOOTH",
"-3 -10 OFFCURVE",
"-3 -15 OFFCURVE",
"-2 -20 CURVE SMOOTH",
"3 -60 OFFCURVE",
"20 -78 OFFCURVE",
"34 -89 CURVE SMOOTH"
);
}
);
};
layerId = "F2190ACF-0345-4BD7-9FAD-2D95E96981D2";
paths = (
{
closed = 1;
nodes = (
"37 -92 OFFCURVE",
"43 -89 OFFCURVE",
"39 -84 CURVE SMOOTH",
"31 -74 OFFCURVE",
"27 -59 OFFCURVE",
"27 -41 CURVE SMOOTH",
"27 22 OFFCURVE",
"65 131 OFFCURVE",
"129 225 CURVE SMOOTH",
"142 244 LINE",
"170 252 OFFCURVE",
"195 255 OFFCURVE",
"217 255 CURVE SMOOTH",
"242 255 OFFCURVE",
"261 251 OFFCURVE",
"273 243 CURVE SMOOTH",
"277 241 OFFCURVE",
"280 240 OFFCURVE",
"282 240 CURVE SMOOTH",
"285 240 OFFCURVE",
"287 242 OFFCURVE",
"287 246 CURVE SMOOTH",
"287 249 OFFCURVE",
"286 253 OFFCURVE",
"283 258 CURVE SMOOTH",
"278 265 OFFCURVE",
"271 272 OFFCURVE",
"262 279 CURVE SMOOTH",
"248 290 OFFCURVE",
"218 300 OFFCURVE",
"182 303 CURVE",
"221 356 OFFCURVE",
"271 416 OFFCURVE",
"319 447 CURVE SMOOTH",
"338 459 OFFCURVE",
"365 468 OFFCURVE",
"390 468 CURVE SMOOTH",
"422 468 OFFCURVE",
"451 454 OFFCURVE",
"461 418 CURVE SMOOTH",
"463 411 OFFCURVE",
"469 412 OFFCURVE",
"469 417 CURVE SMOOTH",
"469 418 LINE SMOOTH",
"469 482 OFFCURVE",
"403 515 OFFCURVE",
"343 515 CURVE SMOOTH",
"309 515 OFFCURVE",
"274 505 OFFCURVE",
"244 484 CURVE SMOOTH",
"195 451 OFFCURVE",
"144 380 OFFCURVE",
"101 300 CURVE",
"95 299 OFFCURVE",
"90 298 OFFCURVE",
"85 296 CURVE SMOOTH",
"48 286 OFFCURVE",
"38 266 OFFCURVE",
"38 247 CURVE SMOOTH",
"38 230 OFFCURVE",
"47 211 OFFCURVE",
"54 211 CURVE SMOOTH",
"55 211 OFFCURVE",
"56 211 OFFCURVE",
"58 212 CURVE",
"21 127 OFFCURVE",
"-3 44 OFFCURVE",
"-3 -5 CURVE SMOOTH",
"-3 -35 OFFCURVE",
"6 -67 OFFCURVE",
"34 -89 CURVE SMOOTH"
);
}
);
width = 239;
}
);
note = f;
unicode = 0066;
},
{
glyphname = g;
lastChange = "2022-01-10 22:20:45 +0000";
layers = (
{
background = {
paths = (
{
closed = 1;
nodes = (
"176 -281 OFFCURVE",
"304 146 OFFCURVE",
"386 188 CURVE SMOOTH",
"391 191 OFFCURVE",
"394 194 OFFCURVE",
"394 197 CURVE SMOOTH",
"394 212 OFFCURVE",
"351 231 OFFCURVE",
"340 231 CURVE",
"334 248 OFFCURVE",
"325 259 OFFCURVE",
"301 274 CURVE SMOOTH",
"283 285 OFFCURVE",
"262 289 OFFCURVE",
"239 289 CURVE SMOOTH",
"176 289 OFFCURVE",
"100 254 OFFCURVE",
"53 204 CURVE SMOOTH",
"8 156 OFFCURVE",
"-12 107 OFFCURVE",
"-12 69 CURVE SMOOTH",
"-12 27 OFFCURVE",
"12 -1 OFFCURVE",
"53 -1 CURVE SMOOTH",
"74 -1 OFFCURVE",
"100 6 OFFCURVE",
"130 24 CURVE SMOOTH",
"165 45 OFFCURVE",
"245 125 OFFCURVE",
"279 163 CURVE",
"177 27 OFFCURVE",
"91 -243 OFFCURVE",
"-108 -252 CURVE SMOOTH",
"-262 -259 OFFCURVE",
"-285 -134 OFFCURVE",
"-286 -125 CURVE SMOOTH",
"-287 -121 OFFCURVE",
"-291 -117 OFFCURVE",
"-295 -117 CURVE SMOOTH",
"-297 -117 OFFCURVE",
"-298 -119 OFFCURVE",
"-298 -122 CURVE SMOOTH",
"-298 -124 LINE SMOOTH",
"-281 -230 OFFCURVE",
"-206 -262 OFFCURVE",
"-109 -267 CURVE SMOOTH"
);
},
{
closed = 1;
nodes = (
"68 25 OFFCURVE",
"60 32 OFFCURVE",
"60 47 CURVE SMOOTH",
"60 58 OFFCURVE",
"65 74 OFFCURVE",
"76 94 CURVE SMOOTH",
"103 142 OFFCURVE",
"167 209 OFFCURVE",
"215 235 CURVE SMOOTH",
"244 251 OFFCURVE",
"266 258 OFFCURVE",
"281 258 CURVE SMOOTH",
"297 258 OFFCURVE",
"305 251 OFFCURVE",
"305 238 CURVE SMOOTH",
"305 223 OFFCURVE",
"294 201 OFFCURVE",
"272 176 CURVE SMOOTH",
"235 133 OFFCURVE",
"174 74 OFFCURVE",
"130 45 CURVE SMOOTH",
"111 32 OFFCURVE",
"94 25 OFFCURVE",
"81 25 CURVE SMOOTH"
);
}
);
};
layerId = "F2190ACF-0345-4BD7-9FAD-2D95E96981D2";
paths = (
{
closed = 1;
nodes = (
"176 -267 OFFCURVE",
"304 146 OFFCURVE",
"386 188 CURVE SMOOTH",
"391 191 OFFCURVE",
"394 194 OFFCURVE",
"394 197 CURVE SMOOTH",
"394 212 OFFCURVE",
"351 231 OFFCURVE",
"340 231 CURVE",
"334 248 OFFCURVE",
"325 259 OFFCURVE",
"301 274 CURVE SMOOTH",
"283 285 OFFCURVE",
"262 289 OFFCURVE",
"239 289 CURVE SMOOTH",
"176 289 OFFCURVE",
"100 254 OFFCURVE",
"53 204 CURVE SMOOTH",
"8 156 OFFCURVE",
"-12 107 OFFCURVE",
"-12 69 CURVE SMOOTH",
"-12 27 OFFCURVE",
"12 -1 OFFCURVE",
"53 -1 CURVE SMOOTH",
"74 -1 OFFCURVE",
"100 6 OFFCURVE",
"130 24 CURVE SMOOTH",
"165 45 OFFCURVE",
"245 125 OFFCURVE",
"279 163 CURVE",
"177 27 OFFCURVE",
"91 -252 OFFCURVE",
"-120 -252 CURVE SMOOTH",
"-262 -252 OFFCURVE",
"-285 -134 OFFCURVE",
"-286 -125 CURVE SMOOTH",
"-287 -121 OFFCURVE",
"-291 -117 OFFCURVE",
"-295 -117 CURVE SMOOTH",
"-298 -117 OFFCURVE",
"-298 -120 OFFCURVE",
"-298 -124 CURVE SMOOTH",
"-298 -150 OFFCURVE",
"-276 -193 OFFCURVE",
"-254 -215 CURVE SMOOTH",
"-222 -247 OFFCURVE",
"-171 -267 OFFCURVE",
"-89 -267 CURVE SMOOTH"
);
},
{
closed = 1;
nodes = (
"68 25 OFFCURVE",
"60 32 OFFCURVE",
"60 47 CURVE SMOOTH",
"60 58 OFFCURVE",
"65 74 OFFCURVE",
"76 94 CURVE SMOOTH",
"103 142 OFFCURVE",
"167 209 OFFCURVE",
"215 235 CURVE SMOOTH",
"244 251 OFFCURVE",
"266 258 OFFCURVE",
"281 258 CURVE SMOOTH",
"297 258 OFFCURVE",
"305 251 OFFCURVE",
"305 238 CURVE SMOOTH",
"305 223 OFFCURVE",
"294 201 OFFCURVE",
"272 176 CURVE SMOOTH",
"235 133 OFFCURVE",
"174 74 OFFCURVE",
"130 45 CURVE SMOOTH",
"111 32 OFFCURVE",
"94 25 OFFCURVE",
"81 25 CURVE SMOOTH"
);
}
);
width = 408;
}
);
note = g;
unicode = 0067;
},
{
glyphname = h;
lastChange = "2022-01-10 22:20:35 +0000";
layers = (
{
background = {
paths = (
{
closed = 1;
nodes = (
"235 -1 OFFCURVE",
"258 6 OFFCURVE",
"284 23 CURVE SMOOTH",
"349 65 OFFCURVE",
"402 114 OFFCURVE",
"437 150 CURVE SMOOTH",
"441 155 OFFCURVE",
"444 160 OFFCURVE",
"444 164 CURVE SMOOTH",
"444 166 OFFCURVE",
"443 167 OFFCURVE",
"441 167 CURVE SMOOTH",
"439 167 OFFCURVE",
"436 165 OFFCURVE",
"432 161 CURVE SMOOTH",
"418 148 OFFCURVE",
"333 72 OFFCURVE",
"286 43 CURVE SMOOTH",
"271 34 OFFCURVE",
"260 29 OFFCURVE",
"253 29 CURVE SMOOTH",
"248 29 OFFCURVE",
"245 32 OFFCURVE",
"245 38 CURVE SMOOTH",
"245 48 OFFCURVE",
"252 65 OFFCURVE",
"268 91 CURVE SMOOTH",
"290 128 OFFCURVE",
"317 177 OFFCURVE",
"323 194 CURVE SMOOTH",
"327 205 OFFCURVE",
"329 216 OFFCURVE",
"329 226 CURVE SMOOTH",
"329 260 OFFCURVE",
"305 283 OFFCURVE",
"271 283 CURVE SMOOTH",
"240 283 OFFCURVE",
"200 264 OFFCURVE",
"160 220 CURVE SMOOTH",
"143 201 OFFCURVE",
"125 177 OFFCURVE",
"109 154 CURVE",
"185 295 OFFCURVE",
"308 465 OFFCURVE",
"416 551 CURVE SMOOTH",
"451 579 OFFCURVE",
"476 591 OFFCURVE",
"492 591 CURVE SMOOTH",
"506 591 OFFCURVE",
"512 582 OFFCURVE",
"512 568 CURVE SMOOTH",
"512 551 OFFCURVE",
"503 527 OFFCURVE",
"486 500 CURVE SMOOTH",
"456 450 OFFCURVE",
"337 359 OFFCURVE",
"261 325 CURVE SMOOTH",
"253 322 OFFCURVE",
"250 318 OFFCURVE",
"250 315 CURVE SMOOTH",
"250 312 OFFCURVE",
"253 310 OFFCURVE",
"257 310 CURVE SMOOTH",
"260 310 OFFCURVE",
"262 311 OFFCURVE",
"265 312 CURVE SMOOTH",
"350 349 OFFCURVE",
"473 439 OFFCURVE",
"507 492 CURVE SMOOTH",
"530 527 OFFCURVE",
"542 563 OFFCURVE",
"542 590 CURVE SMOOTH",
"542 612 OFFCURVE",
"535 629 OFFCURVE",
"520 638 CURVE SMOOTH",
"508 645 OFFCURVE",
"494 649 OFFCURVE",
"477 649 CURVE SMOOTH",
"433 649 OFFCURVE",
"375 623 OFFCURVE",
"326 575 CURVE SMOOTH",
"216 468 OFFCURVE",
"113 284 OFFCURVE",
"88 226 CURVE",
"52 180 OFFCURVE",
"23 154 OFFCURVE",
"-8 127 CURVE SMOOTH",
"-14 122 OFFCURVE",
"-17 119 OFFCURVE",
"-17 116 CURVE SMOOTH",
"-17 113 OFFCURVE",
"-14 111 OFFCURVE",
"-11 111 CURVE SMOOTH",
"-9 111 OFFCURVE",
"-5 112 OFFCURVE",
"-2 115 CURVE SMOOTH",
"27 138 OFFCURVE",
"51 163 OFFCURVE",
"71 185 CURVE",
"35 98 OFFCURVE",
"10 27 OFFCURVE",
"4 15 CURVE SMOOTH",
"2 11 OFFCURVE",
"1 8 OFFCURVE",
"1 5 CURVE SMOOTH",
"1 2 OFFCURVE",
"3 0 OFFCURVE",
"7 0 CURVE SMOOTH",
"18 0 OFFCURVE",
"40 13 OFFCURVE",
"44 22 CURVE",
"44 19 OFFCURVE",
"44 20 OFFCURVE",
"45 24 CURVE",
"52 40 OFFCURVE",
"60 58 OFFCURVE",
"70 79 CURVE",
"93 117 OFFCURVE",
"127 161 OFFCURVE",
"151 190 CURVE SMOOTH",
"194 242 OFFCURVE",
"236 264 OFFCURVE",
"258 264 CURVE SMOOTH",
"269 264 OFFCURVE",
"276 259 OFFCURVE",
"276 249 CURVE SMOOTH",
"276 245 OFFCURVE",
"275 239 OFFCURVE",
"272 233 CURVE SMOOTH",
"254 195 OFFCURVE",
"221 165 OFFCURVE",
"191 124 CURVE SMOOTH",
"171 97 OFFCURVE",
"162 71 OFFCURVE",
"162 51 CURVE SMOOTH",
"162 19 OFFCURVE",
"183 -1 OFFCURVE",
"216 -1 CURVE SMOOTH"
);
},
{
closed = 1;
nodes = (
"45 26 OFFCURVE",
"46 30 OFFCURVE",
"48 34 CURVE",
"45 24 LINE",
"44 22 LINE"
);
}
);
};
layerId = "F2190ACF-0345-4BD7-9FAD-2D95E96981D2";
paths = (
{
closed = 1;
nodes = (
"235 -1 OFFCURVE",
"258 6 OFFCURVE",
"284 23 CURVE SMOOTH",
"349 65 OFFCURVE",
"402 114 OFFCURVE",
"437 150 CURVE SMOOTH",
"441 155 OFFCURVE",
"444 160 OFFCURVE",
"444 164 CURVE SMOOTH",
"444 166 OFFCURVE",
"443 167 OFFCURVE",
"441 167 CURVE SMOOTH",
"439 167 OFFCURVE",
"436 165 OFFCURVE",
"432 161 CURVE SMOOTH",
"418 148 OFFCURVE",
"333 72 OFFCURVE",
"286 43 CURVE SMOOTH",
"271 34 OFFCURVE",
"260 29 OFFCURVE",
"253 29 CURVE SMOOTH",
"248 29 OFFCURVE",
"245 32 OFFCURVE",
"245 38 CURVE SMOOTH",
"245 48 OFFCURVE",
"252 65 OFFCURVE",
"268 91 CURVE SMOOTH",
"284 118 OFFCURVE",
"303 151 OFFCURVE",
"314 174 CURVE SMOOTH",
"322 189 OFFCURVE",
"329 207 OFFCURVE",
"329 226 CURVE SMOOTH",
"329 260 OFFCURVE",
"305 283 OFFCURVE",
"271 283 CURVE SMOOTH",
"240 283 OFFCURVE",
"200 264 OFFCURVE",
"160 220 CURVE SMOOTH",
"143 201 OFFCURVE",
"125 177 OFFCURVE",
"109 154 CURVE",
"185 295 OFFCURVE",
"308 465 OFFCURVE",
"416 551 CURVE SMOOTH",
"451 579 OFFCURVE",
"476 591 OFFCURVE",
"490 591 CURVE SMOOTH",
"504 591 OFFCURVE",
"512 584 OFFCURVE",
"512 571 CURVE SMOOTH",
"512 551 OFFCURVE",
"505 524 OFFCURVE",
"469 479 CURVE SMOOTH",
"423 420 OFFCURVE",
"337 359 OFFCURVE",
"261 325 CURVE SMOOTH",
"253 322 OFFCURVE",
"250 318 OFFCURVE",
"250 315 CURVE SMOOTH",
"250 312 OFFCURVE",
"253 310 OFFCURVE",
"257 310 CURVE SMOOTH",
"260 310 OFFCURVE",
"262 311 OFFCURVE",
"265 312 CURVE SMOOTH",
"350 349 OFFCURVE",
"432 404 OFFCURVE",
"489 468 CURVE SMOOTH",
"514 496 OFFCURVE",
"542 548 OFFCURVE",
"542 590 CURVE SMOOTH",
"542 631 OFFCURVE",
"516 649 OFFCURVE",
"477 649 CURVE SMOOTH",
"433 649 OFFCURVE",
"375 623 OFFCURVE",
"326 575 CURVE SMOOTH",
"216 468 OFFCURVE",
"113 284 OFFCURVE",
"88 226 CURVE",
"52 180 OFFCURVE",
"23 154 OFFCURVE",
"-8 127 CURVE SMOOTH",
"-14 122 OFFCURVE",
"-17 119 OFFCURVE",
"-17 116 CURVE SMOOTH",
"-17 113 OFFCURVE",
"-14 111 OFFCURVE",
"-11 111 CURVE SMOOTH",
"-9 111 OFFCURVE",
"-5 112 OFFCURVE",
"-2 115 CURVE SMOOTH",
"27 138 OFFCURVE",
"51 163 OFFCURVE",
"71 185 CURVE",
"35 98 OFFCURVE",
"10 27 OFFCURVE",
"4 15 CURVE SMOOTH",
"2 11 OFFCURVE",
"1 8 OFFCURVE",
"1 5 CURVE SMOOTH",
"1 2 OFFCURVE",
"3 0 OFFCURVE",
"7 0 CURVE SMOOTH",
"18 0 OFFCURVE",
"41 14 OFFCURVE",
"45 23 CURVE SMOOTH",
"60 59 OFFCURVE",
"65 69 OFFCURVE",
"73 84 CURVE SMOOTH",
"92 117 OFFCURVE",
"127 161 OFFCURVE",
"151 190 CURVE SMOOTH",
"194 242 OFFCURVE",
"236 264 OFFCURVE",
"258 264 CURVE SMOOTH",
"269 264 OFFCURVE",
"276 259 OFFCURVE",
"276 249 CURVE SMOOTH",
"276 240 OFFCURVE",
"274 235 OFFCURVE",
"266 221 CURVE SMOOTH",
"252 195 OFFCURVE",
"221 165 OFFCURVE",
"191 124 CURVE SMOOTH",
"171 97 OFFCURVE",
"162 71 OFFCURVE",
"162 51 CURVE SMOOTH",
"162 19 OFFCURVE",
"183 -1 OFFCURVE",
"216 -1 CURVE SMOOTH"
);
}
);
width = 403;
}
);
note = h;
unicode = 0068;
},
{
glyphname = i;
lastChange = "2022-01-10 22:20:28 +0000";
layers = (
{
background = {
paths = (
{
closed = 1;
nodes = (
"137 -1 OFFCURVE",
"236 81 OFFCURVE",
"303 143 CURVE SMOOTH",
"307 146 OFFCURVE",
"306 155 OFFCURVE",
"300 155 CURVE SMOOTH",
"298 155 OFFCURVE",
"296 154 OFFCURVE",
"293 151 CURVE SMOOTH",
"235 98 OFFCURVE",
"155 36 OFFCURVE",
"117 36 CURVE SMOOTH",
"105 36 OFFCURVE",
"97 44 OFFCURVE",
"97 61 CURVE SMOOTH",
"97 108 OFFCURVE",
"147 213 OFFCURVE",
"192 259 CURVE SMOOTH",
"196 264 OFFCURVE",
"188 270 OFFCURVE",
"174 270 CURVE SMOOTH",
"164 270 OFFCURVE",
"151 267 OFFCURVE",
"127 254 CURVE SMOOTH",
"93 236 OFFCURVE",
"42 169 OFFCURVE",
"-9 126 CURVE SMOOTH",
"-17 120 OFFCURVE",
"-20 114 OFFCURVE",
"-20 110 CURVE SMOOTH",
"-20 107 OFFCURVE",
"-18 105 OFFCURVE",
"-16 105 CURVE SMOOTH",
"-14 105 OFFCURVE",
"-12 106 OFFCURVE",
"-10 108 CURVE SMOOTH",
"4 119 OFFCURVE",
"29 142 OFFCURVE",
"56 165 CURVE",
"39 145 OFFCURVE",
"24 127 OFFCURVE",
"16 114 CURVE SMOOTH",
"10 104 OFFCURVE",
"0 80 OFFCURVE",
"0 56 CURVE SMOOTH",
"0 27 OFFCURVE",
"15 -1 OFFCURVE",
"70 -1 CURVE SMOOTH"
);
},
{
closed = 1;
nodes = (
"237 306 OFFCURVE",
"253 314 OFFCURVE",
"265 327 CURVE SMOOTH",
"276 339 OFFCURVE",
"282 353 OFFCURVE",
"282 365 CURVE SMOOTH",
"282 374 OFFCURVE",
"278 382 OFFCURVE",
"272 387 CURVE SMOOTH",
"267 391 OFFCURVE",
"261 393 OFFCURVE",
"254 393 CURVE SMOOTH",
"240 393 OFFCURVE",
"224 385 OFFCURVE",
"212 371 CURVE SMOOTH",
"201 359 OFFCURVE",
"195 345 OFFCURVE",
"195 334 CURVE SMOOTH",
"195 325 OFFCURVE",
"199 317 OFFCURVE",
"205 312 CURVE SMOOTH",
"210 308 OFFCURVE",
"216 306 OFFCURVE",
"223 306 CURVE SMOOTH"
);
}
);
};
layerId = "F2190ACF-0345-4BD7-9FAD-2D95E96981D2";
paths = (
{
closed = 1;
nodes = (
"137 -1 OFFCURVE",
"236 81 OFFCURVE",
"303 143 CURVE SMOOTH",
"307 146 OFFCURVE",
"306 155 OFFCURVE",
"300 155 CURVE SMOOTH",
"298 155 OFFCURVE",
"296 154 OFFCURVE",
"293 151 CURVE SMOOTH",
"235 98 OFFCURVE",
"155 36 OFFCURVE",
"117 36 CURVE SMOOTH",
"105 36 OFFCURVE",
"97 44 OFFCURVE",
"97 61 CURVE SMOOTH",
"97 108 OFFCURVE",
"147 213 OFFCURVE",
"192 259 CURVE SMOOTH",
"196 264 OFFCURVE",
"188 270 OFFCURVE",
"174 270 CURVE SMOOTH",
"164 270 OFFCURVE",
"151 267 OFFCURVE",
"127 254 CURVE SMOOTH",
"93 236 OFFCURVE",
"42 169 OFFCURVE",
"-9 126 CURVE SMOOTH",
"-17 120 OFFCURVE",
"-20 114 OFFCURVE",
"-20 110 CURVE SMOOTH",
"-20 107 OFFCURVE",
"-18 105 OFFCURVE",
"-16 105 CURVE SMOOTH",
"-14 105 OFFCURVE",
"-12 106 OFFCURVE",
"-10 108 CURVE SMOOTH",
"4 119 OFFCURVE",
"29 142 OFFCURVE",
"56 165 CURVE",
"39 145 OFFCURVE",
"24 127 OFFCURVE",
"16 114 CURVE SMOOTH",
"10 104 OFFCURVE",
"0 80 OFFCURVE",
"0 56 CURVE SMOOTH",
"0 27 OFFCURVE",
"15 -1 OFFCURVE",
"70 -1 CURVE SMOOTH"
);
},
{
closed = 1;
nodes = (
"252 306 OFFCURVE",
"282 337 OFFCURVE",
"282 365 CURVE SMOOTH",
"282 378 OFFCURVE",
"273 393 OFFCURVE",
"254 393 CURVE SMOOTH",
"226 393 OFFCURVE",
"195 360 OFFCURVE",
"195 334 CURVE SMOOTH",
"195 321 OFFCURVE",
"204 306 OFFCURVE",
"223 306 CURVE SMOOTH"
);
}
);
width = 275;
}
);
note = i;
unicode = 0069;
},
{
color = 11;
glyphname = idotless;
lastChange = "2022-01-10 21:39:40 +0000";
layers = (
{
background = {
paths = (
{
closed = 1;
nodes = (
"134 -8 OFFCURVE",
"231 74 OFFCURVE",
"301 137 CURVE SMOOTH",
"305 140 OFFCURVE",
"303 148 OFFCURVE",
"297 148 CURVE SMOOTH",
"295 148 OFFCURVE",
"293 147 OFFCURVE",
"290 144 CURVE SMOOTH",
"232 91 OFFCURVE",
"152 29 OFFCURVE",
"114 29 CURVE SMOOTH",
"102 29 OFFCURVE",
"94 37 OFFCURVE",
"94 54 CURVE SMOOTH",
"94 101 OFFCURVE",
"144 206 OFFCURVE",
"189 252 CURVE SMOOTH",
"193 257 OFFCURVE",
"185 263 OFFCURVE",
"171 263 CURVE SMOOTH",
"161 263 OFFCURVE",
"148 260 OFFCURVE",
"133 252 CURVE SMOOTH",
"101 235 OFFCURVE",
"37 159 OFFCURVE",
"-12 120 CURVE SMOOTH",
"-20 114 OFFCURVE",
"-23 107 OFFCURVE",
"-23 103 CURVE SMOOTH",
"-23 100 OFFCURVE",
"-21 98 OFFCURVE",
"-19 98 CURVE SMOOTH",
"-17 98 OFFCURVE",
"-15 99 OFFCURVE",
"-13 101 CURVE SMOOTH",
"1 112 OFFCURVE",
"26 135 OFFCURVE",
"53 158 CURVE",
"36 138 OFFCURVE",
"21 120 OFFCURVE",
"13 107 CURVE SMOOTH",
"7 97 OFFCURVE",
"-3 73 OFFCURVE",
"-3 49 CURVE SMOOTH",
"-3 20 OFFCURVE",
"12 -8 OFFCURVE",
"67 -8 CURVE SMOOTH"
);
}
);
};
layerId = "F2190ACF-0345-4BD7-9FAD-2D95E96981D2";
paths = (
{
closed = 1;
nodes = (
"134 -1 OFFCURVE",
"231 81 OFFCURVE",
"301 144 CURVE SMOOTH",
"305 147 OFFCURVE",
"303 155 OFFCURVE",
"297 155 CURVE SMOOTH",
"295 155 OFFCURVE",
"293 154 OFFCURVE",
"290 151 CURVE SMOOTH",
"232 98 OFFCURVE",
"152 36 OFFCURVE",
"114 36 CURVE SMOOTH",
"102 36 OFFCURVE",
"94 44 OFFCURVE",
"94 61 CURVE SMOOTH",
"94 108 OFFCURVE",
"144 213 OFFCURVE",
"189 259 CURVE SMOOTH",
"193 264 OFFCURVE",
"185 270 OFFCURVE",
"171 270 CURVE SMOOTH",
"161 270 OFFCURVE",
"148 267 OFFCURVE",
"133 259 CURVE SMOOTH",
"101 242 OFFCURVE",
"37 166 OFFCURVE",
"-12 127 CURVE SMOOTH",
"-20 121 OFFCURVE",
"-23 114 OFFCURVE",
"-23 110 CURVE SMOOTH",
"-23 107 OFFCURVE",
"-21 105 OFFCURVE",
"-19 105 CURVE SMOOTH",
"-17 105 OFFCURVE",
"-15 106 OFFCURVE",
"-13 108 CURVE SMOOTH",
"1 119 OFFCURVE",
"26 142 OFFCURVE",
"53 165 CURVE",
"36 145 OFFCURVE",
"21 127 OFFCURVE",
"13 114 CURVE SMOOTH",
"7 104 OFFCURVE",
"-3 80 OFFCURVE",
"-3 56 CURVE SMOOTH",
"-3 27 OFFCURVE",
"12 -1 OFFCURVE",
"67 -1 CURVE SMOOTH"
);
}
);
width = 272;
}
);
note = dotlessi;
unicode = 0131;
},
{
glyphname = j;
lastChange = "2022-01-10 22:20:20 +0000";
layers = (
{
background = {
paths = (
{
closed = 1;
nodes = (
"-237 -269 OFFCURVE",
"-122 -205 OFFCURVE",
"-51 -130 CURVE SMOOTH",
"2 -74 OFFCURVE",
"118 126 OFFCURVE",
"118 219 CURVE SMOOTH",
"118 226 OFFCURVE",
"117 232 OFFCURVE",
"116 238 CURVE SMOOTH",
"108 269 OFFCURVE",
"87 274 OFFCURVE",
"75 273 CURVE SMOOTH",
"72 273 OFFCURVE",
"68 269 OFFCURVE",
"68 266 CURVE SMOOTH",
"68 265 OFFCURVE",
"68 264 OFFCURVE",
"70 263 CURVE SMOOTH",
"78 260 OFFCURVE",
"82 253 OFFCURVE",
"82 243 CURVE",
"75 202 OFFCURVE",
"24 155 OFFCURVE",
"9 142 CURVE SMOOTH",
"5 139 OFFCURVE",
"4 136 OFFCURVE",
"4 133 CURVE SMOOTH",
"4 129 OFFCURVE",
"6 126 OFFCURVE",
"9 126 CURVE",
"9 126 OFFCURVE",
"10 126 OFFCURVE",
"11 127 CURVE SMOOTH",
"22 136 OFFCURVE",
"53 167 OFFCURVE",
"64 178 CURVE",
"33 109 OFFCURVE",
"-27 20 OFFCURVE",
"-50 -11 CURVE SMOOTH",
"-140 -136 OFFCURVE",
"-277 -251 OFFCURVE",
"-371 -251 CURVE SMOOTH",
"-446 -251 OFFCURVE",
"-510 -200 OFFCURVE",
"-524 -125 CURVE SMOOTH",
"-525 -121 OFFCURVE",
"-528 -118 OFFCURVE",
"-530 -118 CURVE SMOOTH",
"-532 -118 OFFCURVE",
"-534 -120 OFFCURVE",
"-534 -124 CURVE SMOOTH",
"-534 -126 LINE SMOOTH",
"-517 -229 OFFCURVE",
"-438 -269 OFFCURVE",
"-342 -269 CURVE SMOOTH"
);
},
{
closed = 1;
nodes = (
"151 306 OFFCURVE",
"167 314 OFFCURVE",
"179 327 CURVE SMOOTH",
"190 339 OFFCURVE",
"196 353 OFFCURVE",
"196 365 CURVE SMOOTH",
"196 374 OFFCURVE",
"192 382 OFFCURVE",
"186 387 CURVE SMOOTH",
"181 391 OFFCURVE",
"175 393 OFFCURVE",
"168 393 CURVE SMOOTH",
"154 393 OFFCURVE",
"138 385 OFFCURVE",
"126 371 CURVE SMOOTH",
"115 359 OFFCURVE",
"109 345 OFFCURVE",
"109 334 CURVE SMOOTH",
"109 325 OFFCURVE",
"113 317 OFFCURVE",
"119 312 CURVE SMOOTH",
"124 308 OFFCURVE",
"130 306 OFFCURVE",
"137 306 CURVE SMOOTH"
);
}
);
};
layerId = "F2190ACF-0345-4BD7-9FAD-2D95E96981D2";
paths = (
{
closed = 1;
nodes = (
"-237 -269 OFFCURVE",
"-122 -205 OFFCURVE",
"-51 -130 CURVE SMOOTH",
"2 -74 OFFCURVE",
"118 126 OFFCURVE",
"118 219 CURVE SMOOTH",
"118 252 OFFCURVE",
"102 273 OFFCURVE",
"76 273 CURVE SMOOTH",
"72 273 OFFCURVE",
"68 269 OFFCURVE",
"68 266 CURVE SMOOTH",
"68 265 OFFCURVE",
"68 264 OFFCURVE",
"70 263 CURVE SMOOTH",
"77 260 OFFCURVE",
"82 254 OFFCURVE",
"82 246 CURVE SMOOTH",
"82 210 OFFCURVE",
"24 155 OFFCURVE",
"9 142 CURVE SMOOTH",
"5 139 OFFCURVE",
"4 136 OFFCURVE",
"4 133 CURVE SMOOTH",
"4 129 OFFCURVE",
"6 126 OFFCURVE",
"9 126 CURVE",
"9 126 OFFCURVE",
"10 126 OFFCURVE",
"11 127 CURVE SMOOTH",
"22 136 OFFCURVE",
"53 167 OFFCURVE",
"64 178 CURVE",
"33 109 OFFCURVE",
"-27 20 OFFCURVE",
"-50 -11 CURVE SMOOTH",
"-140 -136 OFFCURVE",
"-277 -251 OFFCURVE",
"-371 -251 CURVE SMOOTH",
"-446 -251 OFFCURVE",
"-510 -200 OFFCURVE",
"-524 -125 CURVE SMOOTH",
"-525 -121 OFFCURVE",
"-528 -118 OFFCURVE",
"-530 -118 CURVE SMOOTH",
"-532 -118 OFFCURVE",
"-534 -120 OFFCURVE",
"-534 -124 CURVE SMOOTH",
"-534 -126 LINE SMOOTH",
"-534 -230 OFFCURVE",
"-438 -269 OFFCURVE",
"-342 -269 CURVE SMOOTH"
);
},
{
closed = 1;
nodes = (
"166 306 OFFCURVE",
"196 337 OFFCURVE",
"196 365 CURVE SMOOTH",
"196 378 OFFCURVE",
"187 393 OFFCURVE",
"168 393 CURVE SMOOTH",
"140 393 OFFCURVE",
"109 360 OFFCURVE",
"109 334 CURVE SMOOTH",
"109 321 OFFCURVE",
"118 306 OFFCURVE",
"137 306 CURVE SMOOTH"
);
}
);
width = 156;
}
);
note = j;
unicode = 006A;
},
{
color = 11;
glyphname = jdotless;
lastChange = "2022-01-10 21:39:40 +0000";
layers = (
{
background = {
paths = (
{
closed = 1;
nodes = (
"-237 -276 OFFCURVE",
"-122 -212 OFFCURVE",
"-51 -137 CURVE SMOOTH",
"2 -81 OFFCURVE",
"118 119 OFFCURVE",
"118 212 CURVE SMOOTH",
"118 219 OFFCURVE",
"117 225 OFFCURVE",
"116 231 CURVE SMOOTH",
"108 262 OFFCURVE",
"87 267 OFFCURVE",
"75 266 CURVE SMOOTH",
"72 266 OFFCURVE",
"68 262 OFFCURVE",
"68 259 CURVE SMOOTH",
"68 258 OFFCURVE",
"68 257 OFFCURVE",
"70 256 CURVE SMOOTH",
"78 253 OFFCURVE",
"82 246 OFFCURVE",
"82 236 CURVE",
"75 195 OFFCURVE",
"24 148 OFFCURVE",
"9 135 CURVE SMOOTH",
"5 132 OFFCURVE",
"4 129 OFFCURVE",
"4 126 CURVE SMOOTH",
"4 122 OFFCURVE",
"6 119 OFFCURVE",
"9 119 CURVE",
"9 119 OFFCURVE",
"10 119 OFFCURVE",
"11 120 CURVE SMOOTH",
"22 129 OFFCURVE",
"53 160 OFFCURVE",
"64 171 CURVE",
"33 102 OFFCURVE",
"-27 13 OFFCURVE",
"-50 -18 CURVE SMOOTH",
"-140 -143 OFFCURVE",
"-277 -258 OFFCURVE",
"-371 -258 CURVE SMOOTH",
"-446 -258 OFFCURVE",
"-510 -207 OFFCURVE",
"-524 -132 CURVE SMOOTH",
"-525 -128 OFFCURVE",
"-528 -125 OFFCURVE",
"-530 -125 CURVE SMOOTH",
"-532 -125 OFFCURVE",
"-534 -127 OFFCURVE",
"-534 -131 CURVE SMOOTH",
"-534 -133 LINE SMOOTH",
"-517 -236 OFFCURVE",
"-438 -276 OFFCURVE",
"-342 -276 CURVE SMOOTH"
);
}
);
};
layerId = "F2190ACF-0345-4BD7-9FAD-2D95E96981D2";
paths = (
{
closed = 1;
nodes = (
"-237 -269 OFFCURVE",
"-122 -205 OFFCURVE",
"-51 -130 CURVE SMOOTH",
"2 -74 OFFCURVE",
"118 126 OFFCURVE",
"118 219 CURVE SMOOTH",
"118 226 OFFCURVE",
"117 232 OFFCURVE",
"116 238 CURVE SMOOTH",
"108 269 OFFCURVE",
"87 274 OFFCURVE",
"75 273 CURVE SMOOTH",
"72 273 OFFCURVE",
"68 269 OFFCURVE",
"68 266 CURVE SMOOTH",
"68 265 OFFCURVE",
"68 264 OFFCURVE",
"70 263 CURVE SMOOTH",
"78 260 OFFCURVE",
"82 253 OFFCURVE",
"82 243 CURVE",
"75 202 OFFCURVE",
"24 155 OFFCURVE",
"9 142 CURVE SMOOTH",
"5 139 OFFCURVE",
"4 136 OFFCURVE",
"4 133 CURVE SMOOTH",
"4 129 OFFCURVE",
"6 126 OFFCURVE",
"9 126 CURVE",
"9 126 OFFCURVE",
"10 126 OFFCURVE",
"11 127 CURVE SMOOTH",
"22 136 OFFCURVE",
"53 167 OFFCURVE",
"64 178 CURVE",
"33 109 OFFCURVE",
"-27 20 OFFCURVE",
"-50 -11 CURVE SMOOTH",
"-140 -136 OFFCURVE",
"-277 -251 OFFCURVE",
"-371 -251 CURVE SMOOTH",
"-446 -251 OFFCURVE",
"-510 -200 OFFCURVE",
"-524 -125 CURVE SMOOTH",
"-525 -121 OFFCURVE",
"-528 -118 OFFCURVE",
"-530 -118 CURVE SMOOTH",
"-532 -118 OFFCURVE",
"-534 -120 OFFCURVE",
"-534 -124 CURVE SMOOTH",
"-534 -126 LINE SMOOTH",
"-517 -229 OFFCURVE",
"-438 -269 OFFCURVE",
"-342 -269 CURVE SMOOTH"
);
}
);
width = 159;
}
);
unicode = 0237;
},
{
glyphname = k;
lastChange = "2022-01-10 22:20:04 +0000";
layers = (
{
background = {
paths = (
{
closed = 1;
nodes = (
"40 -81 OFFCURVE",
"46 -79 OFFCURVE",
"42 -73 CURVE SMOOTH",
"34 -63 OFFCURVE",
"30 -45 OFFCURVE",
"30 -23 CURVE SMOOTH",
"30 11 OFFCURVE",
"39 55 OFFCURVE",
"56 98 CURVE",
"77 57 OFFCURVE",
"148 6 OFFCURVE",
"230 6 CURVE SMOOTH",
"244 6 OFFCURVE",
"258 8 OFFCURVE",
"272 11 CURVE SMOOTH",
"301 18 OFFCURVE",
"325 34 OFFCURVE",
"325 59 CURVE SMOOTH",
"325 62 OFFCURVE",
"320 62 OFFCURVE",
"320 59 CURVE SMOOTH",
"320 42 OFFCURVE",
"298 28 OFFCURVE",
"275 28 CURVE SMOOTH",
"228 28 OFFCURVE",
"147 78 OFFCURVE",
"108 129 CURVE",
"118 125 OFFCURVE",
"131 123 OFFCURVE",
"144 123 CURVE SMOOTH",
"192 123 OFFCURVE",
"255 144 OFFCURVE",
"288 168 CURVE SMOOTH",
"331 200 OFFCURVE",
"347 235 OFFCURVE",
"347 262 CURVE SMOOTH",
"347 289 OFFCURVE",
"324 308 OFFCURVE",
"289 308 CURVE SMOOTH",
"274 308 OFFCURVE",
"258 305 OFFCURVE",
"240 298 CURVE SMOOTH",
"198 281 OFFCURVE",
"148 244 OFFCURVE",
"96 175 CURVE",
"151 266 OFFCURVE",
"259 414 OFFCURVE",
"365 509 CURVE SMOOTH",
"422 560 OFFCURVE",
"469 584 OFFCURVE",
"493 584 CURVE SMOOTH",
"504 584 OFFCURVE",
"510 579 OFFCURVE",
"510 569 CURVE SMOOTH",
"510 553 OFFCURVE",
"493 522 OFFCURVE",
"453 480 CURVE SMOOTH",
"405 430 OFFCURVE",
"315 365 OFFCURVE",
"253 337 CURVE SMOOTH",
"245 334 OFFCURVE",
"242 330 OFFCURVE",
"242 327 CURVE SMOOTH",
"242 324 OFFCURVE",
"245 322 OFFCURVE",
"249 322 CURVE SMOOTH",
"252 322 OFFCURVE",
"254 323 OFFCURVE",
"257 324 CURVE SMOOTH",
"323 353 OFFCURVE",
"411 413 OFFCURVE",
"464 463 CURVE SMOOTH",
"513 510 OFFCURVE",
"534 554 OFFCURVE",
"534 587 CURVE SMOOTH",
"534 622 OFFCURVE",
"510 645 OFFCURVE",
"470 645 CURVE SMOOTH",
"430 645 OFFCURVE",
"376 623 OFFCURVE",
"316 568 CURVE SMOOTH",
"198 459 OFFCURVE",
"121 345 OFFCURVE",
"54 197 CURVE",
"31 169 OFFCURVE",
"14 146 OFFCURVE",
"-7 128 CURVE SMOOTH",
"-15 120 OFFCURVE",
"-19 113 OFFCURVE",
"-19 109 CURVE SMOOTH",
"-19 107 OFFCURVE",
"-18 106 OFFCURVE",
"-16 106 CURVE SMOOTH",
"-14 106 OFFCURVE",
"-12 107 OFFCURVE",
"-10 109 CURVE SMOOTH",
"5 120 OFFCURVE",
"19 133 OFFCURVE",
"33 147 CURVE",
"12 93 OFFCURVE",
"0 43 OFFCURVE",
"0 3 CURVE SMOOTH",
"0 -5 OFFCURVE",
"0 -13 OFFCURVE",
"1 -20 CURVE SMOOTH",
"5 -52 OFFCURVE",
"23 -67 OFFCURVE",
"37 -79 CURVE SMOOTH"
);
},
{
closed = 1;
nodes = (
"117 134 OFFCURVE",
"109 135 OFFCURVE",
"104 138 CURVE SMOOTH",
"99 141 LINE",
"96 146 OFFCURVE",
"93 151 OFFCURVE",
"91 156 CURVE",
"110 179 OFFCURVE",
"132 200 OFFCURVE",
"154 220 CURVE SMOOTH",
"192 254 OFFCURVE",
"222 267 OFFCURVE",
"243 267 CURVE SMOOTH",
"264 267 OFFCURVE",
"276 253 OFFCURVE",
"276 234 CURVE SMOOTH",
"276 216 OFFCURVE",
"265 194 OFFCURVE",
"241 175 CURVE SMOOTH",
"211 152 OFFCURVE",
"158 134 OFFCURVE",
"125 134 CURVE SMOOTH"
);
}
);
};
layerId = "F2190ACF-0345-4BD7-9FAD-2D95E96981D2";
paths = (
{
closed = 1;
nodes = (
"40 -81 OFFCURVE",
"46 -79 OFFCURVE",
"42 -73 CURVE SMOOTH",
"34 -63 OFFCURVE",
"30 -45 OFFCURVE",
"30 -23 CURVE SMOOTH",
"30 11 OFFCURVE",
"39 55 OFFCURVE",
"56 98 CURVE",
"77 57 OFFCURVE",
"148 6 OFFCURVE",
"230 6 CURVE SMOOTH",
"244 6 OFFCURVE",
"258 8 OFFCURVE",
"272 11 CURVE SMOOTH",
"301 18 OFFCURVE",
"325 34 OFFCURVE",
"325 59 CURVE SMOOTH",
"325 62 OFFCURVE",
"320 62 OFFCURVE",
"320 59 CURVE SMOOTH",
"320 42 OFFCURVE",
"298 28 OFFCURVE",
"275 28 CURVE SMOOTH",
"228 28 OFFCURVE",
"147 78 OFFCURVE",
"108 129 CURVE",
"118 125 OFFCURVE",
"131 123 OFFCURVE",
"144 123 CURVE SMOOTH",
"192 123 OFFCURVE",
"255 144 OFFCURVE",
"288 168 CURVE SMOOTH",
"331 200 OFFCURVE",
"347 235 OFFCURVE",
"347 262 CURVE SMOOTH",
"347 289 OFFCURVE",
"324 308 OFFCURVE",
"289 308 CURVE SMOOTH",
"274 308 OFFCURVE",
"258 305 OFFCURVE",
"240 298 CURVE SMOOTH",
"198 281 OFFCURVE",
"148 244 OFFCURVE",
"96 175 CURVE",
"151 266 OFFCURVE",
"259 414 OFFCURVE",
"365 509 CURVE SMOOTH",
"422 560 OFFCURVE",
"469 584 OFFCURVE",
"493 584 CURVE SMOOTH",
"504 584 OFFCURVE",
"510 579 OFFCURVE",
"510 569 CURVE SMOOTH",
"510 553 OFFCURVE",
"493 522 OFFCURVE",
"453 480 CURVE SMOOTH",
"405 430 OFFCURVE",
"315 365 OFFCURVE",
"253 337 CURVE SMOOTH",
"245 334 OFFCURVE",
"242 330 OFFCURVE",
"242 327 CURVE SMOOTH",
"242 324 OFFCURVE",
"245 322 OFFCURVE",
"249 322 CURVE SMOOTH",
"252 322 OFFCURVE",
"254 323 OFFCURVE",
"257 324 CURVE SMOOTH",
"323 353 OFFCURVE",
"411 413 OFFCURVE",
"464 463 CURVE SMOOTH",
"513 510 OFFCURVE",
"534 554 OFFCURVE",
"534 587 CURVE SMOOTH",
"534 622 OFFCURVE",
"510 645 OFFCURVE",
"470 645 CURVE SMOOTH",
"430 645 OFFCURVE",
"376 623 OFFCURVE",
"316 568 CURVE SMOOTH",
"198 459 OFFCURVE",
"121 345 OFFCURVE",
"54 197 CURVE",
"31 169 OFFCURVE",
"14 146 OFFCURVE",
"-7 128 CURVE SMOOTH",
"-15 120 OFFCURVE",
"-19 113 OFFCURVE",
"-19 109 CURVE SMOOTH",
"-19 107 OFFCURVE",
"-18 106 OFFCURVE",
"-16 106 CURVE SMOOTH",
"-14 106 OFFCURVE",
"-12 107 OFFCURVE",
"-10 109 CURVE SMOOTH",
"5 120 OFFCURVE",
"19 133 OFFCURVE",
"33 147 CURVE",
"12 93 OFFCURVE",
"0 43 OFFCURVE",
"0 3 CURVE SMOOTH",
"0 -36 OFFCURVE",
"7 -53 OFFCURVE",
"37 -79 CURVE SMOOTH"
);
},
{
closed = 1;
nodes = (
"117 134 OFFCURVE",
"108 135 OFFCURVE",
"103 138 CURVE SMOOTH",
"98 141 OFFCURVE",
"94 149 OFFCURVE",
"91 156 CURVE",
"110 179 OFFCURVE",
"132 200 OFFCURVE",
"154 220 CURVE SMOOTH",
"192 254 OFFCURVE",
"222 267 OFFCURVE",
"243 267 CURVE SMOOTH",
"264 267 OFFCURVE",
"276 253 OFFCURVE",
"276 234 CURVE SMOOTH",
"276 216 OFFCURVE",
"265 194 OFFCURVE",
"241 175 CURVE SMOOTH",
"211 152 OFFCURVE",
"158 134 OFFCURVE",
"125 134 CURVE SMOOTH"
);
}
);
width = 340;
}
);
note = k;
unicode = 006B;
},
